<?xml version="1.0" encoding="UTF-8" standalone="no"?>
<!-- Created with Inkscape (http://www.inkscape.org/) -->

<svg
   width="120mm"
   height="120mm"
   viewBox="0 0 120 120"
   version="1.1"
   id="svg5"
   xml:space="preserve"
   inkscape:version="1.2.2 (b0a8486541, 2022-12-01)"
   sodipodi:docname="Icons.svg"
   inkscape:export-filename="../src/main/java/com/mr/apps/JNordVpnManager/resources/icons/connectMap_32.png"
   inkscape:export-xdpi="6.7733335"
   inkscape:export-ydpi="6.7733335"
   xmlns:inkscape="http://www.inkscape.org/namespaces/inkscape"
   xmlns:sodipodi="http://sodipodi.sourceforge.net/DTD/sodipodi-0.dtd"
   xmlns="http://www.w3.org/2000/svg"
   xmlns:svg="http://www.w3.org/2000/svg"><sodipodi:namedview
     id="namedview7"
     pagecolor="#505050"
     bordercolor="#eeeeee"
     borderopacity="1"
     inkscape:showpageshadow="0"
     inkscape:pageopacity="0"
     inkscape:pagecheckerboard="0"
     inkscape:deskcolor="#505050"
     inkscape:document-units="mm"
     showgrid="false"
     inkscape:zoom="1.3062462"
     inkscape:cx="157.70381"
     inkscape:cy="288.99606"
     inkscape:window-width="1920"
     inkscape:window-height="1011"
     inkscape:window-x="0"
     inkscape:window-y="0"
     inkscape:window-maximized="1"
     inkscape:current-layer="svg5" /><defs
     id="defs2" /><g
     inkscape:groupmode="layer"
     id="layer10"
     inkscape:label="Archiv"
     style="display:none"><path
       d="m 94.400934,114.98054 c -6.411859,-1.85187 -11.954179,-9.95661 -11.905354,-17.410142 0.02345,-3.325931 3.11528,-9.768405 5.92949,-12.347993 7.759114,-7.112384 21.32306,-5.118083 26.61574,3.91321 5.93196,10.121903 1.03236,22.861285 -9.96715,25.916155 -4.25488,1.1816 -6.383512,1.16735 -10.672726,-0.071 z m 10.459506,-8.21563 c 0,-1.03701 -1.27029,-1.40602 -4.84363,-1.40602 h -4.843648 l 0.993207,2.67708 c 0.54635,1.47273 1.74034,3.24703 2.653279,3.94297 1.422862,1.08479 1.972502,0.90336 3.850462,-1.27109 1.20469,-1.39529 2.19033,-3.16955 2.19033,-3.94294 z m -11.980711,1.51486 c -0.656331,-1.73917 -1.803771,-2.92088 -2.836084,-2.92088 -2.467692,0 -2.145465,1.48208 0.8316,3.82379 3.284037,2.58319 3.315152,2.56922 2.004484,-0.90291 z m 18.659821,-1.11765 c 0.95725,-1.53292 0.82952,-1.80323 -0.85347,-1.80323 -1.64057,0 -3.87842,3.13117 -3.87842,5.42634 0,0.8999 3.65486,-1.89902 4.73189,-3.62311 z M 91.230693,98.543798 c 0,-3.517606 -0.238245,-3.893681 -2.464455,-3.893681 -2.824978,0 -3.85543,1.854601 -2.976493,5.356333 0.445638,1.77613 1.261803,2.43193 3.025668,2.43193 2.168822,0 2.41528,-0.39777 2.41528,-3.894582 z m 14.603417,0 v -3.893681 h -5.841362 -5.841364 v 3.893681 3.894582 h 5.841364 5.841362 z m 8.76194,0 c 0,-3.606448 -0.20072,-3.893681 -2.6993,-3.893681 -2.50039,0 -2.6995,0.287303 -2.6995,3.893681 0,3.607342 0.20057,3.894582 2.6995,3.894582 2.50012,0 2.6993,-0.28728 2.6993,-3.894582 z M 92.919968,88.332908 c 1.006215,-3.278871 0.9751,-3.349326 -0.899465,-2.036492 -1.068013,0.7483 -2.583665,2.27612 -3.368085,3.396084 -1.327888,1.896153 -1.265903,2.036521 0.899477,2.036521 1.808263,0 2.557589,-0.755703 3.368073,-3.396113 z m 11.662212,0.314703 c -1.83469,-4.496608 -4.10689,-5.640688 -6.421278,-3.233109 -1.022478,1.063599 -2.153328,2.919229 -2.513093,4.123806 -0.623455,2.088198 -0.399747,2.190643 4.768881,2.190643 h 5.42288 z m 8.06684,2.413715 c 0,-0.942288 -4.07853,-5.173745 -4.98685,-5.173745 -0.41435,0 -0.29505,1.314705 0.26493,2.921135 0.65002,1.864022 1.68772,2.920235 2.87002,2.920235 1.0185,0 1.8519,-0.30044 1.8519,-0.667625 z"
       style="display:inline;fill:#000000;stroke-width:0.97359"
       id="path525"
       inkscape:label="World" /><path
       d="m 76.018254,93.601555 -4.39164,-4.437958 -0.0185,3.13774 -0.0185,3.137761 -4.74598,-0.0037 c -4.24592,-0.0033 -20.67962,0.02933 -21.17742,0.30978 -1.74068,0.98071 -1.75392,3.387599 -0.0242,4.391742 0.49498,0.28733 16.91715,0.32493 21.17386,0.36389 l 4.74692,0.0435 -0.0144,3.13926 -0.0145,3.13929 4.43798,-4.39165 4.43795,-4.391623 z"
       style="display:inline;fill:#000000;stroke-width:0.130785"
       id="path579-0-5"
       sodipodi:nodetypes="ccccscsccccccc"
       inkscape:label="Arrow Right" /><path
       d="m 3.5518224,112.74599 c -2.4383009,-4.55586 -1.5119873,-4.76324 21.3005126,-4.76324 h 21.320819 v 2.22591 c 0,4.30348 -1.181552,4.54843 -21.933804,4.54843 -18.8665865,0 -19.6520952,-0.0746 -20.6875276,-2.0111 z m 38.7503586,-0.89205 c 0.964989,-0.62375 -4.812414,-0.94301 -17.23463,-0.95301 -12.214727,-0.009 -18.479137,0.32032 -18.0881805,0.95301 0.7799473,1.2619 33.3700425,1.2619 35.3228105,0 z M 7.4632662,97.127835 c 0,-6.525024 0.4071901,-10.455464 1.1612861,-11.20977 0.805014,-0.804684 5.8419377,-1.16098 16.4176517,-1.16098 14.276743,0 15.323008,0.127335 16.294435,1.939553 1.432508,2.676376 0.850316,19.555992 -0.692168,20.067072 -0.854645,0.2829 -1.249335,-2.19522 -1.451611,-9.115295 L 38.914885,88.14407 24.675994,87.8763 10.437075,87.60853 10.159818,96.991395 c -0.1903927,6.439775 -0.6567227,9.508475 -1.4869727,9.783695 -0.915815,0.30362 -1.2096887,-2.03976 -1.2096887,-9.647485 z"
       style="display:inline;fill:#000000;stroke-width:0.967779"
       id="path395"
       inkscape:label="Computer" /><path
       d="m 103.56027,72.312261 v -6.24355 l -2.2202,2.21732 -2.220219,2.21733 -3.370858,-3.34092 c -3.015692,-2.98888 -3.435787,-3.35866 -3.98689,-3.50946 -1.927103,-0.52728 -3.629483,1.17424 -3.106266,3.10468 0.149727,0.5524 0.512222,0.964 3.510519,3.98581 l 3.343558,3.36982 -2.218372,2.22126 -2.218402,2.22127 h 6.243566 6.243564 z"
       style="display:inline;fill:#000000;stroke-width:0.130785"
       id="path579-0"
       inkscape:label="Arrow RightDown" /><path
       d="m 31.439941,69.799381 v 6.243559 l -2.220189,-2.217326 -2.22021,-2.217326 -3.370859,3.340916 c -3.015693,2.98888 -3.435788,3.358659 -3.986891,3.509455 -1.927104,0.527281 -3.629485,-1.174236 -3.106267,-3.104675 0.149727,-0.552398 0.512222,-0.963994 3.51052,-3.985814 l 3.343559,-3.369812 -2.218373,-2.221265 -2.218402,-2.221272 h 6.243567 6.243545 z"
       style="display:inline;fill:#000000;stroke-width:0.130785"
       id="path579-0-2"
       inkscape:label="Arrow LeftUp" /></g><g
     inkscape:groupmode="layer"
     id="layer5"
     inkscape:label="with Background"
     style="display:inline"><g
       inkscape:groupmode="layer"
       id="layer2"
       inkscape:label="Background"
       style="display:inline"><rect
         style="display:none;fill:#ffffff;stroke-width:0.27675"
         id="rect295"
         width="120"
         height="120"
         x="44.521023"
         y="23.563179"
         inkscape:label="White"
         transform="translate(-44.521022,-23.563179)" /><path
         style="display:inline;fill:#386eff;fill-opacity:1;stroke-width:0.264583"
         d="m 106.29211,-70.292126 c -0.25466,-0.447355 -0.46302,-0.972397 -0.46302,-1.166759 0,-0.194361 -0.0915,-0.393071 -0.20327,-0.441579 -0.38399,-0.166601 -1.37697,-1.605683 -1.24985,-1.811359 0.0699,-0.11317 -0.0583,-0.276929 -0.28496,-0.363908 -0.22667,-0.08698 -0.3375,-0.278892 -0.2463,-0.426469 0.0912,-0.147576 -0.0196,-0.339486 -0.24629,-0.426468 -0.22667,-0.08698 -0.35077,-0.257416 -0.27579,-0.378743 0.075,-0.12133 -0.015,-0.317215 -0.19996,-0.435298 -0.43783,-0.279522 -0.99775,-1.288873 -0.99775,-1.798608 0,-0.220256 -0.11906,-0.400466 -0.26458,-0.400466 -0.14552,0 -0.26458,-0.165857 -0.26458,-0.368567 0,-0.202713 -0.19564,-0.44364 -0.43475,-0.535395 -0.23911,-0.09175 -0.36809,-0.233476 -0.28663,-0.314939 0.0815,-0.08146 -0.0844,-0.380659 -0.36866,-0.664882 -0.28422,-0.284223 -0.45512,-0.616508 -0.37978,-0.738415 0.0753,-0.121904 -0.145944,-0.526934 -0.49175,-0.90006 -0.345802,-0.373128 -0.578821,-0.728329 -0.517816,-0.789334 0.061,-0.061 -0.07055,-0.261524 -0.292348,-0.4456 -0.2218,-0.184076 -0.40327,-0.457695 -0.40327,-0.608042 0,-0.150347 -0.292508,-0.656854 -0.650015,-1.125574 -0.357511,-0.468718 -0.575792,-0.926442 -0.485072,-1.017162 0.09072,-0.09072 0.03974,-0.164946 -0.113302,-0.164946 -0.153038,0 -0.482888,-0.312317 -0.733002,-0.694034 -0.25011,-0.38172 -0.314547,-0.607386 -0.143187,-0.501481 0.208809,0.129051 0.196869,0.0089 -0.0362,-0.364299 -0.19127,-0.306269 -0.438185,-0.556853 -0.548701,-0.556853 -0.110517,0 -0.200938,-0.165857 -0.200938,-0.368567 0,-0.202713 -0.18614,-0.439997 -0.413644,-0.527299 -0.227505,-0.0873 -0.33954,-0.278633 -0.24897,-0.425183 0.09057,-0.146547 0.03156,-0.266451 -0.131136,-0.266451 -0.162697,0 -0.229939,-0.106587 -0.149426,-0.23686 0.08051,-0.130271 -0.03907,-0.308026 -0.26574,-0.395005 -0.226668,-0.08698 -0.337499,-0.278892 -0.246292,-0.426468 0.09121,-0.147577 -0.01278,-0.336865 -0.231108,-0.42064 -0.218316,-0.08377 -0.332185,-0.321061 -0.253045,-0.527299 0.08046,-0.209679 -0.01437,-0.375888 -0.215144,-0.377042 -0.364154,-0.0021 -1.020495,-1.14079 -1.020495,-1.770475 0,-0.18927 -0.119062,-0.344128 -0.264583,-0.344128 -0.145521,0 -0.264583,-0.165856 -0.264583,-0.368567 0,-0.202713 -0.195636,-0.44364 -0.434745,-0.535395 -0.23911,-0.09175 -0.368094,-0.233476 -0.286631,-0.314939 0.08146,-0.08146 -0.08443,-0.380658 -0.368658,-0.664882 -0.284223,-0.284223 -0.445346,-0.632327 -0.358055,-0.77357 0.08729,-0.14124 -0.02674,-0.327967 -0.253412,-0.414948 -0.226672,-0.08698 -0.345734,-0.265573 -0.264584,-0.396875 0.08115,-0.1313 -0.01831,-0.302374 -0.221043,-0.380167 -0.202721,-0.07779 -0.530146,-0.553199 -0.727612,-1.056463 -0.197464,-0.503266 -0.455867,-0.915027 -0.574228,-0.915027 -0.118359,0 -0.215199,-0.225388 -0.215199,-0.500864 0,-0.27547 -0.195636,-0.57593 -0.434745,-0.66768 -0.239109,-0.0917 -0.368094,-0.23348 -0.286631,-0.31494 0.08146,-0.0815 -0.08443,-0.38066 -0.368657,-0.66488 -0.284223,-0.28423 -0.434499,-0.64989 -0.333947,-0.81258 0.111144,-0.17984 0.06306,-0.2218 -0.122639,-0.10703 -0.168005,0.10383 -0.320347,0.0627 -0.338537,-0.0914 -0.0182,-0.15411 -0.04796,-0.4036 -0.06615,-0.55443 -0.0182,-0.15083 -0.211667,-0.38713 -0.429948,-0.52512 -0.218281,-0.13798 -0.293447,-0.2527 -0.167034,-0.25493 0.126412,-0.002 -0.0546,-0.391 -0.402254,-0.86395 -0.347649,-0.47294 -0.808265,-1.21071 -1.023588,-1.63949 -0.215326,-0.42877 -0.65939,-1.07124 -0.986811,-1.4277 -0.327422,-0.35645 -0.595313,-0.86884 -0.595313,-1.13863 0,-0.26979 -0.119062,-0.49053 -0.264583,-0.49053 -0.145521,0 -0.264584,-0.16586 -0.264584,-0.36857 0,-0.20271 -0.186139,-0.44 -0.413644,-0.5273 -0.227505,-0.0873 -0.339021,-0.27947 -0.247814,-0.42705 0.09121,-0.14758 -0.02032,-0.33975 -0.247814,-0.42705 -0.227505,-0.0873 -0.417605,-0.35435 -0.422447,-0.59344 -0.01238,-0.61143 -0.915318,-1.62534 -1.44744,-1.62534 -0.244959,0 -0.507651,0.23812 -0.583761,0.52917 -0.07611,0.29104 -0.224446,0.52916 -0.329636,0.52916 -0.193038,0 -0.89544,1.36252 -0.80612,1.56372 0.0265,0.0597 -0.141089,0.21442 -0.372409,0.34387 -0.231319,0.12946 -0.420581,0.46055 -0.420581,0.73578 0,0.27522 -0.115261,0.57164 -0.256135,0.6587 -0.306258,0.18928 -0.284152,2.06018 0.02678,2.26623 0.119793,0.0794 0.265573,0.78897 0.323959,1.57686 0.05838,0.78789 0.226938,1.47278 0.374565,1.52199 0.147625,0.0492 0.20941,0.3151 0.137295,0.59086 -0.07211,0.27576 0.04438,0.85317 0.258882,1.28314 0.403476,0.80879 0.213304,1.57241 -0.310909,1.24843 -0.164164,-0.10146 -0.229982,-0.29531 -0.146257,-0.43078 0.08372,-0.13546 0.04905,-0.2463 -0.07706,-0.2463 -0.126103,0 -0.449585,-0.50601 -0.718849,-1.12448 -0.269264,-0.61846 -0.65187,-1.22109 -0.850233,-1.33918 -0.198363,-0.11808 -0.29931,-0.31396 -0.224327,-0.43529 0.07499,-0.12133 -0.04157,-0.28887 -0.259017,-0.37231 -0.217445,-0.0834 -0.395356,-0.39731 -0.395356,-0.69749 0,-0.30017 -0.171077,-0.61142 -0.380169,-0.69166 -0.209092,-0.0802 -0.32943,-0.28486 -0.267414,-0.45471 0.06202,-0.16986 -0.247709,-0.71713 -0.688272,-1.21616 -0.440565,-0.49903 -0.738309,-1.07076 -0.661656,-1.27052 0.07665,-0.19975 0.02167,-0.29044 -0.122185,-0.20153 -0.143854,0.0889 -0.261554,-0.0736 -0.261554,-0.36109 0,-0.2875 -0.09147,-0.56242 -0.203274,-0.61093 -0.508333,-0.22055 -1.339821,-1.61584 -1.192189,-2.00056 0.107945,-0.2813 0.05858,-0.35919 -0.147073,-0.23209 -0.198057,0.12241 -0.309547,-0.005 -0.309547,-0.35347 0,-0.29963 -0.0893,-0.54614 -0.198438,-0.54781 -0.10914,-0.002 -0.425952,-0.47792 -0.704024,-1.05834 -0.278075,-0.58041 -0.605496,-1.05529 -0.727604,-1.05529 -0.122111,0 -0.222017,-0.22539 -0.222017,-0.50086 0,-0.27548 -0.18614,-0.57229 -0.413645,-0.65959 -0.227504,-0.0873 -0.339021,-0.27948 -0.247814,-0.42705 0.09121,-0.14758 -0.01963,-0.33949 -0.246292,-0.42647 -0.226672,-0.087 -0.35459,-0.25125 -0.284269,-0.36503 0.07032,-0.11378 -0.04942,-0.35401 -0.266102,-0.53384 -0.216678,-0.17983 -0.393962,-0.53777 -0.393962,-0.79542 0,-0.25766 -0.186139,-0.53989 -0.413644,-0.62719 -0.227505,-0.0873 -0.344064,-0.27132 -0.259019,-0.40893 0.08505,-0.1376 -0.05624,-0.37294 -0.31396,-0.52298 -0.257723,-0.15004 -0.370647,-0.27643 -0.250944,-0.28085 0.119703,-0.004 -0.0275,-0.31969 -0.327123,-0.7006 -0.299623,-0.38091 -0.489089,-0.78265 -0.421038,-0.89276 0.06805,-0.11011 -0.16601,-0.51283 -0.520139,-0.89494 -0.354126,-0.38211 -0.583962,-0.69475 -0.510743,-0.69475 0.07322,0 -0.170593,-0.39819 -0.541801,-0.88487 -0.371208,-0.48668 -0.674923,-1.07607 -0.674923,-1.30977 0,-0.23369 -0.189262,-0.53081 -0.420582,-0.66026 -0.23132,-0.12946 -0.398904,-0.2842 -0.372409,-0.34388 0.164645,-0.37086 -0.693771,-1.56372 -1.125296,-1.56372 -0.54151,0 -1.497727,0.96409 -1.512494,1.52495 -0.01151,0.43677 -0.523655,1.29712 -1.260615,2.11766 -0.324696,0.36151 -0.534365,0.74789 -0.465934,0.85862 0.06843,0.11072 -0.05286,0.34845 -0.269541,0.52828 -0.216678,0.17982 -0.393962,0.47639 -0.393962,0.65904 0,0.18264 -0.177284,0.47921 -0.393962,0.65904 -0.216678,0.17983 -0.336426,0.42005 -0.266102,0.53384 0.07032,0.11378 -0.0576,0.27804 -0.284268,0.36502 -0.226669,0.087 -0.346359,0.26456 -0.265976,0.39462 0.08038,0.13006 -0.03114,0.38361 -0.247814,0.56344 -0.216677,0.17982 -0.393961,0.47639 -0.393961,0.65904 0,0.18264 -0.177285,0.47921 -0.393962,0.65904 -0.216678,0.17983 -0.336426,0.42005 -0.266102,0.53384 0.07032,0.11378 -0.05005,0.27515 -0.267497,0.35859 -0.217445,0.0834 -0.395356,0.33404 -0.395356,0.55689 0,0.22285 -0.119063,0.40518 -0.264583,0.40518 -0.145521,0 -0.264584,0.18021 -0.264584,0.40046 0,0.49268 -0.471154,1.31461 -1.251812,2.1838 -0.324697,0.36152 -0.52551,0.76223 -0.446252,0.89048 0.07926,0.12824 -0.04135,0.30433 -0.26802,0.39131 -0.226671,0.087 -0.354902,0.25074 -0.284959,0.36391 0.06994,0.11316 -0.117978,0.51741 -0.4176,0.89831 -0.299619,0.38091 -0.453834,0.69256 -0.342699,0.69256 0.111136,0 -0.02905,0.17481 -0.311525,0.38846 -0.282475,0.21365 -0.422799,0.39225 -0.311836,0.39688 0.110967,0.005 -0.100343,0.48697 -0.46958,1.07188 -0.535135,0.84771 -0.614365,1.16992 -0.390525,1.58817 0.154448,0.28859 0.291492,1.08996 0.304541,1.78081 0.01304,0.69085 0.1411,1.55375 0.284554,1.91755 0.143457,0.3638 0.290145,1.07255 0.325975,1.575 0.03583,0.50245 0.183779,0.95308 0.328779,1.00142 0.144997,0.0483 0.207021,0.38402 0.137829,0.74597 -0.100269,0.52453 -0.199861,0.59663 -0.490712,0.35525 -0.200699,-0.16657 -0.364908,-0.5264 -0.364908,-0.79962 0,-0.27322 -0.119062,-0.49677 -0.264583,-0.49677 -0.145521,0 -0.264583,-0.18233 -0.264583,-0.40518 0,-0.22285 -0.177911,-0.47345 -0.395357,-0.55689 -0.217445,-0.0834 -0.337817,-0.24481 -0.267496,-0.35859 0.07032,-0.11379 -0.04942,-0.35401 -0.266102,-0.53384 -0.216678,-0.17983 -0.393962,-0.55051 -0.393962,-0.82373 0,-0.27322 -0.119063,-0.49677 -0.264583,-0.49677 -0.145521,0 -0.264584,-0.17268 -0.264584,-0.38373 0,-0.21105 -0.189261,-0.48964 -0.420581,-0.61909 -0.23132,-0.12946 -0.396367,-0.2842 -0.366771,-0.34388 0.0296,-0.0597 -0.227439,-0.58476 -0.571188,-1.16684 -0.343746,-0.58208 -0.625184,-1.15197 -0.625417,-1.26642 -2.3e-4,-0.11445 -0.179011,-0.32099 -0.397293,-0.45897 -0.218281,-0.13799 -0.277812,-0.25649 -0.132291,-0.26335 0.145521,-0.007 0.08599,-0.15781 -0.132292,-0.33546 -0.546073,-0.44441 -1.345449,-1.9307 -1.145783,-2.13037 0.08975,-0.0898 -0.03245,-0.23826 -0.271555,-0.33001 -0.23911,-0.0918 -0.434745,-0.33268 -0.434745,-0.5354 0,-0.53293 -1.043525,-0.4538 -1.245598,0.0945 -0.09386,0.25467 -0.43874,0.82021 -0.766397,1.25677 -0.327657,0.43657 -0.634079,0.91282 -0.680934,1.05834 -0.04686,0.14552 -0.189101,0.22995 -0.316093,0.18762 -0.126995,-0.0423 -0.160464,0.10657 -0.07438,0.3309 0.09337,0.24333 -0.171424,0.78137 -0.656408,1.33374 -0.447108,0.50922 -0.711292,0.92769 -0.587076,0.92991 0.124214,0.002 0.05563,0.11177 -0.15241,0.24343 -0.208039,0.13166 -0.40672,0.43333 -0.441513,0.67038 -0.06381,0.4348 -1.323536,2.2455 -1.779828,2.55829 -0.135477,0.0929 -0.172847,0.28774 -0.08305,0.43304 0.0898,0.1453 -0.014,0.41132 -0.230685,0.59115 -0.216677,0.17982 -0.393961,0.47823 -0.393961,0.66313 0,0.18489 -0.18614,0.4076 -0.413645,0.4949 -0.227504,0.0873 -0.347252,0.26616 -0.266104,0.39746 0.08115,0.1313 -0.03791,0.30989 -0.264584,0.39687 -0.226668,0.087 -0.337499,0.27889 -0.246292,0.42647 0.09121,0.14758 -0.01963,0.33949 -0.246293,0.42647 -0.226671,0.087 -0.354901,0.25074 -0.284959,0.36391 0.127117,0.20567 -0.865859,1.644755 -1.249849,1.811355 -0.1118,0.04851 -0.203274,0.256869 -0.203274,0.463021 0,0.206156 -0.12609,0.374828 -0.280199,0.374828 -0.154109,0 -0.215263,0.105068 -0.135895,0.233484 0.07936,0.128418 -0.100844,0.545137 -0.400466,0.926041 -0.299619,0.380908 -0.446826,0.696177 -0.327123,0.700604 0.119703,0.0044 0.0068,0.130805 -0.250944,0.280844 -0.257723,0.15004 -0.399005,0.385385 -0.31396,0.522989 0.08504,0.137605 -0.03083,0.321358 -0.257497,0.408339 -0.226672,0.08698 -0.353844,0.252453 -0.282607,0.367713 0.07123,0.115263 -0.339617,0.777285 -0.913003,1.471163 -0.573387,0.693875 -1.019307,1.338633 -0.990934,1.432795 0.0828,0.274794 -1.485206,2.651861 -1.749274,2.651861 -0.132072,0 -0.169868,0.183099 -0.08399,0.406889 0.0887,0.231148 -0.0127,0.471681 -0.234757,0.556892 -0.214989,0.0825 -0.329406,0.249489 -0.254254,0.371087 0.07515,0.121597 -0.126576,0.466309 -0.448286,0.766026 -0.321707,0.299715 -0.473175,0.546762 -0.336595,0.54899 0.136581,0.0021 0.06973,0.116948 -0.148547,0.254934 -0.218282,0.137985 -0.396875,0.35451 -0.396875,0.481168 0,0.385093 -1.543955,2.69943 -1.80086,2.69943 -0.132072,0 -0.171598,0.178594 -0.08783,0.396875 0.09566,0.249291 -0.0027,0.396875 -0.264584,0.396875 -0.249475,0 -0.359553,0.149387 -0.274124,0.372015 0.07852,0.20461 -0.08453,0.57771 -0.362328,0.829111 -0.277797,0.251402 -0.449043,0.54777 -0.38055,0.658593 0.06849,0.110824 -0.06092,0.272667 -0.287595,0.359646 -0.226668,0.08698 -0.337499,0.278892 -0.246292,0.426468 0.09121,0.147577 -0.02032,0.339749 -0.247814,0.427051 -0.227505,0.0873 -0.413645,0.355568 -0.413645,0.596149 0,0.240577 -0.297656,0.758425 -0.661458,1.150768 -0.363802,0.392345 -0.661458,0.837613 -0.661458,0.989486 0,0.151871 -0.09,0.27613 -0.199996,0.27613 -0.109998,0 -0.368475,0.386953 -0.574392,0.859896 -0.20592,0.472942 -0.651132,1.227574 -0.989364,1.67696 -0.33823,0.449385 -0.538965,0.893067 -0.446072,0.98596 0.09289,0.09289 -0.02606,0.243705 -0.264329,0.335139 -0.238273,0.09143 -0.370033,0.268486 -0.292801,0.393452 0.07723,0.124965 -0.102045,0.469675 -0.398397,0.766027 -0.296349,0.296349 -0.538816,0.638034 -0.538816,0.759301 0,0.121269 -0.178594,0.220488 -0.396875,0.220488 -0.218281,0 -0.396875,-0.162489 -0.396875,-0.361082 0,-0.198597 -0.185436,-0.432242 -0.41208,-0.519213 -0.226645,-0.08697 -0.349443,-0.321361 -0.272889,-0.520862 0.08294,-0.216122 -0.03568,-0.362733 -0.293473,-0.362733 -0.237969,0 -0.360058,-0.07261 -0.271309,-0.161359 0.08875,-0.08875 -0.129535,-0.622162 -0.485071,-1.185368 -0.355534,-0.563205 -0.646428,-1.104431 -0.646428,-1.202729 0,-0.0983 -0.305202,-0.578861 -0.678227,-1.067925 -0.373026,-0.489061 -0.6953988,-1.117129 -0.7163838,-1.395706 -0.02098,-0.278577 -0.1325,-0.448193 -0.247814,-0.376925 -0.209682,0.12959 -0.31098,-0.268065 -0.228594,-0.897382 0.02408,-0.183849 -0.139735,-0.404686 -0.364009,-0.490747 -0.224271,-0.08606 -0.346638,-0.255381 -0.271928,-0.376266 0.07471,-0.120883 -0.106847,-0.65187 -0.40346,-1.179968 -0.296614,-0.528098 -0.459092,-1.089956 -0.361061,-1.248574 0.106666,-0.17259 0.05558,-0.212587 -0.127225,-0.09961 -0.276662,0.170987 -0.444987,-0.340272 -0.327512,-0.994772 0.02233,-0.124457 -0.105447,-0.402283 -0.283969,-0.617387 -0.17852,-0.215103 -0.343141,-0.643006 -0.365824,-0.950891 -0.02267,-0.307888 -0.171765,-0.603303 -0.331295,-0.656479 -0.159531,-0.05318 -0.228164,-0.257969 -0.152522,-0.455091 0.07564,-0.197123 -0.05289,-0.649026 -0.285623,-1.004226 -0.232738,-0.355201 -0.467924,-1.27312 -0.522637,-2.039819 -0.05471,-0.766701 -0.20076,-1.467966 -0.324551,-1.558369 -0.12379,-0.0904 -0.240882,-0.635966 -0.260202,-1.21236 -0.01931,-0.576398 -0.167944,-1.092266 -0.330274,-1.146376 -0.164896,-0.05497 -0.228661,-0.363279 -0.144491,-0.698638 0.08286,-0.330142 -0.03569,-1.24302 -0.263449,-2.028624 -0.72254,-2.492258 -0.708321,-12.647552 0.02143,-15.295342 0.216998,-0.78736 0.333308,-1.66572 0.258468,-1.95191 -0.07484,-0.28619 0.04917,-0.80306 0.275588,-1.14861 0.226414,-0.34555 0.355597,-0.92156 0.287073,-1.28002 -0.06852,-0.35845 -0.01162,-0.68939 0.126481,-0.73542 0.138089,-0.046 0.295262,-0.70299 0.349277,-1.4599 0.05401,-0.75691 0.289697,-1.7465 0.523737,-2.19909 0.23404,-0.45258 0.362887,-0.88552 0.286327,-0.96208 -0.07656,-0.0766 0.03372,-0.31213 0.245073,-0.52348 0.211352,-0.21135 0.384275,-0.60687 0.384275,-0.87893 0,-0.27206 0.119063,-0.56823 0.264584,-0.65817 0.14552,-0.0899 0.264583,-0.461 0.264583,-0.82459 0,-0.36359 0.299752,-1.19798 0.666115,-1.8542 0.366363,-0.65622 0.605173,-1.29174 0.530688,-1.41226 -0.07449,-0.12052 0.04806,-0.28954 0.272336,-0.3756 0.224274,-0.0861 0.388074,-0.3069 0.364008,-0.49075 -0.08239,-0.62931 0.01892,-1.02697 0.228595,-0.89738 0.115313,0.0713 0.227981,-0.11362 0.25037,-0.41087 0.02238,-0.29724 0.244154,-0.76524 0.4928068,-1.04 0.248653,-0.27476 0.344345,-0.50318 0.212651,-0.5076 -0.131696,-0.004 -0.03109,-0.12941 0.223576,-0.27773 0.254661,-0.14833 0.463021,-0.44237 0.463021,-0.65342 0,-0.21105 0.09296,-0.38372 0.206576,-0.38372 0.217106,0 0.945642,-1.57684 0.886269,-1.91823 -0.01897,-0.10914 0.156819,-0.19844 0.390671,-0.19844 0.258201,0 0.368673,-0.14726 0.281289,-0.37498 -0.07914,-0.20624 0.02718,-0.44063 0.236275,-0.52086 0.209093,-0.0802 0.380169,-0.30746 0.380169,-0.50495 0,-0.19748 0.297657,-0.63869 0.661459,-0.98046 0.363802,-0.34178 0.661458,-0.77925 0.661458,-0.97216 0,-0.19292 0.119063,-0.35076 0.264583,-0.35076 0.145521,0 0.264584,-0.11495 0.264584,-0.25546 0,-0.1405 0.327422,-0.6047 0.727604,-1.03156 0.968007,-1.03252 1.653646,-1.94734 1.653646,-2.20637 0,-0.11593 0.185621,-0.21077 0.41249,-0.21077 0.22687,0 0.338905,-0.11907 0.248968,-0.26459 -0.08994,-0.14552 0.02209,-0.26458 0.248968,-0.26458 0.226869,0 0.41249,-0.18562 0.41249,-0.41249 0,-0.22687 0.119063,-0.33891 0.264584,-0.24897 0.14552,0.0899 0.264583,0.0388 0.264583,-0.11365 0,-0.42425 0.858888,-1.33253 1.112086,-1.17605 0.123166,0.0761 0.191225,-0.0193 0.151241,-0.21199 -0.04,-0.19272 0.07611,-0.32063 0.258014,-0.28425 0.181901,0.0364 0.330729,-0.0614 0.330729,-0.21733 0,-0.35728 0.669557,-1.03944 1.020231,-1.03944 0.145354,0 0.511045,-0.31371 0.812649,-0.69714 0.301604,-0.38342 0.54837,-0.60542 0.54837,-0.49331 0,0.1121 0.355285,-0.19926 0.789525,-0.69192 0.434236,-0.49267 0.791424,-0.7837 0.79375,-0.64675 0.0024,0.13696 0.179033,0.0179 0.392686,-0.26458 0.213651,-0.28247 0.392245,-0.40577 0.396875,-0.274 0.0046,0.13178 0.276305,-0.0684 0.603726,-0.4449 0.327422,-0.37647 0.773907,-0.72241 0.992188,-0.76875 0.218281,-0.0463 0.664766,-0.3583 0.992187,-0.69322 0.327422,-0.33492 0.595313,-0.52252 0.595313,-0.4169 0,0.10563 0.276722,-0.0679 0.614942,-0.38566 0.338217,-0.31774 0.692163,-0.50048 0.786548,-0.4061 0.156586,0.15659 1.974845,-1.04961 2.314162,-1.53516 0.07908,-0.11316 0.429977,-0.24942 0.77978,-0.30281 0.3498,-0.0534 0.679746,-0.22829 0.733211,-0.38869 0.05347,-0.1604 0.26711,-0.22643 0.474763,-0.14675 0.207653,0.0797 0.450561,-0.0454 0.539797,-0.27793 0.08923,-0.23254 0.276334,-0.35229 0.415777,-0.26611 0.139441,0.0862 0.454388,-0.0228 0.699879,-0.24223 0.245493,-0.2194 0.684474,-0.43942 0.975516,-0.48894 0.291041,-0.0495 0.687594,-0.23995 0.881226,-0.42318 0.193633,-0.18324 0.448877,-0.27333 0.567206,-0.2002 0.268735,0.16609 2.027738,-0.55294 2.255925,-0.92216 0.09276,-0.1501 0.284715,-0.20118 0.426556,-0.11352 0.14184,0.0877 0.426056,0.0198 0.631587,-0.15075 0.205531,-0.17058 0.487804,-0.23962 0.627269,-0.15343 0.139467,0.0862 0.294428,0.0342 0.34436,-0.11563 0.04993,-0.14979 0.559493,-0.30926 1.132361,-0.35438 0.572871,-0.0451 1.087821,-0.22075 1.144339,-0.3903 0.06161,-0.18482 0.359656,-0.24379 0.744246,-0.14727 0.392923,0.0986 0.899941,-0.008 1.308492,-0.27603 0.366853,-0.24037 0.762378,-0.3781 0.878946,-0.30605 0.116567,0.072 0.797814,-0.0492 1.513882,-0.26946 0.716066,-0.22025 2.254438,-0.43722 3.418605,-0.48216 3.318742,-0.12813 6.485506,-0.47144 6.638964,-0.71974 0.07726,-0.12502 0.340365,-0.12233 0.586989,0.006 0.575466,0.29942 2.971588,0.57516 6.086186,0.70037 1.355323,0.0545 3.106164,0.28568 3.890759,0.51377 0.784595,0.22809 1.521166,0.3937 1.636821,0.36803 0.115655,-0.0257 0.555736,0.0955 0.977963,0.26932 0.422225,0.1738 0.897412,0.27276 1.055971,0.21991 0.15856,-0.0529 0.442881,0.0585 0.631828,0.24744 0.188949,0.18895 0.766127,0.32765 1.282623,0.30824 0.516496,-0.0194 1.01781,0.0737 1.114031,0.20688 0.182567,0.25274 0.650279,0.41458 1.426329,0.49354 0.251695,0.0256 0.549351,0.13886 0.661458,0.25167 0.351465,0.35368 1.969582,0.95502 2.194978,0.81571 0.11833,-0.0731 0.403339,0.0552 0.633352,0.28524 0.230013,0.23002 0.418205,0.33559 0.418205,0.23462 0,-0.10097 0.178594,-0.0354 0.396875,0.14579 0.218282,0.18116 0.396875,0.23681 0.396875,0.12368 0,-0.11313 0.230622,0.003 0.512496,0.25811 0.281871,0.25509 0.639058,0.38558 0.79375,0.28997 0.154688,-0.0956 0.281254,-0.0448 0.281254,0.11292 0,0.29146 1.028674,0.80268 1.978036,0.98302 0.287554,0.0546 0.622295,0.27706 0.743865,0.49429 0.121571,0.21724 0.320308,0.33362 0.441638,0.25864 0.121327,-0.075 0.288866,0.0416 0.372308,0.25902 0.08344,0.21744 0.334042,0.39535 0.556892,0.39535 0.222848,0 0.405178,0.11906 0.405178,0.26458 0,0.14552 0.191225,0.26459 0.424947,0.26459 0.23372,0 0.913514,0.38695 1.510652,0.85989 0.597138,0.47295 1.175959,0.8599 1.286266,0.8599 0.110311,0 0.432486,0.19858 0.715944,0.44128 0.283462,0.24271 0.584978,0.3717 0.670037,0.28664 0.08506,-0.0851 0.154654,0.0508 0.154654,0.30193 0,0.25112 0.119904,0.38248 0.266451,0.29191 0.14655,-0.0906 0.337619,0.0208 0.424601,0.24745 0.08698,0.22667 0.252002,0.35412 0.366712,0.28322 0.114713,-0.0709 0.485185,0.21855 0.823275,0.64322 0.338087,0.42466 0.708007,0.71445 0.822042,0.64397 0.114035,-0.0705 0.207335,0.0645 0.207335,0.29996 0,0.23546 0.09675,0.36831 0.214998,0.29523 0.266872,-0.16494 2.430836,1.78263 2.430836,2.18775 0,0.16233 0.14883,0.26538 0.33073,0.229 0.1819,-0.0364 0.30666,0.0656 0.27723,0.22664 -0.0294,0.16104 0.23847,0.44905 0.59532,0.64003 0.35684,0.19097 0.64881,0.44631 0.64881,0.5674 0,0.12109 0.44648,0.68135 0.99218,1.24502 1.61916,1.67246 3.24115,3.66702 3.24115,3.98564 0,0.16345 0.17791,0.36546 0.39536,0.4489 0.21744,0.0834 0.32948,0.2583 0.24896,0.38857 -0.0805,0.13028 -0.0203,0.23686 0.13382,0.23686 0.1541,0 0.28019,0.1786 0.28019,0.39688 0,0.21828 0.12099,0.39687 0.26887,0.39687 0.14787,0 0.4753,0.44649 0.7276,0.99219 0.25231,0.5457 0.61577,1.15772 0.8077,1.36004 0.72422,0.76345 1.14499,1.60437 0.95589,1.91035 -0.12399,0.20062 -0.0838,0.24775 0.10948,0.12831 0.19369,-0.1197 0.30546,0.0136 0.30546,0.3643 0,0.3042 0.17108,0.61874 0.38017,0.69897 0.2091,0.0802 0.31542,0.31463 0.23628,0.52087 -0.0791,0.20623 -0.0137,0.37497 0.14545,0.37497 0.33497,0 1.09019,1.67773 1.09019,2.42187 0,0.27784 0.17791,0.57343 0.39535,0.65687 0.21745,0.0834 0.33801,0.2445 0.26792,0.3579 -0.0701,0.11341 0.22127,0.89751 0.64747,1.74244 0.42619,0.84493 0.71833,1.62776 0.6492,1.73962 -0.17708,0.28652 0.69848,2.87089 0.97262,2.87089 0.12421,0 0.16142,0.16784 0.0827,0.37299 -0.0787,0.20515 0.0437,0.73432 0.27209,1.17594 0.22837,0.44162 0.46539,1.60019 0.52669,2.57459 0.0613,0.97441 0.2105,1.84422 0.33153,1.93292 0.12103,0.0887 0.23656,0.78793 0.25673,1.55384 0.0202,0.76592 0.1495,1.53983 0.28741,1.7198 0.31347,0.40904 0.25072,12.558528 -0.0687,13.291707 -0.12675,0.290997 -0.23608,1.064903 -0.24295,1.719792 -0.007,0.654891 -0.11151,1.263282 -0.23254,1.351978 -0.12104,0.0887 -0.27023,0.958509 -0.33153,1.932914 -0.0613,0.974405 -0.29694,2.130295 -0.52362,2.568646 -0.22668,0.438351 -0.36558,0.936697 -0.30867,1.107432 0.0569,0.170738 -0.0642,0.47807 -0.26905,0.682966 -0.2049,0.204894 -0.32177,0.566661 -0.25973,0.803924 0.062,0.237265 -0.0478,0.581398 -0.24403,0.764738 -0.19627,0.183343 -0.35686,0.66811 -0.35686,1.077262 0,0.409151 -0.2991,1.306449 -0.66467,1.993998 -0.36558,0.687548 -0.60439,1.347649 -0.53069,1.466892 0.0737,0.11924 -0.0439,0.285073 -0.26136,0.368514 -0.21745,0.08344 -0.39536,0.453104 -0.39536,0.821476 0,0.368369 -0.0937,0.669761 -0.20828,0.669761 -0.11455,0 -0.22711,0.250007 -0.25013,0.555575 -0.023,0.305567 -0.24514,0.704222 -0.4936,0.885904 -0.24846,0.181679 -0.37471,0.454977 -0.28056,0.607324 0.0942,0.15235 -0.007,0.345268 -0.22416,0.42871 -0.21744,0.08344 -0.39535,0.4006 -0.39535,0.704797 0,0.35491 -0.11092,0.484537 -0.30955,0.361776 -0.20566,-0.127104 -0.25502,-0.04922 -0.14707,0.232081 0.15162,0.395137 -0.31026,1.165458 -1.4483,2.415464 -0.25192,0.276701 -0.39828,0.599778 -0.32524,0.717954 0.073,0.118174 -0.10968,0.45733 -0.40603,0.753682 -0.29635,0.296349 -0.52988,0.625136 -0.51897,0.730639 0.0544,0.5256 -0.47034,0.239506 -0.87974,-0.479666 z M 50.287479,-99.262789 c 0.0127,-0.308226 0.07539,-0.370919 0.15985,-0.159853 0.07643,0.190995 0.06703,0.419201 -0.02088,0.507119 -0.08792,0.08792 -0.150453,-0.06835 -0.138965,-0.347266 z"
         id="path481"
         sodipodi:nodetypes="sssssssssssssssssssssssssssssssssssssssssssssssssssssssssscsssssssssssssssssssssssssssssssssssssssscsssssssssssscssssssssssssssssssssssssssssssssscsssssssssssssssssssssscsssssssssscssssssssssssssssssssssssssssscsssssssssssssssssssssssssssssssssssssssssssssssssssssssssssssssssssssscsssssssssssssssssssssssssssscsssssssssssssssssssssssssscssssssssssssssssssssssssssssssssssssssssssssssssssssssssssssssssssssssssssscsssssssssssssssscssssssssssssss"
         inkscape:label="NordVPN Logo"
         transform="translate(-0.96001581,161.53049)" /></g><g
       inkscape:label="zoom current location"
       inkscape:groupmode="layer"
       id="g1268"
       transform="translate(-44.521022,-23.563179)"
       style="display:none"
       inkscape:export-filename="../src/main/java/com/mr/apps/JNordVpnManager/resources/icons/ZoomAll_Tree_Locations_32.png"
       inkscape:export-xdpi="6.7733335"
       inkscape:export-ydpi="6.7733335"><path
         d="m 105.78449,101.24886 c 0.41789,-0.43905 3.4479,-5.338585 10.38022,-16.784823 2.30033,-3.79816 2.40254,-8.450188 0.27028,-12.3037 -1.11163,-2.009 -3.83579,-4.526742 -5.9498,-5.498997 -7.82948,-3.600801 -16.946547,0.520481 -19.113567,8.640081 -0.51077,1.913826 -0.34208,4.915466 0.38782,6.900666 0.28207,0.76718 1.04706,2.24319 1.69998,3.28002 0.65294,1.03684 3.00624,4.8899 5.22962,8.562348 2.223397,3.67248 4.265867,6.914465 4.538887,7.204405 0.31608,0.33567 0.77944,0.52714 1.27557,0.52714 0.49456,0 0.96252,-0.19256 1.28099,-0.52714 z m -3.70807,-16.714623 c -0.6354,-0.20515 -1.69714,-0.83463 -2.359407,-1.39883 -3.17557,-2.70534 -3.17557,-7.339715 0,-10.045054 2.796347,-2.382299 6.776637,-2.382299 9.572997,0 3.19726,2.723849 3.19513,7.323014 -0.004,10.049004 -0.66482,0.5664 -1.67893,1.18755 -2.25355,1.38035 -1.39185,0.46699 -3.53453,0.47328 -4.95539,0.0145 z"
         style="display:inline;fill:#000000;stroke:none;stroke-width:0.526214;stroke-dasharray:none;stroke-opacity:1"
         id="path1262" /><path
         style="display:inline;fill:#000000;stroke-width:0.178646"
         d="m 56.810476,132.33652 c 0.05254,1.83876 -2.775621,-2.42602 -2.275987,-4.25207 0.205972,-0.75277 0.711089,-1.32658 4.793755,-5.44587 l 4.563523,-4.60446 -3.02876,-3.03267 -3.02876,-3.03271 h 8.524985 8.524985 l 0.04807,8.48575 c 0.02644,4.66718 0.0088,8.48574 -0.03933,8.48572 -0.04809,-3e-5 -1.433538,-1.34444 -3.078805,-2.98757 l -2.991395,-2.98751 -4.602996,4.56336 c -3.813922,3.78108 -4.729045,4.59947 -5.338309,4.77399 -0.829413,0.23756 -2.091995,-0.70162 -2.07098,0.0339 z m 93.236584,-0.0426 c -0.4459,-0.14452 -1.94613,-1.5112 -5.22973,-4.76429 l -4.60443,-4.56164 -3.0327,3.02876 -3.03267,3.02877 v -8.52841 -8.5284 h 8.52838 8.52841 l -3.02877,3.0327 -3.02876,3.03269 4.56354,4.60445 c 4.08267,4.11927 4.58777,4.6931 4.79373,5.44587 0.73471,2.68513 -1.79332,5.07276 -4.457,4.2095 z m -89.184053,-80.497761 3.02876,-3.032695 -4.563523,-4.604435 c -4.062201,-4.098619 -4.58852,-4.695824 -4.791065,-5.436281 -0.718913,-2.628155 1.607163,-4.9659 4.232866,-4.254105 0.761324,0.206392 1.310988,0.690188 5.44972,4.796682 l 4.602997,4.567143 3.034142,-3.030199 3.034141,-3.030208 v 8.528396 8.528397 h -8.528398 -8.5284 z m 73.284523,-5.495702 v -8.528396 l 3.03267,3.028762 3.0327,3.028753 4.60443,-4.563524 c 4.11928,-4.082684 4.69312,-4.587776 5.4459,-4.793751 2.63233,-0.720241 4.9577,1.603946 4.24301,4.240841 -0.20452,0.754548 -0.69968,1.316755 -4.7952,5.444431 l -4.56714,4.602999 3.03019,3.034141 3.03023,3.034141 h -8.52841 -8.52838 z"
         id="path1284"
         sodipodi:nodetypes="ssscccccssscsssssscccccccccsssccssssccccccccccccsssscccccc" /><rect
         style="display:inline;fill:none;stroke:#000000;stroke-width:4;stroke-dasharray:none;stroke-opacity:1"
         id="rect1140-3-5"
         width="51.716061"
         height="49.611305"
         x="34.141968"
         y="35.194347"
         transform="translate(44.521022,23.563179)" /></g><g
       inkscape:label="zoom all tree locations"
       inkscape:groupmode="layer"
       id="layer1"
       transform="translate(-44.521022,-23.563179)"
       style="display:none"
       inkscape:export-filename="../src/main/java/com/mr/apps/JNordVpnManager/resources/icons/ZoomAll_Tree_Locations_32.png"
       inkscape:export-xdpi="6.7733335"
       inkscape:export-ydpi="6.7733335"><path
         d="m 120.25118,59.328774 c 0.29304,-0.30787 2.41779,-3.74357 7.27898,-11.77008 1.61308,-2.6634 1.68475,-5.92557 0.18953,-8.62779 -0.77951,-1.408783 -2.68979,-3.174313 -4.17221,-3.856093 -5.49031,-2.52501 -11.88352,0.36498 -13.40311,6.058733 -0.35817,1.34204 -0.23988,3.4469 0.27195,4.83899 0.1978,0.53798 0.73424,1.57301 1.19209,2.30007 0.45786,0.72707 2.10808,3.42897 3.66719,6.00423 1.55913,2.57525 2.99138,4.84863 3.18283,5.05194 0.22165,0.23538 0.54657,0.36965 0.89448,0.36965 0.3468,0 0.67495,-0.13503 0.89827,-0.36965 z m -2.60023,-11.72085 c -0.44556,-0.14386 -1.19009,-0.58527 -1.6545,-0.98091 -2.22682,-1.89708 -2.22682,-5.14687 0,-7.04395 1.9609,-1.670553 4.75202,-1.670553 6.71293,0 2.24203,1.91006 2.24054,5.13516 -0.003,7.04672 -0.4662,0.39718 -1.17733,0.83275 -1.58027,0.96795 -0.97602,0.32747 -2.47854,0.33188 -3.4749,0.0102 z"
         style="fill:#000000;stroke:none;stroke-width:0.369;stroke-dasharray:none;stroke-opacity:1"
         id="path474" /><path
         d="m 121.77391,94.43428 c 0.29304,-0.30787 2.41779,-3.74357 7.27898,-11.770084 1.61308,-2.6634 1.68475,-5.92557 0.18953,-8.62779 -0.77951,-1.408783 -2.68979,-3.174313 -4.17221,-3.856093 -5.49031,-2.52501 -11.88352,0.36498 -13.4031,6.058733 -0.35817,1.34204 -0.23988,3.4469 0.27195,4.83899 0.1978,0.53798 0.73423,1.57301 1.19208,2.30007 0.45786,0.727074 2.10808,3.428974 3.66719,6.004234 1.55913,2.57525 2.99138,4.84863 3.18283,5.05194 0.22165,0.23538 0.54657,0.36965 0.89448,0.36965 0.3468,0 0.67495,-0.13503 0.89827,-0.36965 z m -2.60023,-11.720854 c -0.44556,-0.14386 -1.19009,-0.58527 -1.6545,-0.98091 -2.22682,-1.89708 -2.22682,-5.14687 0,-7.04395 1.9609,-1.670553 4.75202,-1.670553 6.71293,0 2.24203,1.91006 2.24054,5.13516 -0.003,7.04672 -0.4662,0.39718 -1.17733,0.83275 -1.58027,0.96795 -0.97602,0.32747 -2.47854,0.33188 -3.4749,0.0102 z"
         style="fill:#000000;stroke:none;stroke-width:0.369;stroke-dasharray:none;stroke-opacity:1"
         id="path474-3" /><path
         d="m 148.02513,90.080248 c 0.29304,-0.30787 2.41779,-3.74357 7.27898,-11.77008 1.61308,-2.6634 1.68475,-5.925574 0.18953,-8.627794 -0.77951,-1.408783 -2.68979,-3.174313 -4.17221,-3.856093 -5.49031,-2.52501 -11.88352,0.36498 -13.40311,6.058733 -0.35817,1.342044 -0.23988,3.446904 0.27195,4.838994 0.1978,0.53798 0.73424,1.57301 1.19209,2.30007 0.45786,0.72707 2.10808,3.42897 3.66719,6.00423 1.55913,2.57525 2.99138,4.84863 3.18283,5.05194 0.22165,0.23538 0.54657,0.36965 0.89448,0.36965 0.3468,0 0.67495,-0.13503 0.89827,-0.36965 z m -2.60023,-11.72085 c -0.44556,-0.14386 -1.19009,-0.58527 -1.6545,-0.98091 -2.22682,-1.89708 -2.22682,-5.146874 0,-7.043954 1.9609,-1.670553 4.75202,-1.670553 6.71293,0 2.24203,1.91006 2.24054,5.135164 -0.003,7.046724 -0.4662,0.39718 -1.17733,0.83275 -1.58027,0.96795 -0.97602,0.32747 -2.47854,0.33188 -3.4749,0.0102 z"
         style="fill:#000000;stroke:none;stroke-width:0.369;stroke-dasharray:none;stroke-opacity:1"
         id="path474-6" /><path
         d="m 74.283029,59.559337 c -0.4459,-0.14452 -1.94611,-1.51121 -5.22973,-4.76429 l -4.60443,-4.56164 -3.0327,3.02876 -3.03267,3.02877 v -8.52841 -8.5284 h 8.52838 8.52841 l -3.02877,3.0327 -3.02876,3.03269 4.56354,4.60445 c 4.08266,4.11928 4.58777,4.6931 4.79373,5.44587 0.73471,2.68513 -1.79332,5.07276 -4.457,4.2095 z"
         style="display:inline;fill:#000000;stroke-width:0.178646"
         id="path488" /><path
         d="m 137.13768,125.04128 3.02876,-3.0327 -4.56352,-4.60443 c -4.0622,-4.09863 -4.58852,-4.69583 -4.79107,-5.43628 -0.7189,-2.62816 1.60716,-4.9659 4.23287,-4.25411 0.76133,0.20639 1.31098,0.69019 5.44973,4.79668 l 4.603,4.56715 3.03414,-3.0302 3.03414,-3.03021 v 8.5284 8.52839 h -8.5284 -8.5284 z"
         style="display:inline;fill:#000000;stroke-width:0.178646"
         id="path551" /><path
         d="m 57.978674,119.2821 v -8.5284 l 3.03267,3.02876 3.0327,3.02876 4.60443,-4.56353 c 4.11929,-4.08267 4.69312,-4.58777 5.4459,-4.79375 2.63233,-0.72024 4.9577,1.60395 4.24301,4.24084 -0.20452,0.75455 -0.69967,1.31677 -4.7952,5.44443 l -4.56714,4.603 3.03019,3.03414 3.03023,3.03415 h -8.52841 -8.52838 z"
         style="display:inline;fill:#000000;stroke-width:0.178646"
         id="path579" /><path
         d="m 132.60092,59.662307 c -1.76123,-0.53091 -2.77562,-2.42602 -2.27599,-4.25207 0.20598,-0.75277 0.71108,-1.32659 4.79376,-5.44586 l 4.56352,-4.60446 -3.02876,-3.03267 -3.02876,-3.03271 h 8.52499 8.52498 l 0.0481,8.48575 c 0.0265,4.66717 0.009,8.48573 -0.0393,8.48571 -0.0481,-3e-5 -1.43353,-1.34444 -3.0788,-2.98757 l -2.9914,-2.9875 -4.60299,4.56335 c -3.81393,3.78108 -4.72905,4.59947 -5.33831,4.77399 -0.82942,0.23756 -1.36651,0.24639 -2.07098,0.0339 z"
         style="display:inline;fill:#000000;stroke-width:0.178646"
         id="path607" /><path
         d="m 115.60618,128.5709 c 0.29305,-0.30787 2.41779,-3.74358 7.27899,-11.77008 1.61308,-2.6634 1.68474,-5.92558 0.18953,-8.6278 -0.77951,-1.40878 -2.68979,-3.17431 -4.17221,-3.85609 -5.49031,-2.52501 -11.88352,0.36498 -13.40311,6.05873 -0.35817,1.34204 -0.23988,3.44691 0.27195,4.839 0.1978,0.53798 0.73424,1.57301 1.19209,2.30007 0.45785,0.72707 2.10808,3.42897 3.66719,6.00422 1.55912,2.57527 2.99138,4.84864 3.18283,5.05196 0.22164,0.23537 0.54657,0.36965 0.89448,0.36965 0.3468,0 0.67495,-0.13504 0.89826,-0.36966 z m -2.60022,-11.72085 c -0.44556,-0.14387 -1.19009,-0.58527 -1.6545,-0.98091 -2.22682,-1.89708 -2.22682,-5.14688 0,-7.04396 1.9609,-1.67055 4.75202,-1.67055 6.71293,0 2.24203,1.91006 2.24054,5.13517 -0.003,7.04673 -0.46621,0.39718 -1.17733,0.83275 -1.58028,0.96795 -0.97602,0.32747 -2.47854,0.33188 -3.4749,0.0102 z"
         style="fill:#000000;stroke:none;stroke-width:0.369;stroke-dasharray:none;stroke-opacity:1"
         id="path635" /><path
         d="m 62.998886,105.88357 c 0.29305,-0.30787 2.41779,-3.74359 7.27899,-11.770104 1.61308,-2.6634 1.68474,-5.92557 0.18953,-8.62779 -0.77951,-1.40878 -2.68979,-3.17431 -4.17221,-3.85609 -5.49031,-2.52501 -11.88352,0.36498 -13.40311,6.05873 -0.35817,1.34204 -0.23988,3.4469 0.27195,4.83899 0.1978,0.53798 0.73424,1.57301 1.19209,2.30007 0.45785,0.72707 2.10808,3.42897 3.66719,6.004234 1.55912,2.57526 2.99138,4.84865 3.18283,5.05196 0.22164,0.23538 0.54657,0.36964 0.89448,0.36964 0.3468,0 0.67495,-0.13503 0.89826,-0.36964 z m -2.60022,-11.720874 c -0.44556,-0.14386 -1.19009,-0.58527 -1.6545,-0.98091 -2.22682,-1.89708 -2.22682,-5.14687 0,-7.04395 1.9609,-1.67055 4.75202,-1.67055 6.71293,0 2.24203,1.91006 2.24054,5.13516 -0.003,7.04672 -0.46621,0.39718 -1.17733,0.83275 -1.58028,0.96795 -0.97602,0.32747 -2.47854,0.33188 -3.4749,0.0102 z"
         style="fill:#000000;stroke:none;stroke-width:0.369;stroke-dasharray:none;stroke-opacity:1"
         id="path663" /><path
         d="m 89.795097,80.413641 c 0.29304,-0.30787 2.41779,-3.74357 7.278983,-11.77008 1.61308,-2.6634 1.68475,-5.92557 0.18953,-8.62779 -0.77951,-1.40879 -2.689793,-3.17432 -4.172213,-3.8561 -5.49031,-2.52501 -11.88352,0.36498 -13.4031,6.05874 -0.35817,1.34204 -0.23988,3.4469 0.27195,4.83899 0.1978,0.53798 0.73423,1.57301 1.19208,2.30007 0.45786,0.72707 2.10808,3.42897 3.66719,6.00423 1.55913,2.57525 2.99138,4.84863 3.18283,5.05194 0.22165,0.23538 0.54657,0.36965 0.89448,0.36965 0.3468,0 0.67495,-0.13503 0.89827,-0.36965 z m -2.60023,-11.72085 c -0.44556,-0.14386 -1.19009,-0.58527 -1.6545,-0.98091 -2.22682,-1.89708 -2.22682,-5.14687 0,-7.04395 1.9609,-1.67055 4.75202,-1.67055 6.71293,0 2.24203,1.91006 2.24054,5.13516 -0.003,7.04672 -0.4662,0.39718 -1.17733,0.83275 -1.58027,0.96795 -0.97602,0.32747 -2.47854,0.33188 -3.4749,0.0102 z"
         style="display:inline;fill:#000000;stroke:none;stroke-width:0.369;stroke-dasharray:none;stroke-opacity:1"
         id="path474-3-7" /><rect
         style="display:inline;fill:none;stroke:#000000;stroke-width:4;stroke-dasharray:none;stroke-opacity:1"
         id="rect1140-3"
         width="102.71369"
         height="98.533424"
         x="8.6431541"
         y="10.733288"
         transform="translate(44.521022,23.563179)" /></g><g
       inkscape:groupmode="layer"
       id="layer3"
       inkscape:label="search in tree"
       style="display:none"><path
         style="display:inline;fill:#000000;stroke:none;stroke-width:0.369;stroke-dasharray:none;stroke-opacity:1"
         d="m 152.07395,140.36789 c 1.166,-0.4403 2.65817,-1.42694 3.45452,-2.28419 2.84483,-3.06237 3.18051,-7.6774 0.79606,-10.94458 -0.33769,-0.4627 -6.09795,-6.02179 -12.80057,-12.35351 -13.00314,-12.2836 -12.80697,-12.11867 -15.20895,-12.78719 -1.35327,-0.37664 -3.85797,-0.34631 -5.24135,0.0635 l -1.09911,0.32557 -4.50167,-4.262931 -4.50168,-4.26293 0.42678,-0.53958 c 7.785,-9.8426 9.07044,-22.405888 3.38921,-33.124548 -4.66912,-8.80912 -13.41145,-14.95737 -23.768044,-16.71541 -2.38544,-0.40493 -7.18663,-0.48776 -9.74339,-0.16809 -15.21478,1.90229 -26.80621,13.19106 -28.47811,27.73451 -0.90547,7.87651 1.7261,16.379288 6.98081,22.555418 3.15009,3.70247 7.13846,6.687211 11.64813,8.717031 11.12146,5.0058 24.06159,3.66808 34.206244,-3.536161 l 0.56944,-0.40439 4.49892,4.265551 4.49891,4.26555 -0.34359,1.04146 c -0.24512,0.74294 -0.34232,1.4964 -0.33912,2.62865 0.005,1.82061 0.39187,3.1356 1.3736,4.67047 0.41507,0.64895 4.30326,4.4357 12.91523,12.57828 14.67949,13.87939 13.1106,12.73872 17.6048,12.79971 2.43733,0.0331 2.98488,-0.006 3.66293,-0.26216 z M 82.348876,99.447909 c -10.90033,-2.02093 -19.14642,-9.76997 -21.51642,-20.219468 -0.33236,-1.46537 -0.39126,-2.21971 -0.39126,-5.01088 0,-2.79117 0.0589,-3.54552 0.39126,-5.01088 1.23477,-5.44421 3.88817,-9.98219 8.00588,-13.69208 3.58136,-3.22667 7.77793,-5.35288 12.73738,-6.45348 1.93413,-0.42922 2.34307,-0.46212 5.80841,-0.46734 3.27431,-0.005 3.94483,0.0404 5.51205,0.37305 2.63085,0.55837 4.21419,1.08073 6.53825,2.15708 2.787834,1.29113 4.798174,2.66953 7.204054,4.93948 5.41742,5.11137 8.24639,11.95657 7.91009,19.13992 -0.43805,9.356878 -5.99398,17.637778 -14.642064,21.823408 -3.0052,1.4545 -6.56877,2.46909 -9.83491,2.8001 -1.61418,0.1636 -5.94184,-0.0487 -7.72272,-0.37891 z m 3.93957,-13.19603 c 0.29305,-0.30787 2.41779,-3.743578 7.27899,-11.770088 1.61308,-2.6634 1.68474,-5.92557 0.18953,-8.62779 -0.77951,-1.40878 -2.68979,-3.17431 -4.17221,-3.85609 -5.49031,-2.52501 -11.88352,0.36498 -13.40311,6.05873 -0.35817,1.34204 -0.23988,3.4469 0.27195,4.83899 0.1978,0.53798 0.73424,1.57301 1.19209,2.30007 0.45785,0.72707 2.10808,3.42897 3.66719,6.00423 1.55912,2.575258 2.99138,4.848638 3.18283,5.051948 0.22164,0.23538 0.54657,0.36965 0.89448,0.36965 0.3468,0 0.67495,-0.13503 0.89826,-0.36965 z m -2.60022,-11.720858 c -0.44556,-0.14386 -1.19009,-0.58527 -1.6545,-0.98091 -2.22682,-1.89708 -2.22682,-5.14687 0,-7.04395 1.9609,-1.67055 4.75202,-1.67055 6.71293,0 2.24203,1.91006 2.24054,5.13516 -0.003,7.04672 -0.46621,0.39718 -1.17733,0.83275 -1.58028,0.96795 -0.97602,0.32747 -2.47854,0.33188 -3.4749,0.0102 z"
         id="path314"
         sodipodi:nodetypes="sssssscccsssssssscccscssscssscssccssssssscssssssssscsssssccs"
         inkscape:label="Search"
         transform="translate(-44.521022,-23.563179)" /></g><g
       inkscape:groupmode="layer"
       id="layer7"
       inkscape:label="Connect_Disconnect"
       style="display:inline"><path
         d="M 45.297713,77.591939 C 32.054373,65.934098 21.99196,39.102525 27.208439,29.354703 c 1.129825,-2.110248 8.536952,-6.381619 16.460215,-9.489639 16.374776,-6.424905 20.967997,-6.128014 38.586705,2.494442 9.765134,4.778185 11.235944,6.286685 11.795074,12.093395 1.47464,15.317791 -8.537015,36.218768 -22.163995,46.27269 -9.544525,7.040971 -15.876879,6.295174 -26.588725,-3.133652 z m 27.781278,-7.021252 c 8.945792,-8.945663 16.495227,-26.734384 14.88802,-35.079504 -0.392773,-2.03959 -6.226744,-5.91395 -14.178423,-9.418276 L 60.277408,20.120802 46.83254,25.833969 c -7.394635,3.142776 -13.866226,6.397454 -14.381267,7.230482 -1.882795,3.046862 3.530196,21.912183 8.471699,29.525761 5.259452,8.103325 15.995295,16.953887 20.565818,16.953887 1.439604,0 6.655238,-4.03788 11.590201,-8.973412 z"
         style="display:inline;fill:#000000;stroke-width:2.02848"
         id="path423"
         inkscape:label="Shield" /><g
         inkscape:groupmode="layer"
         id="layer8"
         inkscape:label="Connect"
         style="display:none"><path
           style="display:inline;fill:#000000;stroke-width:0.342311"
           d="M 51.943344,66.319342 C 51.278406,65.396466 51.26434,65.03046 51.26434,48.662921 c 0,-16.36754 0.01412,-16.733554 0.679004,-17.656428 1.321233,-1.833777 1.779499,-1.591594 13.576725,7.175057 11.972174,8.896648 12.387276,9.338214 11.277717,11.996837 -0.206721,0.495343 -4.783365,4.131708 -11.275043,8.958582 -11.800655,8.774334 -12.258079,9.016284 -13.579399,7.182373 z"
           id="path537"
           inkscape:label="Play Sign" /></g><g
         inkscape:groupmode="layer"
         id="g759"
         inkscape:label="Disconnect"
         style="display:none"><path
           style="display:inline;fill:#000000;stroke-width:0.290033"
           d="m 91.891208,27.191552 c -0.330612,-0.420312 -0.601119,-1.018931 -0.601119,-1.33026 0,-0.31133 0.803782,-1.403103 1.786178,-2.426167 l 1.786177,-1.860126 h -1.185058 c -2.014515,0 -3.058966,-2.005592 -1.833512,-3.52078 0.529,-0.654075 0.74313,-0.688913 4.786453,-0.778625 l 4.232673,-0.09394 0.89882,0.898811 c 1.20329,1.203278 0.98572,2.032623 -1.05632,4.026583 -0.871468,0.850963 -1.584496,1.601426 -1.584496,1.667701 0,0.06632 0.391548,0.120505 0.870102,0.120505 1.785734,0 2.669704,2.104577 1.438874,3.425717 -0.55542,0.596175 -0.84501,0.634761 -4.76451,0.634761 H 92.492326 Z M 105.10581,14.593138 c -0.5685,-0.44718 -0.7642,-0.864094 -0.7642,-1.62804 0,-0.920187 0.29391,-1.308842 2.82785,-3.7393713 l 2.82783,-2.7124371 -2.21563,-0.00987 c -2.46297,-0.01118 -3.27184,-0.4187776 -3.6023,-1.8154343 -0.14989,-0.6334891 -0.0129,-0.9643738 0.69041,-1.6676903 l 0.8774,-0.8774023 h 4.93924 c 3.05319,0 5.21384,0.1251193 5.65837,0.3276624 0.84726,0.3860347 1.4696,1.7023954 1.20258,2.5436785 -0.1037,0.3266099 -1.45199,1.7719045 -2.99628,3.2117519 l -2.80782,2.6179235 h 1.92271 c 2.15156,0 2.99047,0.457671 3.30937,1.805415 0.14989,0.633489 0.0129,0.964374 -0.69041,1.667691 l -0.8774,0.877402 h -4.76876 c -4.38525,0 -4.83021,-0.04834 -5.53296,-0.601119 z"
           id="path693"
           sodipodi:nodetypes="ssscssscsssssscscssccsccsscscssscscc"
           inkscape:label="ZZ Sleep" /><g
           id="g461"
           transform="translate(-0.28160689)"
           style="display:inline"
           inkscape:label="Pause Sign"><path
             style="display:inline;fill:#000000;stroke-width:0.531996"
             d="m 53.66302,67.285602 c -0.600714,0.168839 -1.901155,-0.01097 -2.88987,-0.399552 -2.53336,-0.995668 -3.137499,-2.588062 -3.264802,-8.605398 0.120127,-7.448304 -0.249396,-15.614217 -0.307922,-20.332467 -0.05504,-6.026065 0.499596,-7.627947 3.01419,-8.705239 2.133441,-0.914011 3.640232,-0.569291 5.531412,1.265462 1.222615,1.186137 1.423706,2.064341 1.570186,6.856969 0.173301,7.07055 0.322816,14.139648 0.320928,21.211938 -0.0013,4.895285 -0.154837,5.63433 -1.441698,6.940005 -0.791482,0.804335 -1.931725,1.59943 -2.532424,1.768282 z"
             id="path565"
             sodipodi:nodetypes="ssccsscccs" /><path
             style="display:inline;fill:#000000;stroke-width:0.531996"
             d="m 69.392261,67.285602 c -0.60071,0.168839 -1.90115,-0.01097 -2.88987,-0.399552 -2.53336,-0.995668 -3.1375,-2.588062 -3.2648,-8.605398 0.12013,-7.448304 -0.2494,-15.614217 -0.30792,-20.332467 -0.055,-6.026065 0.49959,-7.627947 3.01419,-8.705239 2.13344,-0.914011 3.64023,-0.569291 5.53141,1.265462 1.22262,1.186137 1.42371,2.064341 1.57019,6.856969 0.1733,7.07055 0.32281,14.139648 0.32092,21.211938 -0.001,4.895285 -0.15483,5.63433 -1.44169,6.940005 -0.79149,0.804335 -1.93173,1.59943 -2.53243,1.768282 z"
             id="path565-3"
             sodipodi:nodetypes="ssccsscccs" /></g></g><g
         inkscape:groupmode="layer"
         id="layer9"
         inkscape:label="Connect_Map"
         style="display:inline"><path
           d="m 61.263466,66.573172 c 0.41789,-0.43905 3.4479,-5.338585 10.38022,-16.784823 2.30033,-3.79816 2.40254,-8.450188 0.27028,-12.3037 -1.11163,-2.009 -3.83579,-4.526742 -5.9498,-5.498997 -7.82948,-3.600801 -16.946547,0.520481 -19.113567,8.640081 -0.51077,1.913826 -0.34208,4.915466 0.38782,6.900666 0.28207,0.76718 1.04706,2.24319 1.69998,3.28002 0.65294,1.03684 3.00624,4.8899 5.22962,8.562348 2.223397,3.67248 4.265867,6.914465 4.538887,7.204405 0.31608,0.33567 0.77944,0.52714 1.27557,0.52714 0.49456,0 0.96252,-0.19256 1.28099,-0.52714 z m -3.70807,-16.714623 c -0.6354,-0.20515 -1.69714,-0.83463 -2.359407,-1.39883 -3.17557,-2.70534 -3.17557,-7.339715 0,-10.045054 2.796347,-2.382299 6.776637,-2.382299 9.572997,0 3.19726,2.723849 3.19513,7.323014 -0.004,10.049004 -0.66482,0.5664 -1.67893,1.18755 -2.25355,1.38035 -1.39185,0.46699 -3.53453,0.47328 -4.95539,0.0145 z"
           style="display:inline;fill:#000000;stroke:none;stroke-width:0.526214;stroke-dasharray:none;stroke-opacity:1"
           id="path1262-3"
           inkscape:export-filename="../src/main/java/com/mr/apps/JNordVpnManager/resources/icons/mpLocation.png"
           inkscape:export-xdpi="22.313953"
           inkscape:export-ydpi="22.313953"
           inkscape:label="Location Sign" /></g></g></g><g
     inkscape:groupmode="layer"
     id="layer6"
     inkscape:label="without Background"
     style="display:none"><g
       inkscape:groupmode="layer"
       id="layer4"
       inkscape:label="Collapse Window"
       style="display:none"><path
         d="M 32.755868,108.56876 C 32.535812,107.7855 32.40753,103.9525 32.308683,95.206883 l -0.138581,-12.26348 -4.285548,0.130206 -4.285531,0.130395 5.92886,-11.602001 L 35.456738,60 l 6.130424,11.220476 6.130451,11.220505 -4.285465,0.140804 -4.285448,0.140804 0.07943,12.267921 c 0.07104,10.97526 0.03522,12.42044 -0.340052,13.71548 -1.338546,4.61948 -4.815616,4.54157 -6.13021,-0.1374 z"
         style="fill:#000000;stroke-width:0.245762"
         id="path428" /><path
         d="m 82.859099,108.5688 c -0.22006,-0.78326 -0.348337,-4.61626 -0.447187,-13.361917 L 82.273332,82.943403 77.987806,83.073609 73.7023,83.204004 79.631127,71.602003 85.559954,60 l 6.130384,11.220476 6.130417,11.220505 -4.285436,0.140804 -4.285426,0.140804 0.0794,12.267921 c 0.071,10.9753 0.0352,12.42048 -0.34005,13.71552 -1.338541,4.61948 -4.815593,4.54157 -6.130174,-0.1374 z"
         style="display:inline;fill:#000000;stroke-width:0.245762"
         id="path428-3" /><rect
         style="fill:none;stroke:#000000;stroke-width:4.92654;stroke-dasharray:none;stroke-opacity:1"
         id="rect528"
         width="103.07346"
         height="32.267796"
         x="8.4632683"
         y="16.355272" /></g><g
       inkscape:groupmode="layer"
       id="g1142"
       inkscape:label="Expand Window"
       style="display:inline"
       transform="translate(0,2.4943781)"><rect
         style="fill:none;stroke:#000000;stroke-width:4.98136;stroke-dasharray:none;stroke-opacity:1"
         id="rect1140"
         width="103.01864"
         height="87.234032"
         x="8.4906807"
         y="13.888605" /><path
         d="m 32.379028,46.061538 c -0.22006,0.78326 -0.34834,4.61626 -0.44719,13.361917 l -0.13858,12.26348 -4.28552,-0.130206 -4.28551,-0.130395 5.92883,11.602001 5.92882,11.602003 6.13039,-11.220476 6.13043,-11.220505 -4.28545,-0.140804 -4.28543,-0.140804 0.0794,-12.267921 c 0.071,-10.9753 0.0352,-12.42048 -0.34005,-13.71552 -1.33854,-4.61948 -4.81559,-4.54157 -6.13017,0.1374 z"
         style="display:inline;fill:#000000;stroke-width:0.245762"
         id="path428-3-6" /><path
         d="m 82.525527,46.061538 c -0.22006,0.78326 -0.34834,4.61626 -0.44719,13.361917 l -0.13858,12.26348 -4.28552,-0.130206 -4.28551,-0.130395 5.92883,11.602001 5.92882,11.602003 6.13039,-11.220476 6.13043,-11.220505 -4.28545,-0.140804 -4.28543,-0.140804 0.0794,-12.267921 c 0.071,-10.9753 0.0352,-12.42048 -0.34005,-13.71552 -1.33854,-4.61948 -4.81559,-4.54157 -6.13017,0.1374 z"
         style="display:inline;fill:#000000;stroke-width:0.245762"
         id="path428-3-6-7" /></g></g></svg>
