<?xml version="1.0" encoding="UTF-8"?>
<svg width="120mm" height="120mm" version="1.1" viewBox="0 0 120 120" xml:space="preserve" xmlns="http://www.w3.org/2000/svg"><rect transform="translate(-44.521 -23.563)" x="44.521" y="23.563" width="120" height="120" display="none" fill="#fff" stroke-width=".27675"/><path d="m105.33 91.238c-1.198-2.767-2.9946-4.5796-4.1671-7.2493-1.6299-1.9987-2.7952-4.5726-4.3542-6.8913-0.98671-1.8748-2.0409-3.1221-3.0542-4.8863-0.90265-1.4057-1.7666-3.1014-2.8327-4.6062-1.2949-1.8799-2.163-3.7778-3.5667-5.7126-0.95524-1.9048-2.0209-3.0547-2.7868-4.7492-1.7424-2.6172-3.2117-5.3192-4.8455-7.6483-1.8151-4.2054-5.4744 3.3758-4.0043 5.524 0.74286 2.6208 1.6737 8.6251-0.79509 3.0397-1.418-1.8528-2.4711-4.4047-3.6585-6.1828-1.37-2.4815-2.5125-4.4673-4.1178-7.019-0.97515-1.5878-1.9542-3.417-3.0031-5.0884-1.7064-1.7778-3.4939-9.5936-6.0994-5.72-1.5179 2.7975-3.1239 5.3064-4.6361 7.9977-1.2878 1.8605-2.363 4.2392-3.7092 6.0845-1.8467 5.2836-1.2807 6.7833-0.88252 13.526 0.06387 1.0859-2.3292-3.8809-2.9518-5.5847-1.508-2.3198-3.0744-4.6204-4.0687-7.1324-2.3315-2.9165-3.7192 3.1197-5.0207 4.4906-1.4363 2.0217-2.6514 4.5038-4.0257 6.4487-0.95393 1.8656-2.647 3.642-3.3743 5.7262-1.6 2.2982-3.3844 5.1015-4.8422 7.5427-0.9767 2.119-2.8703 4.4972-3.9726 6.4723-1.0934 2.0093-2.3439 3.9566-3.7353 6.0855-1.6703 1.0558-2.672 7.8878-4.9602 4.8987-0.88583-2.1297-3.1993-4.8081-3.6789-7.2348-1.4139-2.3054-2.0151-4.5795-2.9271-7.2306-1.3397-4.0327-2.024-8.0859-2.5081-12.315-0.47364-6.3364 0.16256-12.777 1.7224-18.802 0.88592-3.3792 2.0165-6.9724 3.7129-9.8972 0.31256-2.401 2.377-4.06 3.1533-6.5111 1.6771-1.6394 2.9855-4.553 4.9574-6.4428 1.1168-1.5321 2.3422-2.3897 3.5792-3.7162 1.9384-2.0436 4.5514-4.0937 6.9387-5.8223 2.6289-1.8235 5.6162-3.4915 8.2465-4.8194 2.5643-1.1864 5.2627-2.1366 7.7796-3.0265 3.9311-0.99965 7.948-2.1561 12.187-2.1408 5.2532-0.97521 10.588 0.04498 15.856 0.91118 3.9312 0.84839 7.7112 1.9208 11.361 3.5672 1.8754 0.83785 4.1485 1.6165 5.7464 3.0589 2.1541 1.2107 4.8382 2.5631 6.3625 4.1875 2.1659 1.4518 4.0523 3.3959 5.8955 5.1959 2.3144 2.3271 4.6207 5.151 6.2094 7.6661 1.9434 2.3724 2.4991 4.554 3.9797 6.6238 1.4445 3.1883 2.7254 6.5627 3.7938 9.8888 1.4293 5.8034 2.1961 11.798 1.8505 17.829-0.1045 4.6593-0.77417 9.3922-2.1531 13.784-0.83127 2.899-1.9522 5.8559-3.1711 8.5222-1.2392 2.5242-2.3593 4.0082-3.6883 6.6641-0.66934 0.52264-0.92556 2.4766-1.7405 0.69406z" fill="#386eff" stroke="#e3e3e3"/><path d="m45.298 77.592c-13.243-11.658-23.306-38.489-18.089-48.237 1.1298-2.1102 8.537-6.3816 16.46-9.4896 16.375-6.4249 20.968-6.128 38.587 2.4944 9.7651 4.7782 11.236 6.2867 11.795 12.093 1.4746 15.318-8.537 36.219-22.164 46.273-9.5445 7.041-15.877 6.2952-26.589-3.1337zm27.781-7.0213c8.9458-8.9457 16.495-26.734 14.888-35.08-0.39277-2.0396-6.2267-5.914-14.178-9.4183l-13.511-5.9521-13.445 5.7132c-7.3946 3.1428-13.866 6.3975-14.381 7.2305-1.8828 3.0469 3.5302 21.912 8.4717 29.526 5.2595 8.1033 15.995 16.954 20.566 16.954 1.4396 0 6.6552-4.0379 11.59-8.9734z" fill-rule="evenodd" stroke="#e3e3e3"/><path d="m61.263 66.573c0.41789-0.43905 3.4479-5.3386 10.38-16.785 2.3003-3.7982 2.4025-8.4502 0.27028-12.304-1.1116-2.009-3.8358-4.5267-5.9498-5.499-7.8295-3.6008-16.947 0.52048-19.114 8.6401-0.51077 1.9138-0.34208 4.9155 0.38782 6.9007 0.28207 0.76718 1.0471 2.2432 1.7 3.28 0.65294 1.0368 3.0062 4.8899 5.2296 8.5623 2.2234 3.6725 4.2659 6.9145 4.5389 7.2044 0.31608 0.33567 0.77944 0.52714 1.2756 0.52714 0.49456 0 0.96252-0.19256 1.281-0.52714zm-3.7081-16.715c-0.6354-0.20515-1.6971-0.83463-2.3594-1.3988-3.1756-2.7053-3.1756-7.3397 0-10.045 2.7963-2.3823 6.7766-2.3823 9.573 0 3.1973 2.7238 3.1951 7.323-4e-3 10.049-0.66482 0.5664-1.6789 1.1876-2.2536 1.3804-1.3918 0.46699-3.5345 0.47328-4.9554 0.0145z" stroke="#e3e3e3"/></svg>
