<svg width="32" height="24" viewBox="0 0 32 24" fill="none" xmlns="http://www.w3.org/2000/svg">
<path fill-rule="evenodd" clip-rule="evenodd" d="M1 0H31C31.5523 0 32 0.447715 32 1V23C32 23.5523 31.5523 24 31 24H1C0.447715 24 0 23.5523 0 23V1C0 0.447715 0.447715 0 1 0Z" fill="#FFDF00"/>
<path fill-rule="evenodd" clip-rule="evenodd" d="M22 0H31C31.5523 0 32 0.447715 32 1V23C32 23.5523 31.5523 24 31 24H22V0Z" fill="#D10034"/>
<path fill-rule="evenodd" clip-rule="evenodd" d="M0 1C0 0.447716 0.447715 0 1 0H10V24H1C0.447715 24 0 23.5523 0 23V1Z" fill="#0018AB"/>
<path opacity="0.2" fill-rule="evenodd" clip-rule="evenodd" d="M31 0H1C0.447715 0 0 0.447715 0 1V23C0 23.5523 0.447715 24 1 24H31C31.5523 24 32 23.5523 32 23V1C32 0.447715 31.5523 0 31 0ZM1 23V1H31V23H1Z" fill="black"/>
<path fill-rule="evenodd" clip-rule="evenodd" d="M12 8.81818C12 8.81818 14.6895 8 16 8C17.3105 8 20 8.81818 20 8.81818V14.5455L16 17L12 14.5455V8.81818Z" fill="#B8953A"/>
<rect x="14" y="10" width="2" height="2" fill="#E20025"/>
<rect x="14" y="12" width="2" height="2" fill="#FFEA0F"/>
<rect x="16" y="10" width="2" height="2" fill="#FFEA0F"/>
<rect x="16" y="12" width="2" height="2" fill="#E20025"/>
</svg>
