<svg width="18" height="12" viewBox="0 0 18 12" fill="none" xmlns="http://www.w3.org/2000/svg"><path fill-rule="evenodd" clip-rule="evenodd" d="M.75 0h16.5c.414 0 .75.298.75.667v10.666c0 .368-.336.667-.75.667H.75c-.414 0-.75-.299-.75-.667V.667C0 .298.336 0 .75 0Z" fill="#273C83"/><path fill-rule="evenodd" clip-rule="evenodd" d="m.656.005 3.985 2.3L8.634 0H9v1.28L5.932 3.05 9 4.822V6h-.54L4.64 3.796.823 6H0V4.984L3.35 3.05 0 1.117v-.45c0-.34.286-.62.656-.662Z" fill="#F7F7F7"/><path fill-rule="evenodd" clip-rule="evenodd" d="M9 .154V.75l-3.984 2.3L9 5.35v.596L4.5 3.348 0 5.946V5.35l3.984-2.3L0 .75V.666A.62.62 0 0 1 .165.25L4.5 2.752 9 .154Z" fill="#DC1E35"/><path fill-rule="evenodd" clip-rule="evenodd" d="M6 2h3v2.667H6V6H3V4.667H0V2h3V0h3v2Z" fill="#F7F7F7"/><path fill-rule="evenodd" clip-rule="evenodd" d="M5.25 2.667V0h-1.5v2.667H0V4h3.75v2h1.5V4H9V2.667H5.25Z" fill="#DC1E35"/><path fill-rule="evenodd" clip-rule="evenodd" d="M13.5 3.333c.414 0 .75-.298.75-.666 0-.369-.336-.667-.75-.667s-.75.298-.75.667c0 .368.336.666.75.666Zm2.25 2c.414 0 .75-.298.75-.666 0-.369-.336-.667-.75-.667s-.75.298-.75.667c0 .368.336.666.75.666ZM5.25 9c0 .552-.504 1-1.125 1S3 9.552 3 9s.504-1 1.125-1 1.125.448 1.125 1Zm8.25.333c.414 0 .75-.298.75-.666 0-.369-.336-.667-.75-.667s-.75.298-.75.667c0 .368.336.666.75.666ZM12.75 5c0 .552-.504 1-1.125 1S10.5 5.552 10.5 5s.504-1 1.125-1 1.125.448 1.125 1Z" fill="#F7F7F7"/><path opacity=".2" fill-rule="evenodd" clip-rule="evenodd" d="M17.25 0H.75C.336 0 0 .298 0 .667v10.666c0 .368.336.667.75.667h16.5c.414 0 .75-.299.75-.667V.667C18 .298 17.664 0 17.25 0ZM.75 11.333V.667h16.5v10.666H.75Z" fill="#000"/></svg>