<svg width="32" height="24" viewBox="0 0 32 24" fill="none" xmlns="http://www.w3.org/2000/svg">
<path fill-rule="evenodd" clip-rule="evenodd" d="M1 0H31C31.5523 0 32 0.447715 32 1V23C32 23.5523 31.5523 24 31 24H1C0.447715 24 0 23.5523 0 23V1C0 0.447715 0.447715 0 1 0Z" fill="#F02532"/>
<path fill-rule="evenodd" clip-rule="evenodd" d="M1 0H31C31.5523 0 32 0.447715 32 1V8H0V1C0 0.447715 0.447715 0 1 0Z" fill="#00B8E6"/>
<path fill-rule="evenodd" clip-rule="evenodd" d="M0 16H32V23C32 23.5523 31.5523 24 31 24H1C0.447715 24 0 23.5523 0 23V16Z" fill="#3B9D2E"/>
<path opacity="0.2" fill-rule="evenodd" clip-rule="evenodd" d="M31 0H1C0.447715 0 0 0.447715 0 1V23C0 23.5523 0.447715 24 1 24H31C31.5523 24 32 23.5523 32 23V1C32 0.447715 31.5523 0 31 0ZM1 23V1H31V23H1Z" fill="black"/>
<path fill-rule="evenodd" clip-rule="evenodd" d="M17.2737 9.56901C16.5299 8.61415 15.3692 8 14.065 8C11.82 8 10 9.81996 10 12.065C10 14.31 11.82 16.13 14.065 16.13C15.3692 16.13 16.5299 15.5159 17.2737 14.561C16.6997 14.9782 15.978 15.2267 15.1942 15.2267C13.3233 15.2267 11.8067 13.8111 11.8067 12.065C11.8067 10.3189 13.3233 8.90333 15.1942 8.90333C15.978 8.90333 16.6997 9.15183 17.2737 9.56901Z" fill="#F5FFFD"/>
<path fill-rule="evenodd" clip-rule="evenodd" d="M18 14C19.1046 14 20 13.1046 20 12C20 10.8954 19.1046 10 18 10C16.8954 10 16 10.8954 16 12C16 13.1046 16.8954 14 18 14Z" fill="#F5FFFD"/>
</svg>
