<svg width="32" height="24" viewBox="0 0 32 24" fill="none" xmlns="http://www.w3.org/2000/svg">
<path fill-rule="evenodd" clip-rule="evenodd" d="M1 0H31C31.5523 0 32 0.447715 32 1V23C32 23.5523 31.5523 24 31 24H1C0.447715 24 0 23.5523 0 23V1C0 0.447715 0.447715 0 1 0Z" fill="#CF142B"/>
<rect width="16" height="12" fill="#00247D"/>
<path fill-rule="evenodd" clip-rule="evenodd" d="M16 0H15.349L8.25 4.61014L1.15101 0H1C0.447715 0 0 0.447715 0 1V2.23343L5.9549 6.10059L0 9.96775V12H1.46081L8.25 7.59105L15.0392 12H16V9.64305L10.5451 6.10059L16 2.55814V0Z" fill="#F7F7F7"/>
<path fill-rule="evenodd" clip-rule="evenodd" d="M0 0.999993V1.50151L7.08196 6.10059L0 10.6997V11.892L8 6.69677L16 11.892V10.6997L8.91804 6.10059L16 1.50151V0.309143L8 5.5044L0.180694 0.426487C0.0668275 0.588855 0 0.78662 0 0.999993Z" fill="#DC1E35"/>
<path fill-rule="evenodd" clip-rule="evenodd" d="M10 4H16V8H10V12H6V8H0V4H6V0H10V4Z" fill="#F7F7F7"/>
<path fill-rule="evenodd" clip-rule="evenodd" d="M9 5V0H7V5H0V7H7V12H9V7H16V5H9Z" fill="#DC1E35"/>
<path opacity="0.2" fill-rule="evenodd" clip-rule="evenodd" d="M31 0H1C0.447715 0 0 0.447715 0 1V23C0 23.5523 0.447715 24 1 24H31C31.5523 24 32 23.5523 32 23V1C32 0.447715 31.5523 0 31 0ZM1 23V1H31V23H1Z" fill="black"/>
<path d="M18.1818 14.665V5H29V14.665C29 15.3347 28.6492 15.9554 28.0754 16.3007L23.5909 19L19.1064 16.3007C18.5327 15.9554 18.1818 15.3347 18.1818 14.665Z" fill="white"/>
<path d="M25.1817 8.50003C25.1817 9.37866 24.4694 10.0909 23.5908 10.0909C22.7122 10.0909 21.9999 9.37866 21.9999 8.50003C21.9999 7.62139 22.7122 6.90912 23.5908 6.90912C24.4694 6.90912 25.1817 7.62139 25.1817 8.50003Z" fill="#CF142B"/>
<path d="M21.3637 12.3182C21.3637 12.8454 20.9363 13.2727 20.4091 13.2727C19.882 13.2727 19.4546 12.8454 19.4546 12.3182C19.4546 11.791 19.882 11.3636 20.4091 11.3636C20.9363 11.3636 21.3637 11.791 21.3637 12.3182Z" fill="#CF142B"/>
<path d="M27.7273 12.3182C27.7273 12.8454 27.2999 13.2727 26.7728 13.2727C26.2456 13.2727 25.8182 12.8454 25.8182 12.3182C25.8182 11.791 26.2456 11.3636 26.7728 11.3636C27.2999 11.3636 27.7273 11.791 27.7273 12.3182Z" fill="#CF142B"/>
<path d="M20.4016 14.8088L20.0909 9.45453H27.0909L26.7801 14.8088C26.744 15.432 26.4055 15.9981 25.8736 16.3249L23.5909 17.7273L21.3081 16.3249C20.7762 15.9981 20.4377 15.432 20.4016 14.8088Z" fill="#64B4D1"/>
<path d="M18.1818 14.665V13.9091H29V14.665C29 15.3347 28.6492 15.9553 28.0754 16.3007L23.5909 19L19.1064 16.3007C18.5327 15.9553 18.1818 15.3347 18.1818 14.665Z" fill="#2F8F22"/>
<path fill-rule="evenodd" clip-rule="evenodd" d="M20.3494 13.9091L20.4016 14.8088C20.4378 15.432 20.7763 15.9981 21.3082 16.3248L23.5909 17.7272L25.8736 16.3248C26.4055 15.9981 26.744 15.432 26.7802 14.8088L26.8324 13.9091H20.3494Z" fill="#CCCCCC"/>
</svg>
