<svg width="32" height="24" viewBox="0 0 32 24" fill="none" xmlns="http://www.w3.org/2000/svg">
<path d="M1 0H31C31.5523 0 32 0.447715 32 1V23C32 23.5523 31.5523 24 31 24H1C0.447715 24 0 23.5523 0 23V1C0 0.447715 0.447715 0 1 0Z" fill="#F7E017"/>
<path d="M32 16.2298V20.3813L0 11.4924V7.34094L32 16.2298Z" fill="black"/>
<path d="M32 12.2298V16.3813L0 7.4924V3.34094L32 12.2298Z" fill="white"/>
<path opacity="0.2" fill-rule="evenodd" clip-rule="evenodd" d="M31 0H1C0.447715 0 0 0.447715 0 1V23C0 23.5523 0.447715 24 1 24H31C31.5523 24 32 23.5523 32 23V1C32 0.447715 31.5523 0 31 0ZM1 23V1H31V23H1Z" fill="black"/>
<path fill-rule="evenodd" clip-rule="evenodd" d="M16.1331 5.19158L16.1332 5.20467L17.0092 5.65613L16.4513 5.837L16.8599 6.38328L16.1353 6.02935L16.1374 6.80377L15.9236 6.80277V5.18399C15.866 5.16578 15.8297 5.13466 15.8297 5.10023C15.8297 5.0458 15.9203 5 16.0428 5C16.1652 5 16.2552 5.0458 16.2552 5.10023C16.2552 5.14007 16.207 5.17546 16.1331 5.19158ZM15.8689 8.55175V7.80572L16.0215 7.92088L16.1918 7.78613V8.55156C16.1996 8.54167 16.2066 8.52952 16.2124 8.51561C16.2475 8.43098 16.3776 8.31515 16.5167 8.24479C16.817 8.09246 17.3368 8.08781 17.7543 8.23351C17.9302 8.29524 18.1253 8.40542 18.3112 8.5488C18.4977 8.69217 18.879 8.88399 19.1044 8.94805C19.3324 9.01276 19.7343 9.02903 19.9404 8.98223C20.0253 8.96298 20.105 8.94705 20.1176 8.94705C20.1936 8.94705 20.0642 9.20028 19.9122 9.34863C19.6344 9.6201 19.273 9.61878 18.7645 9.34464C18.4476 9.17406 18.0686 9.0808 18.0686 9.17373C18.0686 9.19298 18.0885 9.20592 18.118 9.20592C18.2282 9.20592 18.4409 9.27993 18.7376 9.42064C19.0586 9.57331 19.2388 9.63769 19.3456 9.63769C19.4233 9.63769 19.4256 9.68582 19.3533 9.79202C19.2766 9.90519 19.1465 9.96128 18.9627 9.96095C18.7871 9.96028 18.6895 9.92178 18.5325 9.79136C18.27 9.57298 17.6159 9.32938 17.6411 9.45948C17.6461 9.48536 17.6776 9.50129 17.745 9.51158C17.9727 9.54643 18.2398 9.67387 18.5133 9.87864C18.5976 9.94203 18.6852 10.0044 18.7074 10.0177C18.7449 10.0396 18.7456 10.0462 18.7161 10.1017C18.667 10.1933 18.5432 10.2643 18.4091 10.2782C18.2355 10.2961 18.0845 10.2444 17.9282 10.1136C17.5983 9.83749 17.2873 9.63769 17.1878 9.63769C17.1064 9.63769 17.143 9.6825 17.2863 9.7585C17.4748 9.8584 17.6687 9.99347 17.8114 10.1246C17.8787 10.187 17.9547 10.2487 17.98 10.2623C18.0397 10.2942 18.0374 10.3409 17.9717 10.4269C17.9046 10.5145 17.7938 10.553 17.6501 10.5378C17.3633 10.5076 17.1396 10.3692 16.7882 10.0044C16.6508 9.86205 16.5283 9.74556 16.5157 9.74556C16.4689 9.74556 16.4965 9.80894 16.5871 9.9105C16.6992 10.036 16.7208 10.1066 16.6783 10.2085C16.6408 10.2988 16.5784 10.3197 16.4503 10.2852C16.3192 10.2497 16.2987 10.2819 16.3846 10.3887C16.5127 10.5484 16.4938 10.7439 16.3368 10.8783C16.288 10.9197 16.2369 10.9539 16.223 10.9539C16.2094 10.9539 16.1749 10.9184 16.146 10.8749C16.0451 10.7216 15.9565 10.7226 15.8582 10.8776C15.8241 10.9317 15.7952 10.9755 15.7942 10.9752C15.7929 10.9748 15.7467 10.9417 15.692 10.9012C15.5805 10.8195 15.5436 10.7415 15.5436 10.5872C15.5436 10.5082 15.5582 10.4654 15.6103 10.3937C15.687 10.2875 15.6731 10.254 15.5645 10.2852C15.39 10.3353 15.3067 10.2895 15.3007 10.1408C15.298 10.0681 15.3133 10.0373 15.4112 9.91979C15.4895 9.82554 15.5181 9.77609 15.5025 9.76049C15.4872 9.74522 15.3946 9.82554 15.2044 10.019C15.0528 10.1733 14.8822 10.331 14.8254 10.3695C14.4989 10.5899 14.1869 10.624 14.0445 10.4545C13.9715 10.3678 13.9755 10.319 14.0598 10.2666C14.0986 10.2427 14.164 10.1876 14.2055 10.1441C14.3034 10.0423 14.5951 9.83184 14.7398 9.75883C14.8573 9.69942 14.8852 9.65927 14.8088 9.65927C14.7099 9.65927 14.3927 9.8657 14.1521 10.0867C14.0814 10.1521 13.9795 10.2248 13.926 10.2484C13.8059 10.3015 13.5699 10.321 13.4651 10.2865C13.391 10.262 13.256 10.1345 13.256 10.0891C13.256 10.0771 13.2868 10.0506 13.3243 10.0303C13.3618 10.0104 13.4292 9.96161 13.4737 9.92278C13.6662 9.75385 14.0309 9.57995 14.3203 9.51921C14.4122 9.49996 14.3784 9.4535 14.2758 9.45815C14.077 9.46678 13.6824 9.65163 13.4468 9.84612C13.1707 10.0738 12.7542 10.0522 12.6201 9.8033C12.5969 9.76049 12.5833 9.72033 12.5899 9.71403C12.5962 9.70772 12.6782 9.68316 12.7721 9.65927C12.8736 9.63371 13.0748 9.55041 13.2669 9.4545C13.5693 9.30382 13.6589 9.27163 13.867 9.23811C13.9606 9.22318 13.9655 9.17738 13.8746 9.16676C13.7574 9.15282 13.5779 9.21156 13.2606 9.36754C12.8531 9.568 12.7389 9.60252 12.5242 9.5899C12.3284 9.57796 12.2179 9.52784 12.0589 9.3775C11.955 9.27893 11.8076 9.02869 11.8365 8.99982C11.8435 8.99285 11.8913 8.99982 11.9427 9.01476C11.9998 9.03168 12.1634 9.04297 12.3606 9.0433C12.6364 9.04396 12.7097 9.03666 12.8567 8.99418C13.1026 8.92316 13.4295 8.75688 13.6532 8.58995C14.081 8.27002 14.4298 8.14158 14.8746 8.13959C15.2851 8.13793 15.5463 8.23285 15.7776 8.46748C15.8114 8.50167 15.843 8.53068 15.8689 8.55175ZM13.5245 18.3904C13.9337 18.6705 14.5228 18.8749 15.1653 18.9602C16.0152 19.0727 17.1254 18.941 17.8947 18.6366C18.1469 18.5367 18.2873 18.4617 18.5076 18.3104C18.5916 18.2523 18.666 18.2052 18.6733 18.2052C18.6802 18.2052 18.6816 18.2755 18.6756 18.3615C18.6666 18.4936 18.6719 18.5291 18.7088 18.5875C18.7778 18.6967 18.9086 18.7521 19.0997 18.7541C19.3055 18.7558 19.4386 18.6964 19.65 18.5079C19.8418 18.3369 20.0771 18.1982 20.2971 18.1262C20.4409 18.0794 20.5119 18.0698 20.718 18.0684C20.9888 18.0668 21.1205 18.0913 21.3522 18.1869C21.4342 18.2208 21.5095 18.2483 21.5195 18.2483C21.5297 18.2483 21.538 18.1932 21.538 18.1255C21.538 17.8999 21.4242 17.7522 21.2254 17.7203C21.0734 17.6957 21.0419 17.6868 21.0419 17.6679C21.0419 17.6576 21.0757 17.5929 21.1172 17.5238C21.2311 17.3353 21.2171 17.1963 21.0708 17.0572C20.9045 16.8992 20.5962 16.8541 20.3459 16.9517C20.1607 17.0234 20.1448 17.0094 20.2384 16.8571C20.3018 16.7539 20.319 16.7014 20.326 16.5949C20.3366 16.4286 20.3031 16.3247 20.2046 16.2152C20.0964 16.0958 19.9905 16.047 19.8395 16.0476C19.6659 16.0483 19.564 16.1011 19.3523 16.3005C18.588 17.0204 17.6092 17.5089 16.6378 17.6553C16.3162 17.7037 15.768 17.72 15.4955 17.6894C14.4159 17.5683 13.4903 17.1209 12.639 16.3092C12.3539 16.0377 12.2338 15.9726 12.0406 15.9866C11.804 16.0038 11.6108 16.1976 11.5936 16.4346C11.5803 16.6218 11.6016 16.6994 11.7091 16.8568C11.8023 16.9925 11.8229 17.04 11.7891 17.04C11.7801 17.04 11.7197 17.0197 11.655 16.9951C11.3978 16.8972 11.1067 16.9198 10.9348 17.0512C10.7669 17.1797 10.7274 17.343 10.8236 17.5116C10.8532 17.563 10.8774 17.6178 10.8774 17.6327C10.8774 17.6476 10.8186 17.6811 10.747 17.7074C10.6049 17.7591 10.4831 17.8531 10.4337 17.9483C10.3962 18.021 10.3912 18.2483 10.427 18.2483C10.4403 18.2483 10.4818 18.2297 10.5186 18.2068C10.5558 18.1839 10.6627 18.1395 10.7566 18.1079C10.9587 18.0402 11.2385 18.0313 11.4492 18.0864C11.7051 18.1527 12.0074 18.3187 12.2693 18.5361C12.5222 18.7458 12.8342 18.853 13.0386 18.7999C13.2523 18.7445 13.3373 18.638 13.3373 18.4265C13.3373 18.3519 13.3469 18.2915 13.3589 18.2915C13.3705 18.2915 13.4451 18.3359 13.5245 18.3904ZM15.5171 17.4817C14.2367 17.3588 13.0116 16.6919 12.2667 15.6345C11.4579 14.5315 11.203 13.0752 11.4499 11.7436C11.5811 11.1373 11.8458 10.5307 12.2976 10.099C11.9375 10.8624 11.8159 11.7374 12.0079 12.5645C12.3062 14.2157 13.7017 15.6135 15.3712 15.8553C16.0316 16.0465 16.7149 15.8446 17.3457 15.6398C18.7375 15.1493 19.7976 13.8283 19.927 12.3516C20.0377 11.5525 19.915 10.7216 19.5551 9.998C19.7603 10.1065 20.0193 10.5319 20.172 10.818C20.7031 11.8469 20.7274 13.0799 20.4147 14.1779C19.9905 15.5751 18.9224 16.7991 17.5104 17.2439C16.8696 17.4533 16.1881 17.5171 15.5172 17.4818L15.5171 17.4817ZM9.18485 15.6906C9.14749 15.6717 9.11002 15.6526 9.06795 15.6474H9.06798C8.98406 15.6342 8.89155 15.7168 8.92318 15.8033C8.98047 15.886 9.07699 15.9287 9.16692 15.9685L9.18199 15.9752C9.40372 16.064 9.64459 16.0995 9.88276 16.0951C9.90436 16.0952 9.93908 16.0952 9.95435 16.0948C10.146 16.0954 10.3365 16.0608 10.5167 15.9959L10.5487 15.9849C10.6425 15.9532 10.7488 15.9172 10.7855 15.8179C10.8256 15.7458 10.753 15.6737 10.6798 15.6881C10.6242 15.7003 10.5706 15.7195 10.517 15.7388L10.517 15.7388C10.4722 15.7549 10.4274 15.771 10.3815 15.783C10.1633 15.8445 9.93362 15.8683 9.70765 15.8497C9.5424 15.8296 9.38227 15.7767 9.22941 15.7122C9.21445 15.7056 9.19975 15.6982 9.18504 15.6907L9.18503 15.6907L9.18502 15.6907L9.18501 15.6907L9.185 15.6907L9.18499 15.6907L9.18498 15.6907L9.18497 15.6907L9.18496 15.6907L9.18495 15.6907L9.18494 15.6907L9.18493 15.6907L9.18492 15.6906L9.18491 15.6906L9.1849 15.6906L9.18489 15.6906L9.18488 15.6906L9.18485 15.6906ZM9.16124 15.3029L9.16126 15.3029C9.19918 15.3087 9.2319 15.3279 9.26457 15.3471C9.27966 15.356 9.29473 15.3648 9.3103 15.3723C9.44143 15.4342 9.57957 15.4875 9.72416 15.5061C9.95621 15.5261 10.1931 15.4884 10.4083 15.3994C10.4282 15.3933 10.4477 15.3846 10.4672 15.3759C10.5057 15.3587 10.5443 15.3415 10.5868 15.3436C10.6569 15.3479 10.6796 15.4289 10.6498 15.4845C10.6148 15.5771 10.5177 15.6141 10.431 15.6471L10.4068 15.6564C10.2562 15.7183 10.0942 15.7505 9.93134 15.7503C9.91827 15.7507 9.88858 15.7507 9.86973 15.7506C9.68136 15.755 9.49128 15.725 9.31603 15.6549C9.21352 15.6106 9.10393 15.5603 9.03872 15.4658C9.00334 15.3879 9.07641 15.2903 9.16124 15.3029ZM9.27576 14.9727L9.27573 14.9727C9.20303 14.9639 9.15301 15.046 9.16526 15.1114C9.17535 15.165 9.22075 15.2022 9.26141 15.2355L9.27043 15.2429C9.44548 15.3709 9.66685 15.4262 9.8819 15.4203C9.91304 15.4206 9.98005 15.4209 9.94151 15.4199C10.0791 15.4193 10.2149 15.3857 10.3386 15.3261L10.3404 15.3254C10.4226 15.2896 10.5184 15.2479 10.5461 15.1543C10.5594 15.1104 10.5677 15.0472 10.5182 15.0226C10.4791 15.0007 10.4403 15.0206 10.4033 15.0395C10.3912 15.0457 10.3792 15.0518 10.3675 15.0563C10.2086 15.1371 10.0315 15.1821 9.85288 15.1813C9.69853 15.1865 9.55308 15.1216 9.41918 15.0516C9.40143 15.0426 9.38482 15.0311 9.36822 15.0197L9.36821 15.0196C9.33936 14.9997 9.31053 14.9798 9.27576 14.9727ZM8.05607 10.0983L8.08663 10.1054C8.29997 10.2631 8.34661 10.5718 8.29981 10.8186C8.48141 11.0245 8.62215 11.2735 8.66113 11.5483C8.69747 11.6809 8.82285 11.7441 8.94552 11.806L8.94553 11.806L8.94553 11.806C9.00209 11.8345 9.05807 11.8627 9.10448 11.8973C9.25714 11.9684 9.37657 12.0877 9.459 12.2278C9.5475 12.1771 9.50474 12.052 9.46553 11.9372C9.44733 11.8839 9.42989 11.8329 9.4267 11.7926C9.40133 11.6648 9.33414 11.5575 9.26683 11.4501C9.21186 11.3623 9.15681 11.2745 9.12439 11.1752C9.00137 10.9201 9.34142 10.9729 9.42843 11.1196C9.5726 11.3075 9.73007 11.4871 9.8993 11.6539C9.94845 11.6952 10.0016 11.7346 10.0552 11.7744C10.2251 11.9005 10.3999 12.0303 10.4678 12.2351C10.4729 12.6199 10.4774 13.0049 10.4818 13.3898L10.4818 13.39C10.4875 13.8846 10.4933 14.3792 10.5004 14.8738C10.4736 15.002 10.2728 15.0407 10.1148 15.0712C10.0801 15.0779 10.0475 15.0842 10.0193 15.0909C9.7544 15.1354 9.50432 15.0191 9.27404 14.9035C9.28296 14.3935 9.28768 13.8831 9.27248 13.3732C9.26677 13.318 9.26558 13.2612 9.26439 13.2041C9.26153 13.0677 9.25865 12.9298 9.19388 12.8092C9.084 12.6574 8.94355 12.5312 8.80317 12.4051C8.61531 12.2364 8.42756 12.0677 8.31331 11.8378C8.15029 11.4268 8.08069 10.9845 8.02467 10.5478C8.02649 10.5037 8.01975 10.454 8.01285 10.4031C7.9976 10.2907 7.98161 10.1729 8.05607 10.0983ZM8.385 10.1478H8.38497C8.28664 10.1637 8.28998 10.289 8.33548 10.3549C8.38388 10.4972 8.39706 10.6517 8.37086 10.7999C8.54568 11.0045 8.68106 11.2493 8.72186 11.5181C8.72262 11.5959 8.78595 11.6336 8.8465 11.6697C8.8645 11.6804 8.88226 11.691 8.89805 11.7024C8.95369 11.7379 9.01171 11.7699 9.06975 11.802L9.06976 11.802C9.18036 11.8632 9.29103 11.9244 9.38545 12.0088C9.3908 12.0146 9.39593 12.0204 9.40061 12.0257C9.42244 12.0504 9.43482 12.0644 9.4172 12.01C9.41328 11.9953 9.4097 11.9803 9.4061 11.9652C9.38905 11.8939 9.37164 11.821 9.31695 11.7682C9.22619 11.6707 9.11284 11.5836 8.98065 11.5539C8.9701 11.4231 8.91 11.3025 8.85215 11.1864L8.84453 11.1711L8.83975 11.1628C8.77458 11.0498 8.70564 10.9302 8.59426 10.8571C8.59886 10.6547 8.59554 10.4424 8.50845 10.2557C8.48291 10.2077 8.44529 10.1507 8.385 10.1478ZM8.6601 10.2284L8.6601 10.2284C8.69953 10.2304 8.73142 10.2595 8.75814 10.2858C8.86423 10.4053 8.9154 10.5691 8.911 10.7276C8.88955 10.871 8.94361 11.0195 9.04179 11.1243C9.06358 11.2272 9.11277 11.3219 9.16426 11.4127C9.18203 11.4455 9.20305 11.4764 9.22405 11.5072C9.25905 11.5586 9.29399 11.61 9.31375 11.6698C9.23397 11.599 9.14465 11.5351 9.04257 11.5013C9.02534 11.3979 8.98276 11.301 8.93784 11.207C8.86618 11.0665 8.78748 10.9221 8.66166 10.8225C8.66434 10.6761 8.6592 10.5282 8.62638 10.385C8.60469 10.3333 8.59159 10.2488 8.6601 10.2284ZM8.97306 10.2733L8.97306 10.2732C8.93763 10.2795 8.91539 10.3119 8.89613 10.3399L8.8932 10.3442C8.8887 10.3611 8.89889 10.3787 8.90929 10.3967C8.91674 10.4096 8.92429 10.4226 8.92665 10.4358C8.97022 10.545 8.98667 10.6649 8.97365 10.7818C8.97079 10.8648 9.0005 10.9459 9.04281 11.0163C9.05503 10.9644 9.1031 10.9271 9.15521 10.922C9.15996 10.9211 9.16528 10.9211 9.17041 10.9211C9.1857 10.921 9.19925 10.921 9.19098 10.8993C9.17774 10.7405 9.15354 10.5808 9.09803 10.4307C9.07651 10.3771 9.05208 10.3207 9.00565 10.284C8.99624 10.2773 8.98497 10.2716 8.97306 10.2733ZM22.8729 15.6474C22.9568 15.6342 23.0493 15.7168 23.0177 15.8033C22.9604 15.886 22.8639 15.9287 22.7739 15.9685L22.7589 15.9752C22.5371 16.064 22.2963 16.0995 22.0581 16.0951C22.0365 16.0952 22.0018 16.0952 21.9865 16.0948C21.7949 16.0954 21.6043 16.0608 21.4242 15.9959L21.3921 15.9849C21.2983 15.9532 21.1921 15.9172 21.1553 15.8179C21.1152 15.7458 21.1878 15.6737 21.261 15.6881C21.3166 15.7003 21.3702 15.7195 21.4239 15.7388L21.4239 15.7388C21.4686 15.7549 21.5134 15.771 21.5594 15.783C21.7775 15.8445 22.0072 15.8683 22.2332 15.8497C22.3984 15.8296 22.5586 15.7767 22.7114 15.7122C22.7265 15.7056 22.7412 15.6981 22.756 15.6906C22.7934 15.6717 22.8308 15.6526 22.8729 15.6474H22.8729ZM22.9021 15.4658C22.9375 15.3879 22.8644 15.2903 22.7796 15.3029L22.7796 15.3029C22.7417 15.3087 22.7089 15.3279 22.6763 15.3471C22.6612 15.356 22.6461 15.3648 22.6305 15.3723C22.4994 15.4342 22.3613 15.4875 22.2167 15.5061C21.9846 15.5261 21.7478 15.4884 21.5325 15.3994C21.5126 15.3933 21.4931 15.3846 21.4736 15.3759C21.4351 15.3587 21.3965 15.3415 21.3541 15.3436C21.2839 15.3479 21.2613 15.4289 21.291 15.4845C21.326 15.5771 21.4232 15.6141 21.5099 15.6471L21.5341 15.6564C21.6847 15.7183 21.8467 15.7505 22.0095 15.7503C22.0226 15.7507 22.0523 15.7507 22.0711 15.7506C22.2595 15.755 22.4496 15.725 22.6248 15.6549C22.7273 15.6106 22.8369 15.5603 22.9021 15.4658ZM22.6651 14.9727C22.7378 14.9639 22.7878 15.046 22.7756 15.1114C22.7655 15.165 22.7201 15.2022 22.6794 15.2355L22.6704 15.2429C22.4954 15.3709 22.274 15.4262 22.0589 15.4203C22.0278 15.4206 21.9608 15.4209 21.9993 15.4199C21.8618 15.4193 21.7259 15.3857 21.6022 15.3261L21.6005 15.3254C21.5182 15.2896 21.4224 15.2479 21.3948 15.1543C21.3815 15.1104 21.3731 15.0472 21.4227 15.0226C21.4617 15.0007 21.5006 15.0206 21.5375 15.0395C21.5497 15.0457 21.5616 15.0518 21.5733 15.0563C21.7323 15.1371 21.9093 15.1821 22.088 15.1813C22.2423 15.1865 22.3878 15.1216 22.5217 15.0516C22.5394 15.0426 22.556 15.0312 22.5726 15.0197L22.5726 15.0197L22.5726 15.0197L22.5726 15.0197L22.5726 15.0197L22.5726 15.0197L22.5726 15.0197L22.5726 15.0197L22.5726 15.0197L22.5726 15.0196C22.6015 14.9997 22.6303 14.9798 22.6651 14.9727L22.6651 14.9727ZM23.928 10.4031C23.9432 10.2907 23.9592 10.1729 23.8848 10.0983L23.8542 10.1054C23.6409 10.2631 23.5942 10.5718 23.641 10.8186C23.4594 11.0245 23.3187 11.2735 23.2797 11.5483C23.2434 11.6809 23.118 11.7441 22.9953 11.806C22.9388 11.8345 22.8828 11.8627 22.8364 11.8973C22.6837 11.9684 22.5643 12.0877 22.4818 12.2278C22.3933 12.1771 22.4361 12.052 22.4753 11.9372C22.4935 11.8839 22.511 11.8329 22.5141 11.7926C22.5395 11.6648 22.6067 11.5575 22.674 11.4501C22.729 11.3623 22.784 11.2745 22.8165 11.1752C22.9395 10.9201 22.5994 10.9729 22.5124 11.1196C22.3682 11.3075 22.2108 11.4871 22.0415 11.6539C21.9924 11.6952 21.9393 11.7346 21.8857 11.7744C21.7157 11.9005 21.541 12.0303 21.4731 12.2351C21.468 12.6195 21.4635 13.0041 21.459 13.3886L21.459 13.3898L21.459 13.3903L21.459 13.3907L21.459 13.3912L21.459 13.3916L21.459 13.392L21.459 13.3925L21.459 13.3929L21.459 13.3934C21.4533 13.8868 21.4476 14.3803 21.4404 14.8738C21.4672 15.002 21.6681 15.0407 21.8261 15.0712L21.8261 15.0712L21.8261 15.0712C21.8608 15.0779 21.8933 15.0842 21.9215 15.0909C22.1864 15.1354 22.4365 15.0191 22.6668 14.9035C22.6579 14.3935 22.6532 13.8831 22.6684 13.3732C22.6741 13.318 22.6753 13.2612 22.6765 13.2041C22.6793 13.0677 22.6822 12.9298 22.747 12.8092C22.8568 12.6574 22.9973 12.5312 23.1377 12.4051L23.1377 12.4051C23.3255 12.2364 23.5133 12.0677 23.6275 11.8378C23.7906 11.4268 23.8602 10.9845 23.9162 10.5478C23.9144 10.5037 23.9211 10.454 23.928 10.4031ZM23.5559 10.1478C23.6542 10.1637 23.6509 10.289 23.6054 10.3549C23.557 10.4972 23.5438 10.6517 23.57 10.7999C23.3952 11.0045 23.2598 11.2493 23.219 11.5181C23.2182 11.5959 23.1549 11.6336 23.0943 11.6697C23.0763 11.6804 23.0586 11.691 23.0428 11.7024C22.9872 11.7379 22.9291 11.7699 22.8711 11.802L22.8711 11.802C22.7605 11.8632 22.6498 11.9244 22.5554 12.0088C22.55 12.0146 22.5449 12.0203 22.5403 12.0257L22.5402 12.0257C22.5184 12.0504 22.506 12.0644 22.5236 12.01C22.5276 11.9953 22.5311 11.9803 22.5347 11.9652C22.5518 11.8939 22.5692 11.821 22.6239 11.7682C22.7147 11.6707 22.828 11.5836 22.9602 11.5539C22.9707 11.4231 23.0308 11.3025 23.0887 11.1864L23.0963 11.1711L23.1011 11.1628C23.1663 11.0498 23.2352 10.9302 23.3466 10.8571C23.342 10.6547 23.3453 10.4424 23.4324 10.2557C23.4579 10.2077 23.4956 10.1507 23.5558 10.1478H23.5559ZM23.3145 10.385C23.3362 10.3333 23.3493 10.2488 23.2807 10.2284C23.2413 10.2304 23.2094 10.2595 23.1827 10.2858C23.0766 10.4053 23.0254 10.5691 23.0298 10.7276C23.0513 10.871 22.9972 11.0195 22.8991 11.1243C22.8773 11.2272 22.8281 11.3219 22.7766 11.4127C22.7588 11.4455 22.7378 11.4764 22.7168 11.5072C22.6818 11.5586 22.6469 11.61 22.6271 11.6698C22.7069 11.599 22.7962 11.5351 22.8983 11.5013C22.9155 11.3979 22.9581 11.301 23.003 11.207C23.0747 11.0665 23.1534 10.9221 23.2792 10.8225C23.2765 10.6761 23.2816 10.5282 23.3145 10.385ZM22.9678 10.2732C23.0032 10.2795 23.0255 10.3119 23.0447 10.3399L23.0477 10.3442C23.0521 10.3611 23.042 10.3787 23.0316 10.3967C23.0241 10.4096 23.0166 10.4226 23.0142 10.4358C22.9706 10.545 22.9542 10.6649 22.9672 10.7818C22.9701 10.8648 22.9403 10.9459 22.898 11.0163C22.8858 10.9644 22.8377 10.9271 22.7856 10.922C22.7809 10.9211 22.7756 10.9211 22.7704 10.9211C22.7551 10.921 22.7416 10.921 22.7499 10.8993C22.7631 10.7405 22.7873 10.5808 22.8428 10.4307C22.8643 10.3771 22.8888 10.3207 22.9352 10.284C22.9446 10.2773 22.9559 10.2716 22.9678 10.2733L22.9678 10.2732ZM14.8368 15.0527C14.9749 15.4801 15.3789 15.8065 15.8267 15.8492L15.8267 15.8492C15.9728 15.8603 16.1208 15.8548 16.265 15.8284C16.5091 15.7893 16.7272 15.6508 16.8885 15.4665C16.9881 15.3436 17.0812 15.2102 17.1368 15.0613C17.1233 15.0269 17.0761 15.0561 17.032 15.0834C17.0092 15.0975 16.9873 15.1111 16.9713 15.1151C16.9243 15.1426 16.8725 15.1584 16.8207 15.1741L16.8207 15.1741C16.7608 15.1924 16.701 15.2106 16.649 15.2469L16.6115 15.2783C16.5133 15.3608 16.4139 15.4443 16.2955 15.4964C16.1872 15.547 16.2138 15.3964 16.2543 15.3463C16.2959 15.2111 16.2106 15.0784 16.1399 14.9696C16.1232 14.954 16.1067 14.9283 16.0897 14.9017L16.0897 14.9017C16.0549 14.8473 16.0175 14.789 15.9695 14.805C15.8723 14.92 15.7758 15.0399 15.713 15.1776C15.6756 15.2552 15.7055 15.3409 15.7488 15.4087C15.7832 15.5383 15.5981 15.4582 15.5458 15.4174C15.4937 15.3893 15.45 15.3494 15.4065 15.3095C15.3559 15.2631 15.3055 15.2169 15.2421 15.1897C15.1484 15.1839 15.0605 15.1467 14.9792 15.1016C14.9635 15.0988 14.9416 15.082 14.9196 15.0652C14.8806 15.0355 14.8415 15.0056 14.8368 15.0527ZM16.3531 15.3261C16.3629 15.2363 16.3425 15.1445 16.2966 15.0628C16.2282 14.9235 16.1325 14.7994 16.0383 14.6772L16.0383 14.6772L16.0295 14.6658C15.9677 14.6296 15.9245 14.6977 15.8842 14.7612C15.8648 14.7917 15.8462 14.8211 15.8264 14.8374C15.8133 14.8571 15.7997 14.8768 15.786 14.8967C15.7008 15.0203 15.6118 15.1495 15.6068 15.3033C15.5612 15.3742 15.482 15.2744 15.4331 15.213L15.4331 15.2129C15.4248 15.2025 15.4174 15.1931 15.4111 15.1859C15.3292 15.0701 15.2672 14.933 15.2774 14.7881C15.2677 14.5546 15.3125 14.3221 15.3975 14.1051C15.4138 14.058 15.4327 14.0113 15.4517 13.9645C15.5073 13.8269 15.5633 13.6884 15.5554 13.5374C15.5628 13.385 15.5319 13.2168 15.4085 13.1144C15.2911 13.0223 15.4846 13.0026 15.546 13.0504C15.594 13.0536 15.632 13.0916 15.6682 13.1278C15.7113 13.1709 15.7519 13.2116 15.8041 13.1882C15.8157 13.1607 15.8245 13.1316 15.8333 13.1024L15.8333 13.1023C15.8536 13.0352 15.8739 12.9677 15.9289 12.9184C16.0063 12.8123 16.0873 12.9634 16.1138 13.0342C16.1374 13.061 16.14 13.1048 16.1426 13.1463C16.1459 13.2011 16.149 13.2518 16.1995 13.2541C16.2356 13.2288 16.2682 13.1977 16.3008 13.1665C16.3643 13.1058 16.4279 13.045 16.5178 13.027C16.573 12.9955 16.6673 13.0228 16.5945 13.0862C16.4938 13.1806 16.4078 13.2986 16.3895 13.439C16.3587 13.6152 16.4027 13.7938 16.4795 13.9525C16.6271 14.2641 16.7412 14.6161 16.6665 14.9628C16.6319 15.117 16.5272 15.2498 16.4 15.3392C16.3839 15.3489 16.3585 15.3482 16.3531 15.3261ZM16.0055 12.7512C16.0868 12.8105 16.1454 12.8963 16.1938 12.9834L16.1938 12.9834C16.1982 12.9911 16.2024 12.9991 16.2066 13.0072C16.2183 13.0295 16.2302 13.0522 16.2483 13.0691C16.3487 13.0225 16.4458 12.9476 16.4749 12.8353C16.5234 12.6505 16.5245 12.4535 16.4909 12.2659C16.4742 12.1656 16.4383 12.0713 16.4024 11.9769C16.3785 11.9141 16.3547 11.8513 16.3364 11.7868C16.2788 11.581 16.3261 11.3519 16.4606 11.1857C16.4724 11.1632 16.4944 11.1411 16.5167 11.1186C16.5577 11.0773 16.5999 11.0349 16.5817 10.9874C16.502 10.9477 16.3975 10.9534 16.3236 11.0038C16.289 11.022 16.262 11.0503 16.2351 11.0785C16.2035 11.1116 16.1721 11.1445 16.1289 11.1605C16.084 11.1365 16.0822 11.0847 16.0804 11.0306C16.0788 10.9834 16.0772 10.9346 16.0469 10.9011C16.0035 10.7879 15.8983 10.8922 15.8962 10.9712C15.8857 10.9928 15.8827 11.0236 15.8798 11.0544V11.0544C15.875 11.1041 15.8702 11.1538 15.8337 11.1648C15.8102 11.1451 15.788 11.1231 15.7658 11.101L15.7658 11.101C15.7093 11.0449 15.6525 10.9884 15.5725 10.9682L15.5669 10.9671C15.513 10.9566 15.3886 10.9324 15.3817 10.9816C15.4071 11.0136 15.4344 11.0448 15.4617 11.0761L15.4617 11.0761C15.5467 11.1735 15.6325 11.2717 15.6658 11.3996C15.7008 11.5468 15.7149 11.7084 15.6576 11.8521L15.638 11.9016C15.5535 12.1154 15.4667 12.3347 15.4753 12.5685C15.4744 12.7239 15.5005 12.9125 15.648 12.9986C15.7319 13.0814 15.7773 12.9933 15.8131 12.9239L15.824 12.903C15.8391 12.8884 15.8537 12.87 15.8687 12.8512C15.9074 12.8028 15.9486 12.7511 16.0055 12.7512ZM15.1371 6.83098C15.5496 7.16851 16.5077 7.11441 16.911 6.81472C16.8904 7.19358 17.0185 7.45125 17.148 7.71172C17.1796 7.77525 17.2112 7.83895 17.2409 7.90462L16.8247 7.60592L16.5791 7.87807L16.2963 7.54718L16.0242 7.81932L15.7411 7.5578L15.4636 7.86745L15.2074 7.56311L14.839 7.90462C14.9927 7.56975 15.1032 7.26608 15.1371 6.83098ZM15.8692 6.8426V6.60896L15.8558 6.6092C15.7118 6.61175 15.561 6.61443 15.4248 6.64115C15.3276 6.6604 15.2393 6.69193 15.1656 6.74403C15.1776 7.02712 16.5263 7.14527 16.8881 6.74934C16.8121 6.69392 16.7191 6.66106 16.6169 6.64115C16.4819 6.61493 16.3325 6.61227 16.1908 6.60995C16.1908 6.64874 16.191 6.68761 16.1911 6.72652C16.1913 6.76552 16.1915 6.80456 16.1915 6.84359L15.8692 6.8426Z" fill="#CF1126"/>
</svg>
