<svg width="20" height="15" viewBox="0 0 20 15" fill="none" xmlns="http://www.w3.org/2000/svg"><path fill-rule="evenodd" clip-rule="evenodd" d="M.833 0h18.334c.46 0 .833.373.833.833v13.334c0 .46-.373.833-.833.833H.833A.833.833 0 0 1 0 14.167V.833C0 .373.373 0 .833 0Z" fill="#009B3A"/><path fill-rule="evenodd" clip-rule="evenodd" d="M1.875 7.5 10 1.875 18.125 7.5 10 13.125 1.875 7.5Z" fill="#FEDF00"/><path fill-rule="evenodd" clip-rule="evenodd" d="M10 10.625a3.125 3.125 0 1 0 0-6.25 3.125 3.125 0 0 0 0 6.25Z" fill="#002776"/><path fill-rule="evenodd" clip-rule="evenodd" d="m7.415 5.744 5.4 3.117c.185-.385.295-.813.309-1.265l-4.77-2.753a3.142 3.142 0 0 0-.939.9Z" fill="#F7F7F7"/><path opacity=".2" fill-rule="evenodd" clip-rule="evenodd" d="M19.167 0H.833A.833.833 0 0 0 0 .833v13.334c0 .46.373.833.833.833h18.334c.46 0 .833-.373.833-.833V.833A.833.833 0 0 0 19.167 0ZM.833 14.167V.833h18.334v13.334H.833Z" fill="#000"/></svg>