<svg width="32" height="24" viewBox="0 0 32 24" fill="none" xmlns="http://www.w3.org/2000/svg">
<path fill-rule="evenodd" clip-rule="evenodd" d="M1 0H31C31.5523 0 32 0.447715 32 1V23C32 23.5523 31.5523 24 31 24H1C0.447715 24 0 23.5523 0 23V1C0 0.447715 0.447715 0 1 0Z" fill="#FFD521"/>
<path fill-rule="evenodd" clip-rule="evenodd" d="M32 0.999981V23C32 23.5523 31.5523 24 31 24H1.00003C0.447741 24 32 0.447696 32 0.999981Z" fill="#FF4E11"/>
<path opacity="0.2" fill-rule="evenodd" clip-rule="evenodd" d="M31 0H1C0.447715 0 0 0.447715 0 1V23C0 23.5523 0.447715 24 1 24H31C31.5523 24 32 23.5523 32 23V1C32 0.447715 31.5523 0 31 0ZM1 23V1H31V23H1Z" fill="black"/>
<path fill-rule="evenodd" clip-rule="evenodd" d="M22.6142 6.2529C22.4636 6.11613 22.2354 6.01663 22.0346 6.05149L22.0269 6.0421C21.9528 5.76025 21.7451 5.54538 21.4891 5.6165C21.4301 5.63288 21.3881 5.67083 21.3568 5.72058C21.0876 5.47257 20.7207 5.40536 20.3997 5.59305C20.2321 5.35744 20.0015 5.29309 19.794 5.2352C19.6449 5.19361 19.5078 5.15534 19.4146 5.05928C19.0506 4.68413 18.1293 4.33655 17.7486 4.59585C18.1439 4.57504 18.4322 4.70231 18.6735 4.86535C18.6529 4.88074 18.633 4.89882 18.6143 4.91983C18.3843 4.79371 18.1744 4.74607 18.0354 4.82757C18.2622 4.8395 18.405 4.93048 18.5355 5.0412C18.5034 5.1092 18.479 5.1934 18.4657 5.29651C17.9175 4.89412 17.3233 4.79439 17.1308 5.0684C16.8199 4.98307 16.477 5.01436 16.3952 5.24942C16.7547 5.07436 17.0931 5.21633 17.3606 5.32859C17.3832 5.33805 17.4052 5.34729 17.4268 5.35612C17.3616 5.37816 17.3024 5.41454 17.2542 5.46723C17.0081 5.41991 16.7946 5.43243 16.6893 5.56685C16.7888 5.52518 16.9689 5.51945 17.1869 5.56596C17.1393 5.66161 17.1165 5.78903 17.1307 5.95305C16.2037 5.57788 15.5382 5.70451 15.3982 6.07441C15.2437 6.48268 15.8176 6.70888 15.9169 6.44958C15.812 6.49372 15.4535 6.37234 15.641 6.14062C15.8215 5.91773 16.7179 6.07021 17.5999 6.50679C17.5598 6.51776 17.5216 6.52965 17.4855 6.54236C17.3453 6.46854 17.1684 6.46176 16.9966 6.45518C16.7299 6.44496 16.4755 6.43522 16.3898 6.17593C16.3302 6.36925 16.3785 6.48665 16.4853 6.55788C16.1409 6.57008 15.7945 6.66726 15.5639 6.91661C14.9326 6.89034 14.5025 6.98193 14.4383 7.32127C14.7594 7.033 15.2254 7.09228 15.5999 7.13992C15.7916 7.16431 15.9593 7.18565 16.0714 7.15577C16.0907 7.15062 16.113 7.14603 16.1381 7.14199L16.1313 7.15514C16.0831 7.25192 16.0687 7.34123 16.089 7.40799C16.015 7.41922 15.9526 7.48702 15.9137 7.61179C15.879 7.72322 15.8819 7.81974 15.9202 7.88249C15.8593 7.91966 15.8255 8.00208 15.8286 8.12677C15.8294 8.16085 15.8329 8.19269 15.8388 8.22187C15.5848 8.30216 15.327 8.49518 15.1003 8.96536C15.3006 8.76508 15.5084 8.65558 15.7615 8.60587C15.7225 8.67908 15.6954 8.763 15.6851 8.84398C15.6709 8.95556 15.6038 9.03953 15.5363 9.12388C15.4203 9.26893 15.3034 9.4151 15.4535 9.70464C15.503 9.41224 15.6962 9.25225 15.8506 9.24121C15.9473 9.2343 16.0742 9.21876 16.18 9.16214C16.1309 9.28132 16.1527 9.43801 16.2369 9.55017C16.3222 9.664 16.4535 9.7182 16.5714 9.68614C16.488 9.80933 16.5052 10.0111 16.623 10.1681C16.666 10.2254 16.7367 10.2612 16.8141 10.2779C16.7901 10.3078 16.7689 10.3401 16.75 10.3722C16.6909 10.4722 16.5747 10.4661 16.4539 10.4598C16.3148 10.4525 16.1698 10.4449 16.0989 10.5984C16.2535 10.5318 16.4104 10.645 16.5052 10.7134L16.5052 10.7134C16.5204 10.7243 16.534 10.7341 16.5457 10.7419C16.6793 10.8299 16.8815 10.8545 17.0472 10.7962C17.0269 10.8528 17.0184 10.9058 17.0203 10.9515C17.0229 11.0171 17.068 11.1202 17.1371 11.212C17.0575 11.1927 16.9745 11.1905 16.9155 11.2053C16.761 11.2439 16.4658 11.1998 16.3968 11.0342C16.3417 11.1667 16.4217 11.3101 16.6451 11.3818C16.7774 11.4243 16.804 11.5083 16.7856 11.5693L16.7695 11.5672C16.7613 11.4976 16.6635 11.4376 16.5954 11.4149C16.5223 11.3905 16.419 11.4136 16.396 11.4764L16.3923 11.4752C16.3912 11.3472 16.3179 11.1952 16.0714 11.1336C15.8529 11.079 15.7092 11.1447 15.6751 11.2003L15.6732 11.1996C15.7337 11.1176 15.693 10.9595 15.4976 10.8743C15.3679 10.8177 15.2582 10.8574 15.1964 10.9196C15.2107 10.8263 15.16 10.7266 15.0782 10.6867C14.9532 10.6257 14.9225 10.5107 14.8959 10.4108C14.8744 10.33 14.8555 10.259 14.7913 10.2343C14.6479 10.1791 14.51 10.0798 14.5044 9.9805C14.4327 10.1184 14.4769 10.2453 14.5763 10.3336C14.6231 10.3752 14.6085 10.4771 14.5934 10.5828L14.5932 10.5844C14.5568 10.5388 14.4993 10.5031 14.426 10.4836C14.3242 10.4566 14.2389 10.4924 14.1842 10.5547C14.1561 10.4797 14.0804 10.4217 13.9738 10.3991C13.8652 10.376 13.7785 10.4216 13.7279 10.4928C13.6945 10.4123 13.6068 10.3581 13.4889 10.35C13.3925 10.3434 13.3198 10.386 13.2761 10.4485C13.2302 10.2939 13.0874 10.148 12.9321 10.1184C12.8998 10.1123 12.8665 10.1072 12.8331 10.1021L12.8331 10.1021C12.6666 10.0766 12.4976 10.0507 12.4356 9.89222C12.3887 10.0577 12.5128 10.1626 12.6563 10.2563C12.7194 10.2976 12.7216 10.3678 12.7241 10.4451C12.7251 10.4776 12.7261 10.5113 12.7318 10.5447C12.6211 10.4519 12.4394 10.4503 12.3252 10.4936C12.1785 10.5493 12.0735 10.7581 12.138 10.9286L12.1289 10.9338C12.0006 10.7974 11.7587 10.8348 11.6522 10.9515C11.5765 11.0344 11.5573 11.1432 11.5839 11.2317C11.3626 11.0498 11.1364 11.0705 11.0011 11.1777C10.8667 11.2842 10.734 11.3138 10.629 11.3372C10.5058 11.3646 10.4208 11.3836 10.4163 11.5087C10.5208 11.4288 10.6175 11.453 10.7087 11.4759C10.7718 11.4918 10.8322 11.5069 10.8908 11.4867C10.9457 11.4677 10.9949 11.4963 11.057 11.5324L11.0756 11.5432C11.0198 11.5824 10.9893 11.6442 11.0011 11.7349C10.9266 11.768 10.8925 11.9597 10.9944 12.0835C10.8437 12.0658 10.6676 12.2054 10.6315 12.3859C10.6067 12.5101 10.6246 12.6592 10.6751 12.7675C10.511 12.8052 10.3656 12.9236 10.2199 13.0423C10.0063 13.2163 9.79196 13.391 9.51707 13.3128C9.65368 13.5299 9.92228 13.4527 10.1378 13.3907C10.2399 13.3614 10.3302 13.3354 10.3888 13.3459C10.4065 13.3491 10.4255 13.3517 10.4453 13.3537C10.3496 13.4192 10.3082 13.5407 10.2784 13.7542C10.2611 13.8784 10.2925 13.9739 10.3472 14.0292C10.1677 14.117 10.0293 14.3575 10.054 14.4944C9.92374 14.513 9.83152 14.5841 9.74648 14.6497C9.64162 14.7305 9.54768 14.8029 9.40671 14.7583C9.45157 14.8672 9.63038 14.9464 9.81998 14.9806C9.78233 15.0039 9.74782 15.033 9.71376 15.0617C9.62328 15.1379 9.53594 15.2114 9.4012 15.1665C9.40863 15.2594 9.46108 15.3673 9.56863 15.4396C9.47922 15.4312 9.38521 15.4469 9.29328 15.4622C9.17149 15.4825 9.05334 15.5022 8.95432 15.4645C8.95432 15.5511 8.97864 15.6621 9.04483 15.7585C8.68246 15.6338 8.17877 15.6512 8.08538 15.8424C8.2702 15.8285 8.42745 15.8948 8.4633 15.9996C8.32295 15.9126 8.14119 15.9369 7.96307 15.9608C7.79108 15.9839 7.62248 16.0065 7.49782 15.9279C7.12779 15.6946 6.93537 15.7142 6.77344 15.7306C6.66634 15.7415 6.57257 15.751 6.44958 15.6852C6.14063 15.5196 5.83994 15.6576 5.83167 15.8285C5.99459 15.697 6.13912 15.7869 6.28648 15.8785C6.39862 15.9483 6.51239 16.019 6.63716 15.994C7.0213 15.9172 7.2457 16.0382 7.46017 16.1539C7.57843 16.2177 7.69366 16.2798 7.831 16.3063C7.52651 16.2754 7.20379 16.2479 6.82473 16.4686C6.65759 16.5659 6.44705 16.5862 6.25929 16.6044C6.01323 16.6281 5.8063 16.6481 5.78753 16.8327C5.92526 16.7581 6.07194 16.7775 6.2136 16.7962C6.34433 16.8135 6.47078 16.8303 6.58198 16.772C6.81371 16.6506 7.06196 16.6121 7.17783 16.6672C6.9573 16.9318 6.74931 16.9614 6.53798 16.9914C6.35279 17.0177 6.16505 17.0444 5.96407 17.23C5.82652 17.3569 5.67073 17.3803 5.51967 17.403C5.36852 17.4257 5.2221 17.4476 5.10342 17.572C4.87171 17.8147 4.72825 17.9085 4.50757 17.9361C4.73527 18.0813 4.95999 17.9437 5.17646 17.8112C5.32188 17.7222 5.46358 17.6354 5.59995 17.6382C5.87028 17.6437 6.14613 17.5664 6.38338 17.4065C6.28231 17.6451 6.08126 17.7009 5.83981 17.7679C5.60675 17.8325 5.33606 17.9077 5.08134 18.1677C5.04122 18.2087 5.00271 18.2492 4.965 18.2889L4.96486 18.2891L4.96481 18.2891C4.69946 18.5684 4.47331 18.8064 4 18.874C4.13741 19.0297 4.41002 18.8998 4.72056 18.7518C4.97109 18.6325 5.24631 18.5013 5.49513 18.4989C5.91387 18.4947 6.10459 18.2912 6.26022 18.1252C6.37536 18.0023 6.47128 17.8999 6.62612 17.914C6.82137 17.9317 6.95316 17.8036 7.07935 17.6809C7.18849 17.5748 7.29344 17.4727 7.43162 17.4727C7.58057 17.4727 7.68539 17.3417 7.78194 17.221C7.87849 17.1003 7.96676 16.9899 8.08263 17.0313C7.94037 17.0951 7.86135 17.2221 7.78159 17.3503C7.68194 17.5105 7.58113 17.6725 7.35438 17.7153C7.58926 17.8075 7.75045 17.6722 7.92859 17.5226C8.081 17.3946 8.24583 17.2562 8.47986 17.241C8.53982 17.237 8.60055 17.2251 8.66109 17.2066C8.47792 17.4661 8.3011 17.5417 8.15869 17.6026C8.01538 17.6638 7.90693 17.7102 7.86194 17.914C8.08863 17.7305 8.29152 17.6964 8.47195 17.666C8.66039 17.6343 8.82434 17.6068 8.96535 17.4175C9.17977 17.1297 9.37484 17.0102 9.53598 16.9115C9.68994 16.8172 9.81292 16.7418 9.89222 16.5568C9.9883 16.3326 10.2191 16.2033 10.4602 16.0681C10.5942 15.9931 10.7314 15.9162 10.8505 15.8203C10.9527 15.8491 11.0354 15.8404 11.0945 15.8097C11.1442 15.8606 11.2997 15.8838 11.4128 15.8254C11.4173 15.8848 11.418 15.9454 11.4141 16.0061L11.4121 16.0106L11.4137 16.0114C11.4069 16.1088 11.3881 16.2061 11.3536 16.298C11.3517 16.2999 11.35 16.3019 11.3485 16.304C11.2208 16.2533 11.0181 16.2388 10.9294 16.2921C10.8191 16.3582 10.8577 16.3747 10.9901 16.3859C11.1225 16.3969 11.2935 16.6111 11.0067 16.6231C10.9522 16.6253 10.9276 16.6808 10.8983 16.7469C10.8564 16.8414 10.8049 16.9576 10.6425 16.9706C10.7556 17.1086 11.0784 17.0175 11.1942 16.8658C11.1846 16.9199 11.2107 16.972 11.2376 17.0258C11.2725 17.0954 11.3088 17.168 11.2715 17.252C11.3622 17.2618 11.3892 17.1811 11.4195 17.0904C11.4554 16.9829 11.496 16.8613 11.653 16.8595L11.6579 16.8661C11.557 16.9101 11.6136 17.158 11.8191 17.102L11.8207 17.1046C11.7013 17.1745 11.7733 17.3223 11.9225 17.2851C11.8284 17.3165 11.7937 17.432 11.9077 17.5051C11.9008 17.5207 11.8934 17.5362 11.8861 17.5516C11.8494 17.6285 11.8139 17.703 11.8453 17.7762C11.3046 17.8533 11.117 18.234 11.2494 18.6423C11.2346 18.7221 11.2919 18.8091 11.3516 18.8998C11.4034 18.9784 11.4569 19.0598 11.4672 19.1418C11.4672 19.6157 11.8514 20 12.3255 20C12.7994 20 13.1837 19.6157 13.1837 19.1418C13.1837 19.1243 13.1832 19.1069 13.1821 19.0896C13.2293 19.0495 13.2631 18.9881 13.2797 18.9072C13.3735 18.8023 13.39 18.5596 13.3128 18.4271C13.3569 18.2506 13.2411 17.9858 13.0921 17.9195C13.1859 17.9527 13.2962 17.9305 13.3735 17.8644C13.4176 17.9637 13.5445 18.0354 13.6769 18.0244C13.6632 18.0986 13.7195 18.1453 13.7808 18.1961C13.8424 18.2472 13.9091 18.3024 13.9142 18.3941C13.9151 18.4104 13.9163 18.4285 13.9176 18.4479L13.9181 18.4547C13.9246 18.5524 13.9332 18.6801 13.9197 18.7746C14.0852 18.5596 14.1403 18.223 13.9859 17.9471C13.9969 17.6602 13.8534 17.4285 13.5666 17.4506C13.4342 17.2851 13.1804 17.3182 13.1031 17.4616C13.0149 17.3733 12.8797 17.3431 12.7749 17.3623C12.819 17.1416 12.7307 17.0258 12.6066 17.0203C12.6176 16.8327 12.5073 16.6562 12.2977 16.6121C12.2558 16.4237 12.2517 16.2635 12.2659 16.1168L12.2701 16.1154L12.2666 16.1091C12.2749 16.0271 12.2888 15.9493 12.3049 15.873L12.3087 15.8728L12.3064 15.8657C12.316 15.8204 12.3264 15.7755 12.3368 15.7306L12.3369 15.7305L12.3369 15.7303L12.3369 15.7303C12.3478 15.6833 12.3587 15.6363 12.3688 15.5886L12.3694 15.5886L12.369 15.5875L12.3703 15.5815C12.5157 15.6808 12.6983 15.671 12.7832 15.6576C12.8374 15.8 12.9647 15.8528 13.0829 15.9018C13.157 15.9325 13.2274 15.9618 13.2742 16.0106C13.3955 16.1375 13.8093 16.1265 13.9307 16.0547C13.8824 16.0499 13.8277 16.0345 13.7699 16.009C13.8539 16.0421 13.9453 16.0603 14.041 16.0603C14.4493 16.0603 14.7803 15.7293 14.7803 15.321C14.7803 15.0119 14.5905 14.747 14.3211 14.6367C14.3771 14.6452 14.4301 14.6656 14.4714 14.7141C14.499 14.35 14.1514 14.1569 13.9197 14.2783C13.8258 14.2286 13.5776 14.2617 13.5335 14.3279C13.4625 14.2975 13.275 14.3882 13.1681 14.4588C13.2545 14.3859 13.2649 14.2285 13.2245 14.1679C13.3183 14.1293 13.4231 14.0024 13.4342 13.9086C13.5038 13.9202 13.5918 13.9013 13.6723 13.884C13.7449 13.8684 13.8116 13.854 13.8534 13.8645C13.71 13.6769 13.4728 13.6107 13.23 13.6273C12.979 13.6411 12.8714 13.8176 12.8383 14.0079C12.6894 14.0962 12.6397 14.3941 12.6949 14.499C12.6094 14.4962 12.5294 14.579 12.4963 14.6259C12.4377 14.6008 12.3665 14.5792 12.2951 14.564C12.2609 14.4701 12.2181 14.3697 12.1652 14.2617C12.156 14.2429 12.1472 14.2239 12.1387 14.2047C12.1154 14.101 12.1479 14.0051 12.1776 13.9174L12.1776 13.9174L12.1776 13.9174C12.185 13.8956 12.1922 13.8743 12.1983 13.8535C12.2423 13.7045 12.2498 13.6124 12.2114 13.5634C12.2482 13.5385 12.2761 13.4965 12.2839 13.4314C12.2955 13.3333 12.2862 13.2597 12.2568 13.2133C12.3069 13.1963 12.3545 13.1586 12.3914 13.0866C12.415 13.0408 12.4239 12.9977 12.4209 12.9595C12.4761 12.9672 12.5332 12.9541 12.5845 12.9045C12.656 12.8354 12.6966 12.7519 12.6997 12.6723C12.7755 12.7153 12.8725 12.7301 12.9928 12.6838C13.0848 12.6485 13.1348 12.5876 13.1559 12.5188C13.2157 12.563 13.3 12.5917 13.4176 12.5901C13.5333 12.5884 13.6052 12.5473 13.6465 12.4886C13.7246 12.6113 13.8939 12.6942 14.2383 12.618C14.337 12.7032 14.47 12.758 14.639 12.7343C14.75 12.8327 14.9173 12.9043 15.1572 12.9045C15.2606 12.9817 15.4145 13.0398 15.641 13.0535C15.7104 13.0577 15.7688 13.0489 15.8158 13.0305C15.9096 13.1257 16.0924 13.2002 16.4244 13.2135C16.4851 13.2159 16.5346 13.2099 16.5734 13.1973C16.6219 13.2358 16.6825 13.2651 16.7554 13.2797C16.8694 13.3025 16.9546 13.2868 17.0112 13.2489C17.0881 13.2929 17.1922 13.3242 17.3299 13.3326C17.2593 13.4703 17.2235 13.6158 17.3182 13.7211L17.3172 13.7238C17.1895 13.6421 17.0996 13.6841 17.0236 13.7196C16.9645 13.7473 16.9138 13.771 16.8602 13.7293C16.7361 13.6328 16.5706 13.619 16.5072 13.7155C16.606 13.7191 16.6421 13.7537 16.6859 13.7957C16.7447 13.8522 16.8175 13.9219 17.0754 13.9473C16.8328 13.9636 16.7452 14.1173 16.6687 14.2515C16.6034 14.366 16.5463 14.4663 16.4078 14.4548C16.5917 14.6292 16.7245 14.514 16.8535 14.4021C16.949 14.3193 17.0423 14.2384 17.1527 14.2783C17.1231 14.2867 17.1339 14.3186 17.1508 14.3684C17.1781 14.4486 17.2212 14.5753 17.1361 14.7252C17.3181 14.7207 17.4122 14.5149 17.4558 14.3522C17.4769 14.3645 17.5024 14.3733 17.5334 14.3776C17.5224 14.5541 17.754 14.6921 17.9251 14.6148C17.9195 14.7969 18.2285 14.9183 18.3609 14.8465C18.4161 15.0341 18.8188 15.0782 18.8851 14.9679C18.8821 15.0479 19.0018 15.1198 19.1379 15.1582L19.1443 15.1665C19.1575 15.1704 19.1704 15.1712 19.1827 15.1695C19.2871 15.1928 19.3943 15.1954 19.4587 15.1665C19.4717 15.1632 19.4842 15.1581 19.4962 15.1516C19.6155 15.1104 19.7061 15.1398 19.786 15.1846L19.7899 15.1886C19.7935 15.1904 19.7971 15.1919 19.8006 15.193C19.8223 15.2059 19.8433 15.2197 19.8639 15.2332L19.864 15.2333L19.864 15.2333L19.8641 15.2334L19.8641 15.2334L19.8641 15.2334C19.9473 15.288 20.0247 15.3388 20.1209 15.31C19.8616 15.4865 19.8891 15.7403 20.0768 15.9168C20.0656 16.1707 20.2311 16.4134 20.4739 16.4244C20.5402 16.7223 21.0147 16.7996 21.2573 16.7223C20.9799 16.6298 20.9333 16.5098 20.8961 16.4142C20.8667 16.3387 20.8433 16.2784 20.7167 16.2589C20.7393 16.1909 20.765 16.0995 20.759 16.0133C20.8257 16.4695 21.2186 16.8198 21.6934 16.8198C22.2149 16.8198 22.6377 16.3972 22.6377 15.8756C22.6377 15.3541 22.2149 14.9313 21.6934 14.9313C21.679 14.9313 21.6647 14.9316 21.6505 14.9323C21.7092 14.9128 21.7588 14.8858 21.7869 14.8576C21.8311 14.9569 21.9856 14.9569 22.1401 14.9017C22.1628 14.9357 22.1972 14.9568 22.2343 14.9796C22.3056 15.0233 22.387 15.0732 22.416 15.2327C22.5594 15.001 22.427 14.6921 22.2283 14.5707C22.1622 14.3941 22.0214 14.3583 21.8753 14.4052C21.8201 14.3555 21.5994 14.3197 21.4891 14.4162C21.4624 14.3695 21.4013 14.3773 21.3291 14.4042C21.4628 14.328 21.5574 14.2158 21.5001 14.0521C21.6375 14.0673 21.7091 13.9958 21.7811 13.924C21.8652 13.8401 21.9498 13.7558 22.1401 13.8093C21.9415 13.5776 21.5442 13.5886 21.3457 13.7431C21.1139 13.6659 20.8712 13.8645 20.9263 14.1293C20.7498 14.0521 20.5512 14.1955 20.5621 14.3941C20.4519 14.361 20.2974 14.4162 20.2201 14.5707C20.0768 14.4162 19.9223 14.3941 19.7787 14.4162C19.6132 14.2397 19.4587 14.1955 19.2712 14.2838C19.2161 14.2176 19.0616 14.1955 18.9512 14.2507C18.9071 14.1293 18.6865 13.9859 18.532 14.041C18.5262 13.98 18.5246 13.9259 18.5264 13.8776L18.532 13.8755L18.5275 13.8551C18.5406 13.6397 18.623 13.5452 18.6975 13.4673C18.8358 13.3226 18.877 13.2374 18.9218 13.1447C18.9556 13.0748 18.9914 13.0006 19.0726 12.8935C19.2755 12.6257 19.4097 12.3012 19.4809 11.9618C19.4829 11.9543 19.4848 11.9468 19.4864 11.939L19.4852 11.9403C19.5161 11.7869 19.5342 11.6306 19.5399 11.4753C19.5408 11.4691 19.5413 11.4628 19.5416 11.4563L19.5405 11.4578C19.5441 11.3416 19.5408 11.2261 19.5308 11.1127C19.6376 11.0321 19.7608 10.9739 19.8838 10.95L19.8836 10.957L19.8907 10.9487C20.0218 10.9246 20.1522 10.9398 20.2617 11.0088C20.3068 11.1882 20.2676 11.4366 20.0271 11.5087C20.176 11.6025 20.3966 11.5142 20.518 11.3101C20.336 11.7129 20.4573 12.077 20.7442 12.1487C20.6687 11.9946 20.7272 11.8851 20.7793 11.7878C20.8223 11.7074 20.8609 11.6352 20.816 11.5529C20.9981 11.6301 21.1581 11.8784 21.1525 12.0328C21.2899 11.8794 21.209 11.6965 21.1315 11.5214C21.0875 11.422 21.0447 11.3253 21.0435 11.2379C21.2932 11.2568 21.5464 11.2271 21.7208 11.106L21.8065 11.0464C21.946 10.9491 22.0574 10.8714 22.1515 10.8158L22.1511 10.8191C22.1556 10.8156 22.1598 10.8121 22.1638 10.8086C22.248 10.7599 22.3183 10.7294 22.383 10.7191L22.3828 10.7198L22.3879 10.7188L22.3922 10.7177C22.4231 10.7136 22.4527 10.7143 22.4821 10.7198C22.6146 10.9184 22.7745 11.0122 22.9732 11.0287C23.0339 11.0949 23.2491 11.1501 23.3705 11.1336C23.547 11.1777 23.7622 11.1225 23.9331 10.9349C24.198 10.9736 24.4462 10.775 24.54 10.477C24.8213 10.4439 24.8379 10.1295 24.6614 9.91981C24.6068 9.9089 24.584 9.84103 24.5565 9.7589C24.5102 9.62094 24.4503 9.44272 24.2037 9.42657C24.1691 9.03637 23.8413 8.73037 23.4421 8.73037C23.0197 8.73037 22.6774 9.07275 22.6774 9.49499C22.6774 9.5528 22.6839 9.60912 22.696 9.66326C22.675 9.58034 22.6665 9.48835 22.6807 9.38465C22.5484 9.52809 22.438 9.72671 22.3719 9.87016C22.2081 9.7581 21.8558 9.86151 21.5937 9.93843C21.5203 9.95998 21.4539 9.97945 21.4008 9.99152C21.3405 10.0052 21.2447 10.0074 21.132 9.99977L21.1305 9.99705L21.121 9.999C20.7805 9.97441 20.2934 9.86334 20.1539 9.71568C19.9664 9.51707 19.6022 9.39569 19.2602 9.29639C19.1878 9.27537 19.1265 9.2454 19.0726 9.20844L19.0726 9.20811L19.0725 9.20839C18.9392 9.11692 18.8516 8.98266 18.7555 8.83542C18.7341 8.80254 18.7122 8.76901 18.6893 8.73517C18.7152 8.74041 18.7406 8.74599 18.7655 8.75147L18.7656 8.75149L18.7658 8.75152L18.7659 8.75155L18.766 8.75158L18.7661 8.7516L18.7662 8.75162L18.7663 8.75164L18.7664 8.75166C18.8674 8.77388 18.9601 8.79426 19.0426 8.78241C19.0819 8.80582 19.1247 8.82657 19.1718 8.84398C19.3939 8.92603 19.5283 9.05875 19.6439 9.17288C19.7926 9.31966 19.9101 9.43569 20.1429 9.37363C19.9517 9.32174 19.862 9.18603 19.7712 9.04882C19.6786 8.90884 19.585 8.7673 19.3816 8.71158C19.3311 8.69773 19.2839 8.67711 19.2394 8.65119C19.4275 8.40991 19.7176 8.32681 19.9443 8.39159C20.223 8.47125 20.4199 8.45472 20.5751 8.36446C20.9015 8.40478 21.1942 8.60416 21.4008 8.89916C21.43 8.94078 21.4721 8.9777 21.5224 9.00901C21.4506 9.04279 21.4001 9.11084 21.35 9.17833C21.2833 9.26824 21.2173 9.35714 21.1029 9.36259C21.3294 9.48368 21.5117 9.39458 21.6576 9.2539C21.5992 9.42392 21.6393 9.61247 21.8422 9.68258C21.7485 9.55343 21.8359 9.46079 21.9219 9.36973C21.9513 9.33853 21.9806 9.30753 22.0023 9.2753C22.0236 9.31874 22.0571 9.35551 22.0898 9.3913C22.156 9.46383 22.2184 9.5323 22.1676 9.64396C22.4001 9.59113 22.4454 9.16915 22.2551 9.02677C22.3445 8.93305 22.3589 8.78719 22.289 8.68725C22.2338 8.56866 22.1235 8.4576 21.9827 8.41938C22.0589 8.35157 22.1383 8.30437 22.2135 8.26509C22.3215 8.30897 22.4181 8.3545 22.5021 8.40261L22.5202 8.41279L22.5262 8.44124L22.5313 8.46435C22.5707 8.64218 22.6314 8.91687 22.5152 9.19156C22.7286 9.03611 22.7317 8.77808 22.7345 8.55203L22.7352 8.50563C23.0646 8.61591 23.4816 8.62947 23.856 8.52399C24.3259 8.39159 25.2321 8.27021 25.1874 8.85502C25.4338 8.56261 25.1203 8.24813 24.4937 8.19297C24.505 7.90608 24.198 7.64677 23.9772 7.81781C24.1814 7.79023 24.3576 8.17091 23.9549 8.32537C24.0332 8.03849 23.7479 7.77919 23.4514 7.90608C23.6416 7.96125 23.834 8.28022 23.4084 8.40261C23.3265 8.42619 23.233 8.43332 23.1345 8.42682C23.1294 8.29621 23.1868 8.17079 23.2449 8.04373C23.3422 7.83112 23.4416 7.61391 23.2539 7.36007C23.351 7.35232 23.3869 7.26685 23.2283 7.18918L23.2284 7.18791C23.3821 7.23747 23.4933 7.12545 23.2799 7.02664C23.4029 7.0716 23.5033 7.01281 23.4408 6.93708C23.7286 6.9326 24.2778 6.77018 24.5014 6.60406C24.6801 6.47131 24.9663 6.47086 25.2381 6.47044C25.5537 6.46995 25.8499 6.46948 25.9359 6.262C25.675 6.34577 25.4763 6.30077 25.2801 6.25631C25.0241 6.1983 24.7721 6.14121 24.391 6.37234C24.2793 6.44013 24.1645 6.44345 24.0404 6.44703C23.996 6.44831 23.9503 6.44963 23.9033 6.45395C24.0318 6.39528 24.14 6.29193 24.2587 6.15166C24.3604 6.03149 24.5172 5.98973 24.6704 5.94893C24.883 5.89233 25.0887 5.83758 25.1303 5.57788C24.9263 5.7329 24.7036 5.71096 24.5024 5.69115C24.2955 5.67077 24.1113 5.65263 23.9938 5.83167C23.9499 5.89852 23.889 5.94012 23.8187 5.98813C23.7965 6.00329 23.7734 6.01909 23.7496 6.03653C23.8063 5.75997 23.8925 5.61974 23.9632 5.50479C24.0382 5.38298 24.0956 5.28955 24.082 5.09238C24.0589 4.7565 24.2287 4.5817 24.3722 4.434C24.5022 4.30027 24.6106 4.18875 24.5346 4C24.5141 4.16287 24.2873 4.32573 24.1569 4.41929L24.1263 4.44137C23.9395 4.57723 23.9244 4.70343 23.9081 4.8391C23.8916 4.97695 23.874 5.12458 23.6738 5.30204C23.4188 5.52811 23.4165 5.67501 23.4142 5.82431C23.4125 5.93217 23.4108 6.04129 23.3138 6.18243C23.2171 6.1734 23.1133 6.20842 23.0225 6.25115C22.9692 6.14015 22.8244 6.14494 22.6142 6.2529ZM22.5124 7.61228C22.5384 7.62357 22.5646 7.63289 22.5908 7.64029C22.5536 7.6791 22.5359 7.72597 22.5172 7.77533C22.481 7.87081 22.4413 7.97564 22.2505 8.04953C22.2307 8.05719 22.2112 8.06542 22.1922 8.07418C21.8598 7.92834 21.3402 7.73746 21.0514 7.70079L21.0587 7.6854C21.1924 7.40132 21.3947 7.27584 21.6327 7.26892C21.6759 7.36816 21.7068 7.52867 21.6656 7.62471C21.7605 7.56779 21.8921 7.43339 21.9586 7.32319C22.034 7.34846 22.1111 7.38208 22.1892 7.42308C22.231 7.52001 22.2061 7.63911 22.085 7.70746C22.199 7.70746 22.3826 7.70746 22.5124 7.61228ZM23.5986 6.50914C23.598 6.54452 23.5955 6.57757 23.5913 6.60894C23.6252 6.57016 23.6585 6.53712 23.6913 6.50894C23.6614 6.51176 23.6305 6.51185 23.5986 6.50914ZM18.4289 7.78199C18.4404 7.76244 18.4536 7.74147 18.4676 7.72012C18.6209 7.78142 18.8026 7.83599 19.0285 7.83988C18.9302 7.93366 18.7922 7.95334 18.6422 7.96987C18.5756 7.89015 18.5062 7.82325 18.4289 7.78199ZM18.8154 8.20114C18.8928 8.30952 18.9729 8.42003 19.0641 8.51191C19.2461 8.49544 19.3007 8.39097 19.3513 8.29428C19.3882 8.22369 19.4229 8.15724 19.5035 8.13221L19.525 8.12677C19.5175 8.12827 19.5103 8.13009 19.5035 8.13221C19.1714 8.21534 18.975 8.21649 18.8154 8.20114ZM18.6579 8.36096C18.7032 8.43003 18.7492 8.50025 18.8021 8.56625C18.7833 8.57595 18.7671 8.58643 18.7502 8.59733C18.72 8.61681 18.6878 8.63761 18.6351 8.65769C18.5554 8.54802 18.4603 8.4377 18.33 8.33774C18.3254 8.2835 18.3245 8.22871 18.3277 8.17318C18.4005 8.16518 18.4637 8.16477 18.5227 8.16823C18.5707 8.22816 18.614 8.29402 18.6579 8.36096ZM18.3861 8.02689C18.3755 8.01959 18.3648 8.01239 18.354 8.00529L18.3476 8.03694L18.3861 8.02689ZM19.6333 5.52679L19.6333 5.5268L19.6333 5.52681C19.68 5.55519 19.7275 5.58406 19.776 5.61175C19.6672 5.64239 19.5671 5.65744 19.4734 5.66296C19.2725 5.41997 19.0284 5.19197 18.7916 5.02956C18.8061 5.01447 18.8226 5.00062 18.841 4.98816C18.8894 5.02605 18.9363 5.06435 18.9823 5.1019C19.1218 5.21582 19.2528 5.32279 19.3926 5.3903C19.4711 5.42821 19.551 5.47675 19.6333 5.52679ZM19.0916 5.55124L19.0916 5.55123C19.0475 5.48112 18.9963 5.39961 18.8851 5.32961C18.8195 5.28834 18.762 5.24199 18.7076 5.19456C18.6808 5.3186 18.7035 5.46997 18.7468 5.61895C18.8482 5.6148 18.9498 5.62711 19.0572 5.64011C19.0929 5.64444 19.1293 5.64885 19.1666 5.65275C19.1379 5.62491 19.1158 5.5898 19.0916 5.55124ZM17.7649 5.45481C17.9957 5.52592 18.1573 5.68008 18.2675 5.80639C18.2575 5.81429 18.2475 5.8225 18.2375 5.83103C18.0507 5.73987 17.8019 5.62766 17.5556 5.54725C17.6012 5.51286 17.6693 5.48162 17.7649 5.45481ZM18.0451 5.97467C17.8583 5.82972 17.6644 5.72538 17.4816 5.65466C17.4576 5.79065 17.6442 5.9496 17.8316 6.07848C17.8771 6.02637 17.9533 5.98479 18.0451 5.97467ZM22.3977 8.17088C22.4449 8.14408 22.4858 8.11538 22.5171 8.07916C22.5041 8.11852 22.4966 8.1662 22.4977 8.22761C22.4841 8.21991 22.4706 8.21204 22.4574 8.20401C22.4414 8.19428 22.4213 8.18315 22.3977 8.17088ZM22.745 8.34107C22.838 8.37479 22.9335 8.40007 23.0267 8.41469C22.9492 8.24738 22.9559 7.99914 23.006 7.83037C23.0102 7.8187 23.014 7.80714 23.0173 7.79574C23.0133 7.80685 23.0096 7.81841 23.006 7.83037C22.9617 7.95433 22.8727 8.09117 22.8021 8.18193C22.7701 8.22307 22.7537 8.27778 22.745 8.34107ZM22.0044 8.18685C21.9298 8.24394 21.8673 8.30961 21.8212 8.37942C21.751 8.34835 21.6937 8.29866 21.6392 8.25151C21.5677 8.18957 21.5012 8.13201 21.4174 8.12677C21.3379 8.12179 21.2706 8.04741 21.1986 7.96766L21.1986 7.96765L21.1792 7.94627C21.4909 8.02699 21.7683 8.10489 22.0044 8.18685ZM17.1947 5.08776C17.2657 5.11127 17.3338 5.14076 17.3954 5.17515C17.514 5.2413 17.6256 5.2722 17.7396 5.30375C17.9042 5.3493 18.0737 5.39622 18.2761 5.55253C17.84 5.11355 17.4669 4.95863 17.1947 5.08776ZM20.7491 15.8756C20.7491 15.9096 20.7509 15.9432 20.7544 15.9762C20.7417 15.9088 20.7056 15.8474 20.6284 15.8065C20.7498 15.6742 20.9043 15.4093 20.849 15.2548C20.9102 15.2548 20.9688 15.2391 21.0221 15.2115C20.8533 15.3821 20.7491 15.6167 20.7491 15.8756ZM21.1683 15.0907C21.2552 15.0324 21.3522 14.9883 21.4562 14.9614C21.3839 14.9585 21.3157 14.9379 21.2684 14.8907C21.2501 14.9641 21.2151 15.033 21.1683 15.0907ZM23.1906 10.2174C23.2421 10.2353 23.2961 10.2478 23.3519 10.2544C23.3275 10.2736 23.3056 10.2964 23.2876 10.3225C23.2675 10.287 23.2331 10.251 23.1906 10.2174ZM22.9615 10.0898C22.8904 10.0323 22.8298 9.96228 22.7831 9.88312C22.8003 9.92912 22.8077 10.0104 22.8077 10.0522C22.8528 10.0554 22.9065 10.069 22.9615 10.0898ZM23.9144 10.0964C24.0337 10.0026 24.1244 9.87399 24.1712 9.72591C24.1724 9.73872 24.1735 9.75154 24.1745 9.76432C24.1834 9.87293 24.1921 9.97852 24.2918 10.0467C24.1618 10.0467 23.9979 10.0965 23.9354 10.2659C23.9493 10.194 23.9351 10.1366 23.9144 10.0964ZM23.9194 10.3225C23.9235 10.3023 23.9289 10.2835 23.9354 10.2659C23.9319 10.2839 23.9267 10.3028 23.9194 10.3225Z" fill="white"/>
</svg>
