<svg width="32" height="24" viewBox="0 0 32 24" fill="none" xmlns="http://www.w3.org/2000/svg">
<g clip-path="url(#clip0_392_35604)">
<rect width="32" height="24" rx="1" fill="white"/>
<path d="M-2 0H34V24H-2V0Z" fill="#003E87"/>
<path d="M16.3445 20.3786C20.9617 20.3786 24.7047 16.6352 24.7047 12.0176C24.7047 7.39995 20.9617 3.65662 16.3445 3.65662C11.7273 3.65662 7.98438 7.39995 7.98438 12.0176C7.98438 16.6352 11.7273 20.3786 16.3445 20.3786Z" fill="white"/>
<path fill-rule="evenodd" clip-rule="evenodd" d="M16.4149 6.15879C13.0941 6.15879 10.402 8.85114 10.402 12.1723C10.402 15.4935 13.0941 18.1859 16.4149 18.1859C19.7358 18.1859 22.4279 15.4935 22.4279 12.1723C22.4279 8.85114 19.7358 6.15879 16.4149 6.15879ZM9.13882 12.1723C9.13882 8.15345 12.3965 4.89551 16.4149 4.89551C20.4334 4.89551 23.691 8.15345 23.691 12.1723C23.691 16.1912 20.4334 19.4492 16.4149 19.4492C12.3965 19.4492 9.13882 16.1912 9.13882 12.1723Z" fill="#6DA544"/>
<path d="M16.4151 10.6532L12.8573 12.2985V13.7048C12.8573 14.5344 13.2862 15.3079 13.9963 15.7368L16.4221 16.8055L18.8479 15.7368C19.551 15.3009 19.987 14.5344 19.987 13.7048V12.2985L16.4151 10.6532Z" fill="#003E87"/>
<path fill-rule="evenodd" clip-rule="evenodd" d="M16.415 10.6145L20.0219 12.276V13.7047C20.0219 14.5468 19.5795 15.3244 18.8663 15.7666L18.8642 15.7679L16.422 16.8438L13.98 15.7679L13.9781 15.7668C13.2572 15.3314 12.8221 14.5465 12.8221 13.7047V12.276L16.415 10.6145ZM16.415 10.6918L12.8923 12.3209V13.7047C12.8923 14.5216 13.3141 15.2829 14.0125 15.7055L16.422 16.7671L18.8314 15.7056C19.5232 15.2757 19.9518 14.5212 19.9518 13.7047V12.3209L16.415 10.6918Z" fill="black"/>
<path d="M12.8573 9.00787H19.9799V12.2915H12.8573V9.00787Z" fill="#FFDA44"/>
<path fill-rule="evenodd" clip-rule="evenodd" d="M12.822 8.97278H20.0148V12.3265H12.822V8.97278ZM12.8922 9.04295V12.2564H19.9446V9.04295H12.8922Z" fill="black"/>
<path d="M-2 0H34V2.46118H-2V0ZM-2 21.5177H34V23.9789H-2V21.5177Z" fill="#CE1127"/>
<path opacity="0.2" fill-rule="evenodd" clip-rule="evenodd" d="M31 0H1C0.447715 0 0 0.447715 0 1V23C0 23.5523 0.447715 24 1 24H31C31.5523 24 32 23.5523 32 23V1C32 0.447715 31.5523 0 31 0ZM1 23V1H31V23H1Z" fill="black"/>
</g>
<defs>
<clipPath id="clip0_392_35604">
<rect width="32" height="24" rx="1" fill="white"/>
</clipPath>
</defs>
</svg>
