<svg width="24" height="16" viewBox="0 0 24 16" fill="none" xmlns="http://www.w3.org/2000/svg"><g clip-path="url(#a)" fill-rule="evenodd" clip-rule="evenodd"><path d="M.75 0h22.5c.414 0 .75.298.75.667v14.666c0 .368-.336.667-.75.667H.75c-.414 0-.75-.299-.75-.667V.667C0 .298.336 0 .75 0Z" fill="#F7F7F7"/><path d="M17.25 0h6c.414 0 .75.298.75.667v14.666c0 .368-.336.667-.75.667h-6V0Zm-4.5 10.333 2.25-1 .75-2.666H13.5L12 4l-1.5 2.667H8.25L9 9.333l2.25 1v1h1.5v-1ZM0 .667C0 .298.336 0 .75 0h6v16h-6c-.414 0-.75-.299-.75-.667V.667Z" fill="#ED2939"/><path opacity=".2" d="M23.25 0H.75C.336 0 0 .298 0 .667v14.666c0 .368.336.667.75.667h22.5c.414 0 .75-.299.75-.667V.667C24 .298 23.664 0 23.25 0ZM.75 15.333V.667h22.5v14.666H.75Z" fill="#000"/></g><defs><clipPath id="a"><path fill="#fff" d="M0 0h24v16H0z"/></clipPath></defs></svg>