<svg width="24" height="16" viewBox="0 0 24 16" fill="none" xmlns="http://www.w3.org/2000/svg"><path fill-rule="evenodd" clip-rule="evenodd" d="M4.889 0H19.11c.491 0 .889.398.889.889V15.11a.889.889 0 0 1-.889.889H4.89a.889.889 0 0 1-.89-.888V.89A.89.89 0 0 1 4.889 0Z" fill="#D52B1E"/><path fill-rule="evenodd" clip-rule="evenodd" d="M13 7V4h-2v3H8v2h3v3h2V9h3V7h-3Z" fill="#fff"/><path opacity=".2" fill-rule="evenodd" clip-rule="evenodd" d="M19.111 0H4.89A.889.889 0 0 0 4 .889V15.11c0 .491.398.889.889.889H19.11a.889.889 0 0 0 .889-.889V.89a.889.889 0 0 0-.888-.89ZM4.89 15.111V.89h14.22v14.22H4.89Z" fill="#000"/></svg>