<svg width="20" height="15" viewBox="0 0 20 15" fill="none" xmlns="http://www.w3.org/2000/svg"><path fill-rule="evenodd" clip-rule="evenodd" d="M.833 0h18.334c.46 0 .833.373.833.833v13.334c0 .46-.373.833-.833.833H.833A.833.833 0 0 1 0 14.167V.833C0 .373.373 0 .833 0Z" fill="#012B7F"/><path fill-rule="evenodd" clip-rule="evenodd" d="M0 2.5h20v10H0v-10Z" fill="#F7F7F7"/><path fill-rule="evenodd" clip-rule="evenodd" d="M0 4.375h20v6.25H0v-6.25Z" fill="#CE1127"/><path fill-rule="evenodd" clip-rule="evenodd" d="M5.833 9.167a1.667 1.667 0 1 0 0-3.334 1.667 1.667 0 0 0 0 3.334Z" fill="#F7F7F7"/><path opacity=".2" fill-rule="evenodd" clip-rule="evenodd" d="M19.167 0H.833A.833.833 0 0 0 0 .833v13.334c0 .46.373.833.833.833h18.334c.46 0 .833-.373.833-.833V.833A.833.833 0 0 0 19.167 0ZM.833 14.167V.833h18.334v13.334H.833Z" fill="#000"/></svg>