<svg width="20" height="15" viewBox="0 0 20 15" fill="none" xmlns="http://www.w3.org/2000/svg"><path fill-rule="evenodd" clip-rule="evenodd" d="M.833 0h18.334c.46 0 .833.373.833.833v13.334c0 .46-.373.833-.833.833H.833A.833.833 0 0 1 0 14.167V.833C0 .373.373 0 .833 0Z" fill="#F7F7F7"/><path fill-rule="evenodd" clip-rule="evenodd" d="M7.977 11.695a6.734 6.734 0 0 1-1.462-.73c-.587-.391-1.042-.847-1.31-1.38a.469.469 0 1 1 .84-.42c.182.367.527.711.99 1.02a5.815 5.815 0 0 0 1.238.62.469.469 0 1 1-.296.89Zm4.046 0a.469.469 0 1 1-.296-.89 5.816 5.816 0 0 0 1.238-.62c.463-.309.808-.653.99-1.02a.469.469 0 0 1 .84.42c-.268.533-.723.989-1.31 1.38a6.732 6.732 0 0 1-1.462.73Zm-2.648-.445a.625.625 0 1 0 1.25 0 .625.625 0 0 0-1.25 0Z" fill="#445128"/><path fill-rule="evenodd" clip-rule="evenodd" d="M15.076 2.5c.303 0 .437.22.3.494l-.215.424a1.942 1.942 0 0 1-.75.74l-.43.213c-.275.136-.68.425-.89.633l.067-.066c-.215.213-.167.496.11.633l.429.212c.276.136.276.357 0 .493l-.43.213a2.792 2.792 0 0 1-1.048.246h.383c-.303 0-.729.179-.939.386l.067-.066a4.091 4.091 0 0 1-.89.633l-.43.212a2.792 2.792 0 0 1-1.048.247h.383c-.303 0-.729.178-.94.386l.068-.066a.98.98 0 0 1-.92.212l-1.084-.357a1.541 1.541 0 0 1-.78-.668l-.214-.425a2.783 2.783 0 0 1-.25-1.05v.407c0-.307.223-.667.5-.803l.429-.212a2.792 2.792 0 0 1 1.048-.247H7.22c.303 0 .66-.221.799-.494l.214-.424c.138-.273.496-.494.813-.494h3.16c.31 0 .786-.11 1.063-.247l.429-.212c.276-.137.68-.425.89-.633l-.067.066a1.53 1.53 0 0 1 .94-.386h-.384Z" fill="#E7832C"/><path opacity=".2" fill-rule="evenodd" clip-rule="evenodd" d="M19.167 0H.833A.833.833 0 0 0 0 .833v13.334c0 .46.373.833.833.833h18.334c.46 0 .833-.373.833-.833V.833A.833.833 0 0 0 19.167 0ZM.833 14.167V.833h18.334v13.334H.833Z" fill="#000"/></svg>