<svg width="18" height="12" viewBox="0 0 18 12" fill="none" xmlns="http://www.w3.org/2000/svg"><path fill-rule="evenodd" clip-rule="evenodd" d="M.563 3.75h16.875c.31 0 .562.084.562.188v4.124c0 .104-.252.188-.563.188H.563C.253 8.25 0 8.166 0 8.062V3.939c0-.104.252-.188.563-.188Z" fill="#ED2939"/><path fill-rule="evenodd" clip-rule="evenodd" d="M0 8h18v3a1 1 0 0 1-1 1H1a1 1 0 0 1-1-1V8Z" fill="#FFCE00"/><path fill-rule="evenodd" clip-rule="evenodd" d="M0 1a1 1 0 0 1 1-1h16a1 1 0 0 1 1 1v3H0V1Z" fill="#000"/><path opacity=".2" fill-rule="evenodd" clip-rule="evenodd" d="M17.438 0H.563C.252 0 0 .224 0 .5v11c0 .276.252.5.563.5h16.875c.31 0 .562-.224.562-.5V.5c0-.276-.252-.5-.563-.5ZM.563 11.5V.5h16.875v11H.563Z" fill="#000"/></svg>