<svg width="32" height="24" viewBox="0 0 32 24" fill="none" xmlns="http://www.w3.org/2000/svg">
<g clip-path="url(#clip0_392_35596)">
<path d="M0 1H32V22.6216H0V1Z" fill="white"/>
<path d="M0 0H16V24H0V0Z" fill="#006233"/>
<path d="M20.6223 9.1081C20.0353 8.0776 19.1292 7.27222 18.0445 6.81686C16.9598 6.3615 15.7572 6.28161 14.6231 6.58958C13.4891 6.89755 12.487 7.57618 11.7723 8.5202C11.0576 9.46422 10.6702 10.6209 10.6702 11.8108C10.6702 13.0007 11.0576 14.1574 11.7723 15.1014C12.487 16.0454 13.4891 16.7241 14.6231 17.032C15.7572 17.34 16.9598 17.2601 18.0445 16.8047C19.1292 16.3494 20.0353 15.544 20.6223 14.5135C20.0698 15.2129 19.3166 15.7211 18.4669 15.9679C17.6171 16.2146 16.7126 16.1878 15.8786 15.8911C15.0445 15.5944 14.3219 15.0424 13.8107 14.3115C13.2995 13.5805 13.025 12.7067 13.025 11.8108C13.025 10.9149 13.2995 10.0411 13.8107 9.31014C14.3219 8.57921 15.0445 8.02725 15.8786 7.73053C16.7126 7.43381 17.6171 7.40698 18.4669 7.65375C19.3166 7.90053 20.0698 8.40872 20.6223 9.1081ZM20.8001 11.8108L16.0001 10.2252L18.9867 14.3694V9.25224L16.0001 13.3964L20.8001 11.8108Z" fill="#D21034"/>
<path opacity="0.2" fill-rule="evenodd" clip-rule="evenodd" d="M31 0H1C0.447715 0 0 0.447715 0 1V23C0 23.5523 0.447715 24 1 24H31C31.5523 24 32 23.5523 32 23V1C32 0.447715 31.5523 0 31 0ZM1 23V1H31V23H1Z" fill="black"/>
</g>
<defs>
<clipPath id="clip0_392_35596">
<rect width="32" height="24" rx="1" fill="white"/>
</clipPath>
</defs>
</svg>
