<svg width="24" height="16" viewBox="0 0 24 16" fill="none" xmlns="http://www.w3.org/2000/svg"><path fill-rule="evenodd" clip-rule="evenodd" d="M1 0h22c.552 0 1 .398 1 .889V15.11c0 .491-.448.889-1 .889H1c-.552 0-1-.398-1-.889V.89C0 .398.448 0 1 0Z" fill="#FFC400"/><path fill-rule="evenodd" clip-rule="evenodd" d="M0 11.556h24V15a1 1 0 0 1-1 1H1a1 1 0 0 1-1-1v-3.444ZM0 1a1 1 0 0 1 1-1h22a1 1 0 0 1 1 1v3.444H0V1Z" fill="#C60B1E"/><path fill-rule="evenodd" clip-rule="evenodd" d="M6 6.222h3c.552 0 1 .398 1 .89v1.777c0 .49-.448.889-1 .889H6c-.552 0-1-.398-1-.89V7.112c0-.49.448-.889 1-.889Z" fill="#91443A"/><path opacity=".2" fill-rule="evenodd" clip-rule="evenodd" d="M23 0H1C.448 0 0 .398 0 .889V15.11c0 .492.448.89 1 .89h22c.552 0 1-.398 1-.889V.89c0-.492-.448-.89-1-.89ZM1 15.111V.89h22v14.22H1Z" fill="#000"/></svg>