<svg width="18" height="12" viewBox="0 0 18 12" fill="none" xmlns="http://www.w3.org/2000/svg"><path fill-rule="evenodd" clip-rule="evenodd" d="M6.188 0h5.625c.103 0 .187.224.187.5v11c0 .276-.084.5-.188.5H6.189C6.083 12 6 11.776 6 11.5V.5c0-.276.084-.5.188-.5Z" fill="#F7F7F7"/><path fill-rule="evenodd" clip-rule="evenodd" d="M11.813 0H17a1 1 0 0 1 1 1v10a1 1 0 0 1-1 1h-5.188V0Z" fill="#ED2939"/><path fill-rule="evenodd" clip-rule="evenodd" d="M0 1a1 1 0 0 1 1-1h5.188v12H1a1 1 0 0 1-1-1V1Z" fill="#002395"/><path opacity=".2" fill-rule="evenodd" clip-rule="evenodd" d="M17.438 0H.563C.252 0 0 .224 0 .5v11c0 .276.252.5.563.5h16.875c.31 0 .562-.224.562-.5V.5c0-.276-.252-.5-.563-.5ZM.563 11.5V.5h16.875v11H.563Z" fill="#000"/></svg>