<svg width="32" height="24" viewBox="0 0 32 24" fill="none" xmlns="http://www.w3.org/2000/svg">
<path fill-rule="evenodd" clip-rule="evenodd" d="M1 0H31C31.5523 0 32 0.447715 32 1V23C32 23.5523 31.5523 24 31 24H1C0.447715 24 0 23.5523 0 23V1C0 0.447715 0.447715 0 1 0Z" fill="#273C83"/>
<path fill-rule="evenodd" clip-rule="evenodd" d="M2.30202 0H1C0.447715 0 0 0.447715 0 1V4.46687L11.9098 12.2012L0 19.9355L0 23C0 23.5523 0.447715 24 1 24H2.92161L16.5 15.1821L30.0784 24H31C31.5523 24 32 23.5523 32 23V19.2861L21.0902 12.2012L32 5.11628V1C32 0.447715 31.5523 0 31 0H30.698L16.5 9.22028L2.30202 0Z" fill="#F7F7F7"/>
<path fill-rule="evenodd" clip-rule="evenodd" d="M32 1.26771V3.65243L18.3361 12.5259L32 21.3993V23C32 23.2415 31.9144 23.4631 31.7718 23.6359L16.5 13.7183L0.726011 23.962C0.306928 23.8429 0 23.4573 0 23V22.0487L14.6639 12.5259L0 3.00303L0 0.999999C0 0.879654 0.0212585 0.764274 0.0602251 0.65741L16.5 11.3335L32 1.26771Z" fill="#DC1E35"/>
<path fill-rule="evenodd" clip-rule="evenodd" d="M20 8V0H12V8H0V16H12V24H20V16H32V8H20Z" fill="#F7F7F7"/>
<path fill-rule="evenodd" clip-rule="evenodd" d="M18 10H32V14H18V24H14V14H0V10H14V0H18V10Z" fill="#DC1E35"/>
<path opacity="0.2" fill-rule="evenodd" clip-rule="evenodd" d="M31 0H1C0.447715 0 0 0.447715 0 1V23C0 23.5523 0.447715 24 1 24H31C31.5523 24 32 23.5523 32 23V1C32 0.447715 31.5523 0 31 0ZM1 23V1H31V23H1Z" fill="black"/>
</svg>
