<svg width="20" height="15" viewBox="0 0 20 15" fill="none" xmlns="http://www.w3.org/2000/svg"><path fill-rule="evenodd" clip-rule="evenodd" d="M.833 0h18.334c.46 0 .833.373.833.833v13.334c0 .46-.373.833-.833.833H.833A.833.833 0 0 1 0 14.167V.833C0 .373.373 0 .833 0Z" fill="#F7F7F7"/><path fill-rule="evenodd" clip-rule="evenodd" d="M10.833 6.667V0H9.167v6.667H0v1.666h9.167V15h1.666V8.333H20V6.667h-9.167Z" fill="red"/><path fill-rule="evenodd" clip-rule="evenodd" d="M5.833 3.75a1.25 1.25 0 1 1-2.5 0 1.25 1.25 0 0 1 2.5 0Zm10.834 0a1.25 1.25 0 1 1-2.5 0 1.25 1.25 0 0 1 2.5 0ZM4.583 12.5a1.25 1.25 0 1 0 0-2.5 1.25 1.25 0 0 0 0 2.5Zm12.084-1.25a1.25 1.25 0 1 1-2.5 0 1.25 1.25 0 0 1 2.5 0Z" fill="red"/><path opacity=".2" fill-rule="evenodd" clip-rule="evenodd" d="M19.167 0H.833A.833.833 0 0 0 0 .833v13.334c0 .46.373.833.833.833h18.334c.46 0 .833-.373.833-.833V.833A.833.833 0 0 0 19.167 0ZM.833 14.167V.833h18.334v13.334H.833Z" fill="#000"/></svg>