<svg width="32" height="24" viewBox="0 0 32 24" fill="none" xmlns="http://www.w3.org/2000/svg">
<path fill-rule="evenodd" clip-rule="evenodd" d="M1 0H31C31.5523 0 32 0.447715 32 1V23C32 23.5523 31.5523 24 31 24H1C0.447715 24 0 23.5523 0 23V1C0 0.447715 0.447715 0 1 0Z" fill="white"/>
<path fill-rule="evenodd" clip-rule="evenodd" d="M0 1C0 0.447716 0.447715 0 1 0H9V24H1C0.447715 24 0 23.5523 0 23V1Z" fill="#4698D2"/>
<path fill-rule="evenodd" clip-rule="evenodd" d="M31.1 0C31.5971 0 32 0.447715 32 1V23C32 23.5523 31.5523 24 31 24H23V0H31.1Z" fill="#4698D2"/>
<path opacity="0.2" fill-rule="evenodd" clip-rule="evenodd" d="M31 0H1C0.447715 0 0 0.447715 0 1V23C0 23.5523 0.447715 24 1 24H31C31.5523 24 32 23.5523 32 23V1C32 0.447715 31.5523 0 31 0ZM1 23V1H31V23H1Z" fill="black"/>
<path fill-rule="evenodd" clip-rule="evenodd" d="M13.4938 16.7571C13.3726 16.7131 13.1725 16.6302 12.9191 16.5077C12.499 16.3046 12.0787 16.0608 11.6832 15.774C10.956 15.2467 10.3919 14.6332 10.0614 13.9141C9.91802 13.6022 10.0343 13.2228 10.3211 13.0668C10.6079 12.9108 10.9567 13.0373 11.1001 13.3493C11.327 13.8428 11.7539 14.3072 12.3273 14.723C12.6633 14.9667 13.0269 15.1776 13.3907 15.3534C13.6076 15.4583 13.7733 15.527 13.8611 15.5588C14.1653 15.6691 14.3297 16.0267 14.2283 16.3576C14.1269 16.6885 13.7981 16.8674 13.4938 16.7571ZM18.5062 16.7571C18.2019 16.8674 17.8731 16.6885 17.7717 16.3576C17.6703 16.0267 17.8347 15.6691 18.1389 15.5588C18.2267 15.527 18.3924 15.4583 18.6093 15.3534C18.9731 15.1776 19.3367 14.9667 19.6727 14.723C20.2461 14.3072 20.673 13.8428 20.8999 13.3493C21.0433 13.0373 21.3921 12.9108 21.6789 13.0668C21.9657 13.2228 22.082 13.6022 21.9386 13.9141C21.6081 14.6332 21.044 15.2467 20.3168 15.774C19.9213 16.0608 19.501 16.3046 19.0809 16.5077C18.8275 16.6302 18.6274 16.7131 18.5062 16.7571ZM15 16C15 16.5523 15.4477 17 16 17C16.5523 17 17 16.5523 17 16C17 15.4477 16.5523 15 16 15C15.4477 15 15 15.4477 15 16Z" fill="#00732F"/>
<path fill-rule="evenodd" clip-rule="evenodd" d="M16 14C17.6569 14 19 12.6569 19 11C19 9.34315 17.6569 8 16 8C14.3431 8 13 9.34315 13 11C13 12.6569 14.3431 14 16 14Z" fill="#DBBF5C"/>
</svg>
