<svg width="32" height="24" viewBox="0 0 32 24" fill="none" xmlns="http://www.w3.org/2000/svg">
<path fill-rule="evenodd" clip-rule="evenodd" d="M1 0H31C31.5523 0 32 0.447715 32 1V23C32 23.5523 31.5523 24 31 24H1C0.447715 24 0 23.5523 0 23V1C0 0.447715 0.447715 0 1 0Z" fill="#C62139"/>
<path opacity="0.2" fill-rule="evenodd" clip-rule="evenodd" d="M31 0H1C0.447715 0 0 0.447715 0 1V23C0 23.5523 0.447715 24 1 24H31C31.5523 24 32 23.5523 32 23V1C32 0.447715 31.5523 0 31 0ZM1 23V1H31V23H1Z" fill="black"/>
<rect x="2" y="2" width="28" height="20" fill="#2F4896"/>
<path fill-rule="evenodd" clip-rule="evenodd" d="M15.8987 4.44116C15.8987 4.44116 11.2697 8.12472 11.2697 11.9509C11.2697 15.7771 15.8987 19.5589 15.8987 19.5589C15.8987 19.5589 20.4982 16.053 20.4982 11.9509C20.4982 7.84873 15.8987 4.44116 15.8987 4.44116Z" fill="#92DBFC"/>
<path fill-rule="evenodd" clip-rule="evenodd" d="M11.783 14.2866C12.9878 17.1799 15.8999 19.5589 15.8999 19.5589C15.8999 19.5589 18.8641 17.2996 20.0335 14.2863" fill="#008CE7"/>
<path fill-rule="evenodd" clip-rule="evenodd" d="M20.0482 13.4513C19.3344 13.9619 15.3191 13.7169 15.3191 13.7169L15.0948 14.2885L19.8764 14.3033C19.896 14.225 19.944 14.1318 19.9606 14.0524L20.0482 13.4513Z" fill="#9C8431"/>
<path fill-rule="evenodd" clip-rule="evenodd" d="M12.8629 15.8176C13.0676 15.821 13.2687 15.8716 13.4507 15.9654C13.7758 16.1361 13.9643 16.1346 14.3149 16.1402C14.6814 16.1457 14.9696 16.4158 15.366 16.4269C16.0961 16.4476 16.4031 16.81 15.8352 16.81C15.567 16.81 14.9921 16.6293 14.7143 16.6674C14.2916 16.7102 14.0474 16.7413 13.7348 16.991C13.4222 16.617 13.1311 16.2255 12.8629 15.8184V15.8176ZM14.3075 17.6383C14.4885 17.5142 14.6134 17.4167 14.7878 17.4122C15.1295 17.4019 15.2459 17.1906 15.6405 17.1906C16.089 17.2726 16.6972 17.1366 17.053 17.0575C17.6848 16.912 17.3855 16.4701 17.0027 16.3097C16.6935 16.1771 16.116 16.3031 15.7547 16.1716C15.4828 16.0655 15.707 15.8959 15.8533 15.8601C16.0011 15.8331 16.1592 15.8819 16.3432 15.9115C16.6865 15.9339 17.0312 15.9184 17.3711 15.8653C17.9667 15.774 17.9423 15.5993 18.2293 15.5952C18.4139 15.5903 18.5926 15.5295 18.7418 15.4208C18.9099 15.31 19.085 15.0787 19.2882 15.0883L19.4079 15.0935C18.1518 17.5227 15.898 19.1173 15.898 19.1173C15.898 19.1173 15.1691 18.5594 14.3093 17.6394L14.3075 17.6383Z" fill="#FFDE52"/>
<path fill-rule="evenodd" clip-rule="evenodd" d="M17.1941 15.859C17.2721 16.1601 17.3548 16.2628 17.6715 16.3393C17.9881 16.4158 18.4617 16.1128 18.1658 15.8176C17.8839 15.5435 17.5872 15.4733 17.3349 15.2265C16.9432 14.8382 16.406 14.0357 16.1526 13.2768C15.8733 12.447 15.922 10.1112 15.9346 8.92822C15.9346 8.91455 15.9686 8.90605 15.9716 8.90051C15.9897 8.87464 16.0085 8.909 15.9786 8.73573C15.9712 8.69102 15.9361 8.64521 15.9365 8.60013C15.9365 8.51996 15.6594 8.6877 15.5862 8.83068C15.5696 8.86356 15.6394 8.95667 15.6394 8.97514C15.649 10.1105 15.5267 12.3517 15.8282 13.3662C16.0129 13.9943 16.3551 14.4794 16.6632 14.9283C16.8479 15.2158 17.115 15.5261 17.1952 15.8586L17.1941 15.859Z" fill="#8C4200"/>
<path d="M13.7411 12.5354L13.7097 12.5313C13.6107 12.5183 13.5163 12.481 13.4352 12.4227C13.3792 12.3781 13.3325 12.3229 13.2979 12.2603C13.2632 12.1976 13.2412 12.1288 13.2331 12.0576C13.2265 11.9911 13.2265 11.924 13.2331 11.8574C13.2478 11.7459 13.2917 11.6402 13.3602 11.5511C13.4288 11.4679 13.5234 11.4103 13.6288 11.3878C13.7466 11.36 13.8696 11.3633 13.9857 11.3974C14.0645 11.4215 14.134 11.4694 14.1845 11.5345C14.222 11.5891 14.2489 11.6503 14.2639 11.7148C14.2661 11.725 14.2645 11.7357 14.2595 11.7449C14.2545 11.7541 14.2464 11.7612 14.2366 11.765C14.2299 11.768 14.1967 11.7776 14.1627 11.7868C14.094 11.8053 14.0844 11.806 14.0689 11.7931C14.0533 11.7802 14.0552 11.7776 14.0463 11.7499C14.0398 11.7319 14.0322 11.7142 14.0238 11.697C14.0152 11.6774 14.0026 11.6598 13.9868 11.6453C13.9725 11.6294 13.9548 11.6168 13.9351 11.6084C13.873 11.5793 13.8037 11.5693 13.736 11.5796C13.6813 11.586 13.629 11.6058 13.5838 11.6372C13.5003 11.7 13.4537 11.8241 13.4585 11.9697C13.4648 12.1696 13.5498 12.2797 13.7242 12.3148C13.7713 12.3214 13.8192 12.3214 13.8664 12.3148C13.9268 12.3015 13.9848 12.2789 14.0382 12.2475L14.0537 12.2379V12.1108H13.9163H13.7785L13.77 12.1046C13.7643 12.1004 13.7594 12.0954 13.7552 12.0898C13.7489 12.0813 13.7489 12.0798 13.7489 12.0052C13.7489 11.9305 13.7489 11.9291 13.7552 11.9206C13.7595 11.9149 13.7646 11.9099 13.7703 11.9058L13.7792 11.8995H14.251L14.2591 11.9058C14.265 11.9104 14.2701 11.9159 14.2743 11.922L14.2806 11.932V12.1275C14.2806 12.3358 14.2806 12.344 14.268 12.3591C14.2565 12.3699 14.2441 12.3798 14.2311 12.3887C14.1286 12.467 14.0073 12.517 13.8793 12.5335C13.832 12.5366 13.7845 12.5366 13.7371 12.5335L13.7411 12.5354ZM14.9744 12.5457C14.8694 12.5439 14.7685 12.5045 14.6899 12.4349C14.6231 12.3702 14.5898 12.2893 14.575 12.1544C14.5706 12.1175 14.5706 12.0772 14.5706 11.772C14.5706 11.4436 14.5706 11.4314 14.5765 11.4214C14.5804 11.4147 14.5854 11.4087 14.5913 11.4037L14.6009 11.3967H14.6818C14.7601 11.3967 14.7635 11.3967 14.7749 11.4018C14.7821 11.4056 14.7884 11.411 14.793 11.4177L14.7989 11.4273V11.7802C14.7989 12.0905 14.7989 12.136 14.8041 12.1603C14.8056 12.2044 14.8235 12.2463 14.8543 12.2778C14.8913 12.3148 14.9312 12.3288 15.0051 12.3314C15.0581 12.3362 15.1115 12.3275 15.1603 12.3063C15.2064 12.2837 15.2275 12.2483 15.243 12.167C15.2489 12.1363 15.2489 12.1301 15.2511 11.7835C15.2537 11.3893 15.2511 11.4222 15.2729 11.4059L15.2829 11.3985H15.3668C15.461 11.3985 15.458 11.3985 15.4732 11.4185L15.481 11.4284V11.7414C15.481 12.0587 15.481 12.1252 15.4713 12.1847C15.4532 12.3118 15.4111 12.3924 15.3298 12.4552C15.3098 12.4717 15.2879 12.4857 15.2644 12.4969C15.2196 12.5188 15.1714 12.533 15.1218 12.539C15.0727 12.5438 15.0234 12.5454 14.9741 12.5438L14.9744 12.5457ZM16.0784 12.5287C16.0718 12.5256 16.0658 12.5214 16.0606 12.5161C16.0548 12.5112 16.0505 12.5046 16.0482 12.4973C16.0459 12.49 16.0457 12.4822 16.0477 12.4748C16.0529 12.4544 16.4541 11.4236 16.4586 11.4151C16.4711 11.3985 16.4748 11.3978 16.5694 11.3981C16.664 11.3985 16.6666 11.3981 16.6802 11.4155C16.6836 11.4203 16.7826 11.6601 16.9019 11.949C17.0889 12.4083 17.1158 12.4759 17.1158 12.4881C17.1159 12.4955 17.114 12.5028 17.1104 12.5093C17.1067 12.5157 17.1015 12.5212 17.0951 12.525C17.0863 12.5309 17.0863 12.5309 16.9924 12.5309H16.899L16.8886 12.5228C16.8757 12.5128 16.876 12.5139 16.8147 12.3554C16.787 12.2834 16.7634 12.222 16.7619 12.2195C16.7604 12.2169 16.7478 12.2147 16.5738 12.2143C16.3998 12.2139 16.3891 12.2143 16.3869 12.2187C16.3847 12.2232 16.3621 12.2856 16.3344 12.3617C16.3067 12.4378 16.2816 12.5036 16.2786 12.5095C16.2748 12.5152 16.2701 12.5202 16.2646 12.5243C16.2561 12.5302 16.2546 12.5302 16.1719 12.5305C16.1257 12.5305 16.085 12.5305 16.0813 12.5305L16.0784 12.5287ZM16.6762 12C16.6721 11.9885 16.5731 11.7233 16.5705 11.717C16.5679 11.7107 16.5683 11.717 16.5661 11.7211C16.5616 11.7347 16.46 12.0052 16.4589 12.0078C16.4578 12.0103 16.5077 12.0096 16.5698 12.01H16.6806L16.6762 12ZM17.523 12.5265C17.5164 12.524 17.5104 12.5201 17.5055 12.5149C17.5007 12.5098 17.497 12.5037 17.4949 12.4969C17.4931 12.4899 17.4927 12.3148 17.4949 11.9553V11.424L17.5023 11.4144C17.5163 11.3959 17.5152 11.3959 17.6431 11.3963C17.7498 11.3963 17.7587 11.3963 17.7676 11.4015C17.7735 11.4049 17.7787 11.4096 17.7827 11.4151C17.7857 11.4192 17.8452 11.5943 17.9146 11.8031C17.9841 12.0118 18.0424 12.1847 18.0436 12.1847C18.0447 12.1847 18.1034 12.0148 18.1751 11.8075C18.2567 11.5714 18.3085 11.4262 18.3125 11.4196C18.3269 11.3989 18.3258 11.3993 18.4429 11.3993C18.5427 11.3993 18.5475 11.3993 18.5567 11.4048C18.5632 11.409 18.5689 11.4144 18.5734 11.4207L18.58 11.4307L18.5811 11.9631C18.5811 12.4666 18.5811 12.4977 18.5752 12.5058C18.5713 12.5121 18.5663 12.5176 18.5604 12.5221L18.5505 12.5294H18.4692C18.3883 12.5294 18.3875 12.5294 18.379 12.5228C18.3732 12.5187 18.3681 12.5137 18.3639 12.508L18.3576 12.4995V12.1929V11.8866L18.3432 11.9272C18.3354 11.9498 18.2867 12.0887 18.2357 12.2361C18.1452 12.4947 18.1415 12.5047 18.1311 12.5154C18.1258 12.5213 18.119 12.5257 18.1115 12.5283C18.1064 12.5283 18.0724 12.5283 18.0354 12.5283C17.9715 12.5283 17.9682 12.5283 17.9567 12.5217C17.9499 12.5182 17.9438 12.5133 17.939 12.5073C17.936 12.5028 17.8862 12.3595 17.8282 12.1877C17.7702 12.0159 17.7225 11.877 17.7214 11.877C17.7203 11.877 17.7192 12.0151 17.7184 12.1851C17.7184 12.5302 17.7184 12.5047 17.6981 12.5176L17.687 12.5246H17.6109C17.5827 12.5255 17.5544 12.5247 17.5263 12.5224L17.523 12.5265Z" fill="white"/>
<path d="M13.7328 12.4881C13.6033 12.4767 13.4827 12.4172 13.3948 12.3214C13.3285 12.2397 13.2876 12.1405 13.2769 12.0358C13.2723 11.983 13.2723 11.9298 13.2769 11.877C13.2897 11.7623 13.3357 11.6538 13.4092 11.5648C13.5267 11.4318 13.7701 11.3778 13.9678 11.4417C14.0259 11.4584 14.0787 11.4899 14.121 11.5332C14.1632 11.5765 14.1934 11.63 14.2087 11.6885C14.2127 11.6998 14.2159 11.7112 14.2183 11.7229C14.2183 11.7229 14.1104 11.7528 14.1027 11.7543C14.0949 11.7558 14.0956 11.7506 14.0886 11.7303C14.0735 11.6795 14.0449 11.6338 14.0059 11.598C13.932 11.5404 13.8315 11.519 13.7103 11.5371C13.6354 11.5481 13.5663 11.5839 13.5141 11.6387C13.4461 11.7205 13.4097 11.8241 13.4118 11.9305C13.4034 12.0326 13.4282 12.1347 13.4823 12.2217C13.5647 12.3466 13.7568 12.4024 13.9257 12.351C13.9813 12.3346 14.034 12.3097 14.082 12.2771L14.1012 12.2634V12.0665H13.7923V11.9457H14.014H14.2357V12.1378V12.3299L14.2113 12.348C14.1214 12.4166 14.0168 12.4631 13.9057 12.484C13.8483 12.4915 13.7902 12.4931 13.7325 12.4888L13.7328 12.4881ZM14.9557 12.4977C14.8694 12.4926 14.7872 12.4585 14.7226 12.4009C14.6695 12.3476 14.6361 12.2779 14.6277 12.2032C14.6166 12.14 14.6158 12.1071 14.6166 11.7702V11.4399H14.7518V11.792C14.7518 12.1666 14.7518 12.1615 14.7666 12.2169C14.7757 12.2525 14.7942 12.285 14.8202 12.311C14.8462 12.337 14.8787 12.3555 14.9144 12.3647C14.9846 12.3822 15.0581 12.3822 15.1283 12.3647C15.165 12.3578 15.1987 12.3401 15.2251 12.3137C15.2515 12.2873 15.2692 12.2536 15.2761 12.2169C15.2934 12.1522 15.2934 12.1581 15.2949 11.785L15.2968 11.4414H15.432V11.7599C15.432 11.9446 15.4301 12.0964 15.4283 12.1208C15.4168 12.2823 15.3751 12.3698 15.2772 12.436C15.2322 12.4647 15.182 12.484 15.1294 12.4929C15.0709 12.4982 15.0122 12.4998 14.9535 12.4977H14.9557ZM16.0985 12.4685L16.2991 11.949L16.4938 11.4458H16.5677H16.6416L16.8515 11.9631L17.0632 12.484C17.065 12.4892 17.0602 12.4892 16.9893 12.4892H16.9109L16.8976 12.4544C16.8903 12.4356 16.8633 12.365 16.8374 12.2978L16.7909 12.1755H16.5692H16.3475L16.2902 12.3329L16.233 12.4903H16.0896L16.0985 12.4685ZM16.7458 12.0536C16.7458 12.0506 16.7148 11.9701 16.6793 11.8748C16.6438 11.7794 16.6032 11.6682 16.5899 11.628C16.5766 11.5877 16.5651 11.5541 16.5644 11.5541C16.5595 11.5668 16.5558 11.5799 16.5533 11.5932C16.5276 11.6922 16.495 11.7892 16.4558 11.8836C16.4218 11.9745 16.393 12.051 16.3919 12.0536C16.3907 12.0562 16.3996 12.0587 16.5685 12.0591C16.7373 12.0595 16.7473 12.0591 16.7458 12.0543V12.0536ZM17.5409 11.9631V11.4421H17.6432H17.7452L17.883 11.857C17.9569 12.085 18.0253 12.2863 18.0308 12.3037C18.0335 12.3142 18.0372 12.3245 18.0419 12.3344C18.0419 12.3344 18.0596 12.2845 18.0788 12.2235C18.098 12.1626 18.1682 11.9649 18.2325 11.7802L18.3493 11.4432H18.4405H18.5322V11.9638V12.4847H18.4028V12.0473C18.4028 11.8068 18.4028 11.6113 18.4028 11.6128C18.4028 11.6143 18.3374 11.7975 18.2606 12.017C18.1838 12.2365 18.1158 12.433 18.1091 12.4511L18.0977 12.484H17.9754L17.8276 12.0432C17.7456 11.8009 17.6798 11.5999 17.6765 11.598C17.6732 11.5962 17.6739 11.7938 17.6732 12.0388V12.4822H17.5442L17.5409 11.9631Z" fill="#BD0728"/>
<path fill-rule="evenodd" clip-rule="evenodd" d="M13.0218 8.59314C13.0414 8.62011 13.0384 8.73686 13.0384 8.73686C13.0547 8.74683 13.3159 8.51518 13.3159 8.52515C13.3159 8.57392 13.3218 8.67479 13.3218 8.67479C13.3218 8.67479 13.5922 8.41616 13.6033 8.44461C13.6144 8.47306 13.6033 8.62417 13.6033 8.62417L13.8161 8.38993C13.8398 8.36444 13.8361 8.42244 13.8383 8.51555C13.8383 8.53217 14.1339 8.2983 14.1512 8.29387C14.1882 8.28574 14.2007 8.41542 14.1989 8.44757C14.1989 8.47158 14.4705 8.29202 14.4575 8.31567L14.4778 8.45385C14.554 8.4435 14.7365 8.37552 14.8444 8.39326C14.8795 8.3988 14.8776 8.41653 14.8466 8.4302C14.3208 8.64301 13.9163 8.96371 13.6809 9.41076C13.6007 9.56298 13.576 9.69562 13.5974 9.72924C13.5974 9.72924 13.692 9.52603 13.7984 9.49389C13.8128 9.48982 13.822 9.62431 13.8353 9.61655C13.8353 9.61655 13.9159 9.41261 13.9743 9.3376C13.9898 9.31728 14.0156 9.44475 14.0323 9.42591C14.0596 9.34192 14.1016 9.26348 14.1564 9.19425C14.1679 9.18095 14.1893 9.3232 14.2022 9.31137C14.2872 9.23305 14.3674 9.03612 14.3991 9.02171C14.4213 9.00435 14.4254 9.18502 14.4464 9.1695C14.4464 9.1695 14.5676 8.92602 14.6404 8.88169C14.687 8.85324 14.6851 9.01469 14.6851 9.01469C14.7733 8.91797 14.8545 8.81499 14.9279 8.70656C14.95 8.67663 14.9378 8.90607 14.9615 8.91494C14.9918 8.92676 15.1909 8.73907 15.2134 8.73538C15.2282 8.73279 15.2456 8.78858 15.2068 8.83366L14.9604 9.11814C15.0077 9.12701 15.0258 9.11371 15.0598 9.12258C15.161 9.14918 14.871 9.31544 14.875 9.34684C14.875 9.34684 15.0147 9.34425 14.9681 9.37123C14.9341 9.39081 14.7494 9.62985 14.7494 9.62024C14.7494 9.61064 14.8421 9.62246 14.8418 9.64869C14.8418 9.6982 14.6884 9.95239 14.6866 9.95091C14.6785 9.94242 14.7686 9.93983 14.7808 9.96495C14.8033 10.0111 14.6242 10.2166 14.6593 10.2517C14.6641 10.2565 14.7616 10.2517 14.8048 10.2631C14.8259 10.2675 14.8846 10.6363 14.8698 10.6215C14.8941 10.4694 14.9286 10.319 14.9729 10.1715C14.9973 10.1083 15.0756 10.2668 15.0838 10.2528C15.0738 10.1439 15.072 10.0345 15.0786 9.92542C15.0819 9.8966 15.1384 9.95498 15.1377 9.92764C15.132 9.86471 15.1338 9.80132 15.1432 9.73884C15.1529 9.69303 15.2009 9.82123 15.2194 9.78687C15.2194 9.78687 15.1614 9.56519 15.1854 9.50128C15.2016 9.4599 15.2404 9.6014 15.2659 9.60694C15.2659 9.60694 15.2519 9.43366 15.2785 9.38896L15.3594 9.47578C15.3771 9.44807 15.3738 9.17837 15.3901 9.15324C15.4063 9.12812 15.4876 9.25411 15.5009 9.23489C15.5142 9.21568 15.4639 9.01728 15.4761 9.00176C15.4909 8.97886 15.5829 9.05718 15.5848 9.0557C15.6217 9.01876 15.6217 8.92381 15.6369 8.88871C15.6793 8.79375 15.9224 8.78156 15.9509 8.84917C15.9653 8.88169 15.9553 8.92307 15.9509 8.97479C15.9531 8.97479 16.0728 8.98551 16.0739 8.97479C16.0651 9.05267 16.0631 9.13117 16.068 9.2094C16.068 9.22566 16.1892 9.20534 16.1907 9.22159C16.2018 9.33723 16.1752 9.34795 16.1752 9.34795C16.1752 9.35645 16.2561 9.33576 16.2576 9.34462C16.2628 9.4116 16.2469 9.47854 16.2121 9.53601C16.2069 9.54561 16.3266 9.52677 16.3285 9.53785C16.3443 9.62986 16.345 9.72382 16.3307 9.81606C16.3307 9.82604 16.4478 9.72961 16.4497 9.73958C16.4678 9.84266 16.4471 9.95424 16.4578 10.061C16.4604 10.0858 16.5361 9.98712 16.5431 10.0156C16.5502 10.044 16.5262 10.2483 16.5376 10.2598C16.5376 10.2598 16.6647 10.2531 16.6758 10.2639C16.7766 10.3584 16.7574 10.5225 16.7574 10.5225C16.7848 10.5022 16.7744 10.3034 16.7467 10.1212C16.7434 10.1024 16.8443 10.1098 16.8409 10.0917C16.8409 10.0917 16.7301 10.0252 16.6932 9.84044C16.6854 9.80091 16.7996 9.80904 16.7996 9.80904C16.7678 9.73515 16.712 9.72259 16.6651 9.65239C16.6496 9.62948 16.7833 9.61914 16.7833 9.61249C16.7833 9.54266 16.6706 9.50941 16.6119 9.43699C16.5871 9.40596 16.7342 9.40448 16.7342 9.40448C16.6909 9.34425 16.5494 9.31802 16.4755 9.23859C16.4356 9.19536 16.6196 9.15287 16.6174 9.14548C16.5971 9.08194 16.4242 9.06198 16.3407 8.99031C16.3233 8.97553 16.4515 8.92528 16.4515 8.92528C16.4386 8.89831 16.1626 8.71691 16.3037 8.73353C16.3628 8.74055 16.4833 8.82479 16.4925 8.81186C16.4925 8.81186 16.4877 8.70619 16.4999 8.69326C16.5461 8.64523 16.7053 8.8972 16.7585 8.88686C16.7585 8.88686 16.7785 8.70656 16.8029 8.70213C16.8613 8.69104 16.9322 8.96482 16.9898 8.96482C16.9972 8.96482 17.0017 8.80668 17.0312 8.79782C17.0608 8.78895 17.1025 8.97516 17.1446 9.01654C17.1868 9.05792 17.1845 8.86875 17.2074 8.9057C17.2466 8.96223 17.2562 9.08009 17.3094 9.13181C17.3441 9.16543 17.3508 8.96925 17.3892 8.99548C17.4339 9.02615 17.4236 9.12775 17.4738 9.17763C17.4978 9.20164 17.5137 9.04831 17.5411 9.07085C17.5684 9.09339 17.5817 9.27775 17.6079 9.30768C17.6412 9.34462 17.6792 9.20866 17.714 9.23046C17.7387 9.24635 17.7328 9.40854 17.7557 9.44327C17.8026 9.51532 17.8274 9.35608 17.8584 9.38046C17.8802 9.39709 17.9272 9.58367 17.9467 9.59845C17.9903 9.6317 18.0144 9.51384 18.0476 9.53046C18.0716 9.54192 18.1215 9.78207 18.1403 9.77616C18.1533 9.77209 18.1854 9.22898 17.9763 9.00028C17.636 8.62676 17.026 8.41099 16.5287 8.40582C16.5287 8.40582 16.7789 8.35594 16.7855 8.31456C16.7984 8.23217 16.9226 8.24067 17.0094 8.26062C17.0246 8.26394 17.0164 8.11468 17.0186 8.11283C17.0959 8.11283 17.1664 8.1568 17.2403 8.20187C17.2632 8.21591 17.1938 8.05224 17.2182 8.06628C17.3131 8.12133 17.4188 8.13759 17.4831 8.20409C17.5001 8.22182 17.4635 8.0781 17.4635 8.0781C17.5111 8.06665 17.605 8.135 17.6416 8.19929C17.6597 8.23106 17.6416 8.03192 17.6545 8.06702C17.6545 8.06702 17.8204 8.12318 17.8392 8.19301C17.8392 8.19301 17.8529 8.06702 17.8762 8.07367C17.9423 8.09103 18.0007 8.20298 18.0524 8.21924C18.0524 8.21924 18.031 8.1084 18.048 8.11098C18.138 8.13727 18.2247 8.17359 18.3066 8.21924C18.2364 8.04337 17.97 7.85938 17.5012 7.80987C17.2565 7.79118 17.0105 7.80647 16.77 7.85532C16.5273 7.91147 16.3355 7.94362 16.375 7.90519C16.5354 7.74817 16.7948 7.72896 16.8661 7.69238C16.917 7.66652 16.6939 7.58154 16.7382 7.56787C16.7826 7.5542 16.9813 7.5409 16.9813 7.5409C17.0246 7.50728 16.8365 7.44152 16.8646 7.39312C16.9207 7.29484 17.2533 7.38425 17.2817 7.34693C17.2909 7.33437 17.1387 7.24422 17.145 7.23092C17.1694 7.18141 17.4653 7.26787 17.472 7.22427C17.472 7.22427 17.3826 7.1574 17.3187 7.10272C17.3109 7.09607 17.5828 7.02291 17.5828 7.02291C17.5495 6.99828 17.5128 6.97862 17.4738 6.96454C17.4169 6.942 17.7125 6.86515 17.7125 6.86515C17.3379 6.69409 16.3662 7.18104 16.1733 7.6861C16.1231 7.80692 16.1216 7.67576 16.1319 7.57526C16.1467 7.47363 16.1508 7.37072 16.1441 7.26824C16.1404 7.23831 16.0647 7.34767 16.0595 7.31849C16.0403 7.21097 16.0965 7.09348 16.0713 6.97414C16.0625 6.93424 15.9605 7.09274 15.9487 7.05247C15.9117 6.94163 15.9764 6.78757 15.9487 6.63572C15.9387 6.5766 15.8434 6.76281 15.8112 6.70961C15.7743 6.64828 15.7906 6.41995 15.7743 6.38559C15.7599 6.35788 15.6753 6.49643 15.6679 6.46909C15.553 6.05085 15.7048 5.99876 15.4832 6.23448C15.4754 6.24261 15.4266 5.98731 15.4181 5.9958C15.3276 6.18977 15.1795 5.85799 15.1288 5.88903C15.0919 5.91231 15.2323 6.04051 15.2338 6.09851C15.2338 6.12622 15.1037 6.12807 15.1037 6.12807C15.1067 6.17573 15.352 6.30948 15.3601 6.36194C15.3664 6.40517 15.1865 6.39446 15.1865 6.39446C15.192 6.45283 15.3967 6.50862 15.4082 6.57069C15.4144 6.60505 15.3125 6.61244 15.3158 6.64717C15.321 6.70074 15.5135 6.80641 15.5197 6.86072C15.5242 6.89767 15.3971 6.91392 15.3937 6.94939C15.39 6.99188 15.6494 7.13412 15.6498 7.17513C15.6498 7.23166 15.5463 7.20284 15.4994 7.23129C15.4333 7.27156 15.7119 7.43376 15.7233 7.47994C15.7348 7.52612 15.6125 7.48511 15.608 7.52206C15.6029 7.57046 15.7444 7.64398 15.7769 7.72711C15.8094 7.81024 15.7769 7.83019 15.7296 7.79768C15.6365 7.73192 15.2604 7.33252 15.1606 7.22575C15.0154 7.07094 14.7173 6.89767 14.4217 6.88732C14.3907 6.89693 14.5809 7.03141 14.5824 7.08018C14.5824 7.09274 14.4967 7.11159 14.5004 7.11528C14.5532 7.16811 14.7169 7.23055 14.7169 7.23055L14.67 7.31516C14.6811 7.33991 14.7586 7.34656 14.8828 7.3872C14.8828 7.3872 14.7897 7.44521 14.7967 7.45038C14.8563 7.49042 14.9215 7.5213 14.9903 7.54201L14.8647 7.58413C14.8573 7.60814 15.1473 7.72453 15.1473 7.72453C15.1165 7.74987 15.0877 7.77741 15.0609 7.80692C15.083 7.82908 15.2962 7.87822 15.2962 7.87822C15.2962 7.87822 15.1455 7.92995 15.1466 7.93106C15.2024 7.98684 15.3568 8.00495 15.3926 8.09731C15.3926 8.09731 15.4141 8.15015 15.3531 8.14017C15.113 8.05298 14.7409 7.87268 14.0197 7.94362C13.2826 8.03968 12.721 8.68033 12.7307 8.74425C12.7307 8.74425 12.9941 8.55508 13.0222 8.5935L13.0218 8.59314Z" fill="#109421"/>
<path d="M15.7795 8.77954C15.8518 8.73279 15.8703 8.6328 15.8207 8.5562C15.7712 8.4796 15.6725 8.4554 15.6001 8.50215C15.5278 8.5489 15.5093 8.64889 15.5589 8.72549C15.6084 8.80209 15.7071 8.82629 15.7795 8.77954Z" fill="#8C4200"/>
<path d="M16.0989 8.88533C16.1555 8.79778 16.1345 8.6835 16.0519 8.6301C15.9693 8.57669 15.8565 8.60437 15.7998 8.69193C15.7432 8.77948 15.7643 8.89376 15.8469 8.94717C15.9295 9.00057 16.0423 8.97289 16.0989 8.88533Z" fill="#8C4200"/>
<path d="M15.8979 9.03924C15.9583 8.94586 15.9358 8.82399 15.8478 8.76703C15.7597 8.71008 15.6393 8.73961 15.5789 8.83299C15.5186 8.92637 15.541 9.04825 15.6291 9.1052C15.7171 9.16215 15.8375 9.13262 15.8979 9.03924Z" fill="#8C4200"/>
<path fill-rule="evenodd" clip-rule="evenodd" d="M14.28 14.9369H14.5146V15.1124H14.28V14.9369Z" fill="black"/>
<path fill-rule="evenodd" clip-rule="evenodd" d="M13.1059 15.0499C13.1059 15.0499 14.648 15.1674 15.5935 14.9642C15.5935 14.9642 15.6729 15.0182 15.5588 15.1516C15.4446 15.2849 15.1557 15.3134 14.9972 15.3418C14.9776 15.3828 14.9651 15.4267 14.9602 15.4719C14.9636 15.5166 15.0604 15.5118 15.108 15.5022L15.1553 15.4926C15.1553 15.4926 15.1331 15.6592 14.5494 15.6814C14.358 15.6888 13.7262 15.7021 13.5928 15.5147C13.6412 15.5197 13.69 15.5197 13.7384 15.5147C13.7687 15.5055 13.7465 15.3847 13.7355 15.3669C13.7244 15.3492 13.3261 15.367 13.117 15.1734C13.0788 15.1368 13.0521 15.09 13.0401 15.0385L13.1059 15.0499ZM13.9095 15.3736C14.2112 15.4057 14.5155 15.4057 14.8173 15.3736C14.8173 15.3736 14.8298 15.4656 14.8076 15.5007C14.7855 15.5358 14.2254 15.5624 13.9427 15.5133C13.8973 15.4988 13.8958 15.4431 13.9095 15.3736Z" fill="#8C4200"/>
<path fill-rule="evenodd" clip-rule="evenodd" d="M13.3206 14.9749C13.3206 14.9749 13.8925 14.3664 13.7174 13.0969C13.7174 13.0969 14.3137 13.2503 14.9214 14.1274C14.9214 14.1274 15.0984 14.3054 15.3072 14.9402L13.3206 14.9749Z" fill="#FDF9FF"/>
<path fill-rule="evenodd" clip-rule="evenodd" d="M15.8998 4C15.8998 4 11 7.64735 11 11.9483C11 16.2492 15.8998 20 15.8998 20C15.8998 20 20.7679 16.5588 20.7679 11.9483C20.7679 7.33774 15.8998 4 15.8998 4ZM15.8998 4.88265C15.8998 4.88265 11.5402 8.12765 11.5402 11.9538C11.5402 15.78 15.8998 19.1174 15.8998 19.1174C15.8998 19.1174 20.2288 16.056 20.2288 11.9538C20.2288 7.85166 15.898 4.88265 15.898 4.88265H15.8998Z" fill="#C62139"/>
</svg>
