<svg width="32" height="24" viewBox="0 0 32 24" fill="none" xmlns="http://www.w3.org/2000/svg">
<path fill-rule="evenodd" clip-rule="evenodd" d="M1 0H31C31.5523 0 32 0.447715 32 1V23C32 23.5523 31.5523 24 31 24H1C0.447715 24 0 23.5523 0 23V1C0 0.447715 0.447715 0 1 0Z" fill="#DE2910"/>
<path fill-rule="evenodd" clip-rule="evenodd" d="M15.4477 9.22429C16.7444 8.13893 16.8233 7.89621 17.134 6.93999C17.2377 6.62082 17.1645 6.35867 17.0781 6.04909C16.9536 5.60269 16.8015 5.05765 17.1124 4.10077C15.6976 3.64107 14.0538 4.79766 13.4408 6.68408C12.8279 8.57051 13.4779 10.4724 14.8928 10.9321C15.146 11.0144 15.1176 10.9549 15.0408 10.7938C14.9059 10.5111 14.6217 9.91562 15.4477 9.22429ZM12.7623 11.2066C12.1308 9.63798 11.9243 9.48797 11.1109 8.89699C10.8394 8.69974 10.5675 8.68829 10.2464 8.67478C9.78332 8.6553 9.21796 8.63151 8.40399 8.04013C7.52958 9.24365 8.1216 11.1644 9.72629 12.3303C11.331 13.4962 13.3407 13.4657 14.2151 12.2621C14.3716 12.0467 14.3063 12.0553 14.1293 12.0786C13.8187 12.1196 13.1646 12.2058 12.7623 11.2066ZM20.8564 12.0635C19.851 12.0635 19.5958 12.0635 18.1628 11.1656C17.2501 10.5937 16.7715 11.048 16.5444 11.2637C16.4149 11.3866 16.3671 11.4319 16.3671 11.1656C16.3671 9.67801 17.975 8.47205 19.9585 8.47205C21.9421 8.47205 23.55 9.67801 23.55 11.1656C22.5439 11.1656 22.0725 11.4787 21.6865 11.7351C21.4187 11.9129 21.192 12.0635 20.8564 12.0635ZM21 10.5C21 10.7761 20.7761 11 20.5 11C20.2239 11 20 10.7761 20 10.5C20 10.2239 20.2239 10 20.5 10C20.7761 10 21 10.2239 21 10.5ZM17.1555 14.3478C16.7444 15.9881 16.8233 16.2308 17.134 17.187C17.2377 17.5062 17.4509 17.6753 17.7028 17.875C18.0659 18.1629 18.5093 18.5144 18.8202 19.4713C20.2351 19.0116 20.8851 17.1097 20.2722 15.2233C19.6592 13.3368 18.0154 12.1803 16.6006 12.64C16.3473 12.7223 16.4053 12.7537 16.5622 12.8389C16.8375 12.9883 17.4174 13.303 17.1555 14.3478ZM18.7044 16.9926C18.4686 17.0693 18.2153 16.9402 18.1387 16.7044C18.0621 16.4686 18.1912 16.2153 18.427 16.1387C18.6628 16.0621 18.916 16.1912 18.9926 16.427C19.0693 16.6628 18.9402 16.916 18.7044 16.9926ZM13.8178 14.3731C12.1308 14.489 11.9243 14.639 11.1109 15.23C10.8394 15.4273 10.7445 15.6823 10.6324 15.9836C10.4708 16.4179 10.2735 16.9483 9.45949 17.5396C10.3339 18.7432 12.3436 18.7737 13.9483 17.6078C15.553 16.4419 16.145 14.5212 15.2706 13.3176C15.1141 13.1022 15.1021 13.167 15.0696 13.3426C15.0125 13.6505 14.8924 14.2993 13.8178 14.3731ZM12.2639 16.8909C12.1181 16.6904 12.1626 16.4096 12.3632 16.2639C12.5638 16.1181 12.8445 16.1626 12.9903 16.3632C13.136 16.5638 13.0915 16.8445 12.8909 16.9903C12.6904 17.136 12.4096 17.0915 12.2639 16.8909ZM10.2639 10.3632C10.4096 10.1626 10.6904 10.1181 10.8909 10.2639C11.0915 10.4096 11.136 10.6904 10.9903 10.8909C10.8445 11.0915 10.5638 11.136 10.3632 10.9903C10.1626 10.8445 10.1181 10.5638 10.2639 10.3632ZM15.7044 6.13873C15.9402 6.21534 16.0693 6.46861 15.9926 6.70441C15.916 6.94022 15.6628 7.06926 15.427 6.99265C15.1912 6.91603 15.0621 6.66276 15.1387 6.42696C15.2153 6.19116 15.4686 6.06211 15.7044 6.13873Z" fill="white"/>
<path opacity="0.2" fill-rule="evenodd" clip-rule="evenodd" d="M31 0H1C0.447715 0 0 0.447715 0 1V23C0 23.5523 0.447715 24 1 24H31C31.5523 24 32 23.5523 32 23V1C32 0.447715 31.5523 0 31 0ZM1 23V1H31V23H1Z" fill="black"/>
</svg>
