<svg width="32" height="24" viewBox="0 0 32 24" fill="none" xmlns="http://www.w3.org/2000/svg">
<path fill-rule="evenodd" clip-rule="evenodd" d="M1 0H31C31.5523 0 32 0.447715 32 1V23C32 23.5523 31.5523 24 31 24H1C0.447715 24 0 23.5523 0 23V1C0 0.447715 0.447715 0 1 0Z" fill="#F7F7F7"/>
<path fill-rule="evenodd" clip-rule="evenodd" d="M0 3H32V7H0V3Z" fill="#0D5EAF"/>
<path fill-rule="evenodd" clip-rule="evenodd" d="M0 17H32V21H0V17Z" fill="#0D5EAF"/>
<path d="M16.7947 9.45828L17.0813 9.96875H17.6667H19.2918L18.4613 11.448L18.1865 11.9375L18.4613 12.427L19.2918 13.9062H17.6667H17.0813L16.7947 14.4167L16 15.8322L15.2053 14.4167L14.9187 13.9062H14.3333H12.7082L13.5387 12.427L13.8135 11.9375L13.5387 11.448L12.7082 9.96875H14.3333H14.9187L15.2053 9.45828L16 8.04276L16.7947 9.45828Z" fill="#0D5EAF" stroke="#0D5EAF" stroke-width="2"/>
<path fill-rule="evenodd" clip-rule="evenodd" d="M16 14C17.1046 14 18 13.1046 18 12C18 10.8954 17.1046 10 16 10C14.8954 10 14 10.8954 14 12C14 13.1046 14.8954 14 16 14Z" fill="#F7F7F7"/>
<path opacity="0.2" fill-rule="evenodd" clip-rule="evenodd" d="M31 0H1C0.447715 0 0 0.447715 0 1V23C0 23.5523 0.447715 24 1 24H31C31.5523 24 32 23.5523 32 23V1C32 0.447715 31.5523 0 31 0ZM1 23V1H31V23H1Z" fill="black"/>
</svg>
