<svg width="32" height="24" viewBox="0 0 32 24" fill="none" xmlns="http://www.w3.org/2000/svg">
<path fill-rule="evenodd" clip-rule="evenodd" d="M1 0H31C31.5523 0 32 0.447715 32 1V23C32 23.5523 31.5523 24 31 24H1C0.447715 24 0 23.5523 0 23V1C0 0.447715 0.447715 0 1 0Z" fill="#02529C"/>
<path fill-rule="evenodd" clip-rule="evenodd" d="M16 8V0H8V8H0V16H8V24H16V16H32V8H16Z" fill="#F7F7F7"/>
<path fill-rule="evenodd" clip-rule="evenodd" d="M14 10V0H10V10H0V14H10V24H14V14H32V10H14Z" fill="#DC1E35"/>
<path opacity="0.2" fill-rule="evenodd" clip-rule="evenodd" d="M31 0H1C0.447715 0 0 0.447715 0 1V23C0 23.5523 0.447715 24 1 24H31C31.5523 24 32 23.5523 32 23V1C32 0.447715 31.5523 0 31 0ZM1 23V1H31V23H1Z" fill="black"/>
</svg>
