<svg width="18" height="12" viewBox="0 0 18 12" fill="none" xmlns="http://www.w3.org/2000/svg"><path fill-rule="evenodd" clip-rule="evenodd" d="M.75 0h16.5c.414 0 .75.298.75.667v10.666c0 .368-.336.667-.75.667H.75c-.414 0-.75-.299-.75-.667V.667C0 .298.336 0 .75 0Z" fill="#F7F7F7"/><path fill-rule="evenodd" clip-rule="evenodd" d="M0 1a1 1 0 0 1 1-1h5v12H1a1 1 0 0 1-1-1V1Z" fill="#169B62"/><path fill-rule="evenodd" clip-rule="evenodd" d="M12 0h5a1 1 0 0 1 1 1v10a1 1 0 0 1-1 1h-5V0Z" fill="#DF1B33"/><path opacity=".2" fill-rule="evenodd" clip-rule="evenodd" d="M17.25 0H.75C.336 0 0 .298 0 .667v10.666c0 .368.336.667.75.667h16.5c.414 0 .75-.299.75-.667V.667C18 .298 17.664 0 17.25 0ZM.75 11.333V.667h16.5v10.666H.75Z" fill="#000"/></svg>