<svg width="32" height="24" viewBox="0 0 32 24" fill="none" xmlns="http://www.w3.org/2000/svg">
<g clip-path="url(#clip0_11898_82239)">
<path d="M-4 0H36V24H-4V0Z" fill="white"/>
<path d="M-8.40002 -2.17194V26.6281L39.6 -2.17194V26.6281L-8.40002 -2.17194Z" fill="white"/>
<path d="M41.2 29.452L15.6 14.092L-10 29.452V-5L15.6 10.36L41.2 -5V29.452ZM18.708 12.228L38 23.804V0.652L18.708 12.228ZM-6.8 0.652V23.8L12.492 12.228L-6.8 0.652Z" fill="#CE1126"/>
<path opacity="0.2" fill-rule="evenodd" clip-rule="evenodd" d="M31 0H1C0.447715 0 0 0.447715 0 1V23C0 23.5523 0.447715 24 1 24H31C31.5523 24 32 23.5523 32 23V1C32 0.447715 31.5523 0 31 0ZM1 23V1H31V23H1Z" fill="black"/>
<path d="M13.9736 3.88109C13.5401 5.62868 13.7457 7.80249 15.7037 9.00004C17.6618 7.80249 17.8916 5.64207 17.458 3.89448C16.9965 3.47672 14.9387 3.20572 13.9736 3.88109Z" fill="#CE1126"/>
<path d="M17.674 3.17181H13.7576L13.9427 4.00441H17.4889L17.674 3.17181Z" fill="#DEC35D"/>
<path d="M17.8282 2.49341L16.9339 3.32601H17.6403L17.8282 2.49341Z" fill="#DEC35D"/>
<path d="M13.6035 2.49341L14.4977 3.32601H13.7913L13.6035 2.49341Z" fill="#DEC35D"/>
<path d="M16.2246 2.43172L15.7004 2L15.1761 2.43172L15.3303 3.29516H16.0704L16.2246 2.43172Z" fill="#DEC35D"/>
<path d="M16.4096 2.67843C16.4096 2.84873 16.5477 2.9868 16.718 2.9868C16.8883 2.9868 17.0264 2.84873 17.0264 2.67843C17.0264 2.50812 16.8883 2.37006 16.718 2.37006C16.5477 2.37006 16.4096 2.50812 16.4096 2.67843Z" fill="#DEC35D"/>
<path d="M16.718 2.80176L16.4509 3.26431H16.985L16.718 2.80176Z" fill="#DEC35D"/>
<path d="M14.3744 2.67843C14.3744 2.84873 14.5125 2.9868 14.6828 2.9868C14.8531 2.9868 14.9911 2.84873 14.9911 2.67843C14.9911 2.50812 14.8531 2.37006 14.6828 2.37006C14.5125 2.37006 14.3744 2.50812 14.3744 2.67843Z" fill="#DEC35D"/>
<path d="M14.6828 2.80176L14.4157 3.26431H14.9498L14.6828 2.80176Z" fill="#DEC35D"/>
</g>
<defs>
<clipPath id="clip0_11898_82239">
<rect width="32" height="24" rx="1" fill="white"/>
</clipPath>
</defs>
</svg>
