<svg width="32" height="24" viewBox="0 0 32 24" fill="none" xmlns="http://www.w3.org/2000/svg">
<g clip-path="url(#clip0_392_35632)">
<rect width="32" height="24" rx="1" fill="white"/>
<g clip-path="url(#clip1_392_35632)">
<path d="M-2.00009 -0.000488281H33.9999V23.9998H-2.00009V-0.000488281Z" fill="white"/>
<path d="M-2.00009 -0.000488281H33.9999V6.36835H-2.00009V-0.000488281Z" fill="black"/>
<path d="M-2 17.6312H34V23.9993H-2V17.6312Z" fill="#496E2D"/>
<path d="M-2 7.96448H34V16.0363H-2V7.96448Z" fill="#A2001D"/>
<path d="M20.7297 3.82989L18.9308 2.99957L16.0001 9.63581L13.0693 2.99957L11.2705 3.82989L14.9091 11.9996L11.2705 20.1693L13.0693 20.9996L16.0001 14.3634L18.9308 20.9996L20.7297 20.1693L17.091 11.9996L20.7297 3.82989Z" fill="white"/>
<path d="M17.2216 4.61237C16.5252 3.85187 15.9999 3.41473 15.9999 3.41473C15.9999 3.41473 15.4745 3.8518 14.7781 4.6123V19.3869C15.4745 20.1474 15.9999 20.5846 15.9999 20.5846C15.9999 20.5846 16.5252 20.1475 17.2216 19.3869V4.61237Z" fill="white"/>
<path d="M12.6981 7.44558V16.5535C13.4339 17.8572 14.3345 18.926 15.0094 19.6345V4.36462C14.3344 5.07309 13.4338 6.14177 12.6981 7.44558ZM19.3018 7.44558C18.566 6.14177 17.6654 5.07309 16.9905 4.36462V19.6345C17.6654 18.926 18.566 17.8573 19.3018 16.5536V7.44558Z" fill="#A2001D"/>
<path d="M19.3018 7.44562V16.5535C20.0467 15.2335 20.6226 13.6726 20.6226 11.9996C20.6226 10.3266 20.0467 8.76573 19.3018 7.44562ZM12.6981 7.44562V16.5535C11.9532 15.2335 11.3773 13.6726 11.3773 11.9996C11.3773 10.3266 11.9532 8.76573 12.6981 7.44562Z" fill="black"/>
</g>
<path opacity="0.2" fill-rule="evenodd" clip-rule="evenodd" d="M31 0H1C0.447715 0 0 0.447715 0 1V23C0 23.5523 0.447715 24 1 24H31C31.5523 24 32 23.5523 32 23V1C32 0.447715 31.5523 0 31 0ZM1 23V1H31V23H1Z" fill="black"/>
</g>
<defs>
<clipPath id="clip0_392_35632">
<rect width="32" height="24" rx="1" fill="white"/>
</clipPath>
<clipPath id="clip1_392_35632">
<rect width="36" height="24" fill="white" transform="translate(-2)"/>
</clipPath>
</defs>
</svg>
