<svg width="32" height="24" viewBox="0 0 32 24" fill="none" xmlns="http://www.w3.org/2000/svg">
<path d="M1 0H31C31.5523 0 32 0.447715 32 1V23C32 23.5523 31.5523 24 31 24H1C0.447715 24 0 23.5523 0 23V1C0 0.447715 0.447715 0 1 0Z" fill="#E1011F"/>
<path d="M0 1C0 0.447715 0.447715 0 1 0H30.6667C31.403 0 32 0.447715 32 1V7H0V1Z" fill="#002AA2"/>
<path d="M0 17H32V23C32 23.5523 31.403 24 30.6667 24H1C0.447715 24 0 23.5523 0 23V17Z" fill="#002AA2"/>
<path opacity="0.2" fill-rule="evenodd" clip-rule="evenodd" d="M31 0H1C0.447715 0 0 0.447715 0 1V23C0 23.5523 0.447715 24 1 24H31C31.5523 24 32 23.5523 32 23V1C32 0.447715 31.5523 0 31 0ZM1 23V1H31V23H1Z" fill="black"/>
<path fill-rule="evenodd" clip-rule="evenodd" d="M15.9853 8.19735H15.9279C15.9279 8.19735 15.923 8.07308 15.9853 8.02062V8.19735ZM16.0065 8.00701C15.9987 8.01066 15.9917 8.01527 15.9853 8.02062V8C15.9929 8.00159 16 8.00397 16.0065 8.00701ZM16.0278 8.02062C16.0214 8.01527 16.0144 8.01066 16.0065 8.00701C16.0131 8.00397 16.0201 8.00159 16.0278 8V8.02062ZM16.0278 8.02062C16.0901 8.07308 16.0852 8.19735 16.0852 8.19735H16.0278V8.02062ZM16.0147 8.6084V16H22V15.3992H21.6977V14.7984L21.3954 14.7951V14.285L21.0953 14.2879V13.8984L20.9159 13.8957V13.5992L20.6551 13.5992C20.5789 13.551 20.4986 13.4588 20.4707 13.3567L20.5085 10.9799C20.4732 10.9519 20.4334 10.9553 20.3912 10.9772L20.3909 11.222V11.0712H20.1922V10.6399C20.1693 10.6399 20.1541 10.6721 20.1357 10.7109C20.108 10.7696 20.0731 10.8435 19.9934 10.8435C19.9247 10.8435 19.932 10.7592 19.9706 10.6905C20.0048 10.6296 20.0472 10.5455 19.9896 10.3889C19.9502 10.5088 19.8441 10.5468 19.8637 10.4716C19.8743 10.431 19.8911 10.4011 19.907 10.3729C19.9416 10.3115 19.9715 10.2583 19.9217 10.121C19.8963 10.2881 19.7919 10.2807 19.8173 10.1836C19.8242 10.1572 19.8328 10.1345 19.841 10.1132C19.8666 10.0461 19.8873 9.99198 19.8321 9.87487C19.7912 10.0502 19.7361 10.0398 19.7361 9.93106L19.7361 9.9176C19.7363 9.76079 19.7365 9.59521 19.5396 9.53269C19.5396 9.53269 19.5279 9.38535 19.4548 9.38535C19.3818 9.38535 19.3701 9.53269 19.3701 9.53269C19.1732 9.59525 19.1734 9.76084 19.1736 9.91765L19.1736 9.93111C19.1736 10.0399 19.1184 10.0502 19.0776 9.87492C19.0224 9.99204 19.043 10.0461 19.0687 10.1132C19.0768 10.1346 19.0855 10.1572 19.0924 10.1836C19.1178 10.2808 19.0133 10.2882 18.9881 10.121C18.9382 10.2584 18.9681 10.3116 19.0028 10.3731C19.0186 10.4012 19.0355 10.4311 19.0461 10.4717C19.0656 10.5468 18.9596 10.5088 18.9201 10.389C18.8626 10.5455 18.9049 10.6296 18.9391 10.6906C18.9778 10.7593 18.9851 10.8436 18.9162 10.8436C18.8366 10.8436 18.8018 10.7698 18.774 10.711C18.7557 10.6722 18.7405 10.64 18.7176 10.64V11.3987H18.4864V11.3488C18.4615 11.3305 18.4209 11.3327 18.3912 11.347V11.3987H17.2453V10.7124C17.142 10.7541 17.1165 10.8503 17.1165 10.8503V11.3987L17.1125 10.9748H16.9756L16.9753 10.9748C16.971 10.9744 16.906 10.9687 16.906 10.8543C16.906 10.7359 16.9477 10.6562 17.034 10.6601V10.42C17.034 10.42 16.8243 10.448 16.8082 10.69V10.4907C16.7214 10.4907 16.7209 10.5855 16.7209 10.8166H16.6562V10.5508C16.6582 10.4789 16.6957 10.4431 16.7304 10.41C16.7598 10.3819 16.7872 10.3558 16.7889 10.3113C16.7889 10.3113 16.805 10.166 16.7677 10.0996C16.717 10.294 16.6248 10.2583 16.6248 10.1784C16.6248 10.1216 16.6595 10.068 16.7302 9.95862L16.7302 9.95862C16.7463 9.93368 16.7643 9.90583 16.7842 9.87439C16.8184 9.82022 16.7973 9.65059 16.7493 9.58994C16.7307 9.73738 16.7094 9.80797 16.6478 9.80797C16.6101 9.80797 16.5794 9.78281 16.5794 9.70894C16.5794 9.65033 16.6035 9.60982 16.6291 9.56689C16.6445 9.54098 16.6604 9.5142 16.6719 9.48203C16.7074 9.38223 16.6829 9.28051 16.6239 9.22365C16.6188 9.25318 16.615 9.27911 16.6117 9.30167L16.6117 9.30169C16.5987 9.39031 16.5933 9.42713 16.5431 9.42713C16.4271 9.38944 16.5233 9.22841 16.5614 9.16478L16.5703 9.14969C16.6014 9.09422 16.5283 8.98352 16.5283 8.98352C16.488 9.11271 16.475 9.12328 16.4315 9.11127C16.3766 9.09614 16.3837 9.01253 16.4507 8.94496C16.493 8.90222 16.4885 8.83873 16.4431 8.78773C16.3975 8.87921 16.3391 8.87369 16.3335 8.81933L16.3702 8.6084H16.0147ZM20.3909 11.222V11.2239H20.1922L20.3909 11.222ZM15.9853 8.6084V16H10V15.3992H10.3023V14.7984L10.6046 14.7951V14.285L10.9047 14.2879V13.8984L11.0841 13.8957V13.5992L11.3449 13.5992C11.4211 13.551 11.5014 13.4588 11.5293 13.3567L11.4915 10.9799C11.5268 10.9519 11.5666 10.9553 11.6088 10.9772V11.7317L11.6091 11.2239H11.8078L11.6091 11.222V11.0712H11.8078V10.6399C11.8307 10.6399 11.8459 10.6721 11.8643 10.7109C11.892 10.7696 11.9269 10.8435 12.0066 10.8435C12.0753 10.8435 12.068 10.7592 12.0294 10.6905C11.9952 10.6296 11.9528 10.5455 12.0104 10.3889C12.0498 10.5088 12.1559 10.5468 12.1363 10.4716C12.1257 10.431 12.1089 10.4011 12.093 10.3729C12.0584 10.3115 12.0285 10.2583 12.0783 10.121C12.1037 10.2881 12.2081 10.2807 12.1827 10.1836C12.1758 10.1572 12.1672 10.1345 12.159 10.1132C12.1334 10.0461 12.1127 9.99198 12.1679 9.87487C12.2088 10.0502 12.2639 10.0398 12.2639 9.93106L12.2639 9.9176C12.2637 9.76079 12.2635 9.59521 12.4604 9.53269C12.4604 9.53269 12.4721 9.38535 12.5452 9.38535C12.6182 9.38535 12.6299 9.53269 12.6299 9.53269C12.8268 9.59525 12.8266 9.76084 12.8264 9.91765L12.8264 9.93111C12.8264 10.0399 12.8816 10.0502 12.9224 9.87492C12.9776 9.99204 12.957 10.0461 12.9313 10.1132L12.9313 10.1132L12.9313 10.1132C12.9232 10.1346 12.9145 10.1572 12.9076 10.1836C12.8822 10.2808 12.9867 10.2882 13.0119 10.121C13.0618 10.2584 13.0319 10.3116 12.9972 10.3731C12.9814 10.4012 12.9645 10.4311 12.9539 10.4717C12.9344 10.5468 13.0404 10.5088 13.0799 10.389C13.1374 10.5455 13.0951 10.6296 13.0609 10.6906C13.0222 10.7593 13.0149 10.8436 13.0838 10.8436C13.1634 10.8436 13.1983 10.7698 13.226 10.711C13.2443 10.6722 13.2595 10.64 13.2824 10.64V11.3987H13.5136V11.3488C13.5385 11.3305 13.5791 11.3327 13.6088 11.347V11.3987H14.7547V10.7124C14.858 10.7541 14.8835 10.8503 14.8835 10.8503V11.3987L14.8875 10.9748H15.0244L15.0247 10.9748C15.029 10.9744 15.094 10.9687 15.094 10.8543C15.094 10.7359 15.0523 10.6562 14.966 10.6601V10.42C14.966 10.42 15.1757 10.448 15.1918 10.69V10.4907C15.2786 10.4907 15.2791 10.5855 15.2791 10.8166H15.3438V10.5508C15.3418 10.4789 15.3043 10.4431 15.2696 10.41C15.2402 10.3819 15.2128 10.3558 15.2111 10.3113C15.2111 10.3113 15.195 10.166 15.2323 10.0996C15.283 10.294 15.3752 10.2583 15.3752 10.1784C15.3752 10.1216 15.3405 10.068 15.2698 9.95861C15.2537 9.93367 15.2357 9.90583 15.2158 9.87439C15.1816 9.82022 15.2027 9.65059 15.2507 9.58994C15.2693 9.73738 15.2906 9.80797 15.3522 9.80797C15.3899 9.80797 15.4206 9.78281 15.4206 9.70894C15.4206 9.65033 15.3965 9.60982 15.3709 9.56689C15.3555 9.54098 15.3396 9.5142 15.3281 9.48203C15.2926 9.38223 15.3171 9.28051 15.3761 9.22365C15.3812 9.25318 15.385 9.27911 15.3883 9.30167L15.3883 9.30169C15.4013 9.39031 15.4067 9.42713 15.4569 9.42713C15.5729 9.38944 15.4767 9.22841 15.4386 9.16478L15.4297 9.14969C15.3986 9.09422 15.4717 8.98352 15.4717 8.98352C15.512 9.11271 15.525 9.12328 15.5685 9.11127C15.6234 9.09614 15.6163 9.01253 15.5493 8.94496C15.507 8.90222 15.5115 8.83873 15.5569 8.78773C15.6025 8.87921 15.6609 8.87369 15.6665 8.81933L15.6298 8.6084H15.9853ZM15.6814 8.60653H15.9853V8.45645H15.6629L15.6814 8.60653ZM16.3186 8.60653H16.0147V8.45645H16.3371L16.3186 8.60653ZM15.9853 8.45333H15.731L15.7151 8.3299H15.9853V8.45333ZM16.0147 8.45333H16.269L16.2849 8.3299H16.0147V8.45333ZM15.832 8.32558H16.168L16.1786 8.20216H15.8214L15.832 8.32558Z" fill="#EAECF0"/>
</svg>
