<svg width="32" height="24" viewBox="0 0 32 24" fill="none" xmlns="http://www.w3.org/2000/svg">
<path fill-rule="evenodd" clip-rule="evenodd" d="M1 0H31C31.5523 0 32 0.447715 32 1V23C32 23.5523 31.5523 24 31 24H1C0.447715 24 0 23.5523 0 23V1C0 0.447715 0.447715 0 1 0Z" fill="#F7F7F7"/>
<path fill-rule="evenodd" clip-rule="evenodd" d="M11 12C11 14.7614 13.2386 17 16 17C18.7614 17 21 14.7614 21 12H11Z" fill="#0066B3"/>
<path fill-rule="evenodd" clip-rule="evenodd" d="M11 12C11 9.23858 13.2386 7 16 7C18.7614 7 21 9.23858 21 12H11Z" fill="#ED1C24"/>
<path fill-rule="evenodd" clip-rule="evenodd" d="M21 6.41718L22.4172 5L25.9626 8.54543L24.5454 9.96261L21 6.41718ZM10.9626 6.41718L7.41718 9.96261L6 8.54543L9.54543 5L10.9626 6.41718ZM21 17.5454L24.5454 14L25.9626 15.4172L22.4172 18.9626L21 17.5454ZM10.9626 17.5454L9.54543 18.9626L6 15.4172L7.41718 14L10.9626 17.5454ZM23 4.41718L24.4172 3L27.9626 6.54543L26.5454 7.96261L23 4.41718ZM8.96261 4.41718L5.41718 7.96261L4 6.54543L7.54543 3L8.96261 4.41718ZM23 19.5454L26.5454 16L27.9626 17.4172L24.4172 20.9626L23 19.5454ZM8.96261 19.5454L7.54543 20.9626L4 17.4172L5.41718 16L8.96261 19.5454Z" fill="#333333"/>
<path opacity="0.2" fill-rule="evenodd" clip-rule="evenodd" d="M31 0H1C0.447715 0 0 0.447715 0 1V23C0 23.5523 0.447715 24 1 24H31C31.5523 24 32 23.5523 32 23V1C32 0.447715 31.5523 0 31 0ZM1 23V1H31V23H1Z" fill="black"/>
</svg>
