<svg width="32" height="24" viewBox="0 0 32 24" fill="none" xmlns="http://www.w3.org/2000/svg">
<path fill-rule="evenodd" clip-rule="evenodd" d="M1 0H31C31.5523 0 32 0.447715 32 1V23C32 23.5523 31.5523 24 31 24H1C0.447715 24 0 23.5523 0 23V1C0 0.447715 0.447715 0 1 0Z" fill="#1C478A"/>
<path fill-rule="evenodd" clip-rule="evenodd" d="M16 0H15.349L8.25 4.61014L1.15101 0H1C0.447715 0 0 0.447715 0 1V2.23343L5.9549 6.10059L0 9.96775V12H1.46081L8.25 7.59105L15.0392 12H16V9.64305L10.5451 6.10059L16 2.55814V0Z" fill="#F7F7F7"/>
<path fill-rule="evenodd" clip-rule="evenodd" d="M0 0.999993V1.50151L7.08196 6.10059L0 10.6997V11.892L8 6.69677L16 11.892V10.6997L8.91804 6.10059L16 1.50151V0.309143L8 5.5044L0.180694 0.426487C0.0668275 0.588855 0 0.78662 0 0.999993Z" fill="#DC1E35"/>
<path fill-rule="evenodd" clip-rule="evenodd" d="M10 4H16V8H10V12H6V8H0V4H6V0H10V4Z" fill="#F7F7F7"/>
<path fill-rule="evenodd" clip-rule="evenodd" d="M9 5V0H7V5H0V7H7V12H9V7H16V5H9Z" fill="#DC1E35"/>
<path opacity="0.2" fill-rule="evenodd" clip-rule="evenodd" d="M31 0H1C0.447715 0 0 0.447715 0 1V23C0 23.5523 0.447715 24 1 24H31C31.5523 24 32 23.5523 32 23V1C32 0.447715 31.5523 0 31 0ZM1 23V1H31V23H1Z" fill="black"/>
<path d="M19.1855 9H28.1855V15.5V16C28.1855 18.2091 26.3947 20 24.1855 20H23.6855H23.1855C20.9764 20 19.1855 18.2091 19.1855 16V15.5V9Z" fill="white"/>
<path fill-rule="evenodd" clip-rule="evenodd" d="M21.8986 7.26172L21.1561 5.03393C22.2699 4.41512 24.1263 3.92001 26.354 5.03399L25.6114 7.26172H25.5741C26.0553 7.73343 26.3539 8.39082 26.3539 9.11795C26.3539 10.5533 25.1903 11.717 23.755 11.717C22.3196 11.717 21.156 10.5533 21.156 9.11795C21.156 8.39082 21.4546 7.73343 21.9359 7.26172H21.8986Z" fill="#005120"/>
<path fill-rule="evenodd" clip-rule="evenodd" d="M20.7065 4.859L20.9759 4.70935C22.1722 4.04477 24.1598 3.52156 26.5202 4.70189L26.8082 4.8459L26.0235 7.20021C26.4611 7.71744 26.7254 8.38705 26.7254 9.11788C26.7254 10.7583 25.3956 12.0881 23.7551 12.0881C22.1147 12.0881 20.7849 10.7583 20.7849 9.11788C20.7849 8.387 21.0492 7.71734 21.4869 7.2001L20.7065 4.859ZM21.8988 7.26167H21.936C21.9235 7.27395 21.9111 7.28637 21.8988 7.2989C21.8001 7.3996 21.7095 7.5083 21.6282 7.62393C21.3308 8.04657 21.1561 8.56183 21.1561 9.11788C21.1561 10.5533 22.3198 11.7169 23.7551 11.7169C25.1905 11.7169 26.3541 10.5533 26.3541 9.11788C26.3541 8.56188 26.1795 8.04666 25.8822 7.62406C25.8008 7.50843 25.7103 7.39973 25.6116 7.29903C25.5993 7.28645 25.5868 7.274 25.5743 7.26167H25.6116L26.3542 5.03397C24.1265 3.92 22.2701 4.41511 21.1562 5.03391L21.8988 7.26167Z" fill="white"/>
<path d="M21.156 5.0339L21.8986 7.26166H25.6114L26.354 5.03395C24.1263 3.91998 22.2699 4.41509 21.156 5.0339Z" fill="#FDDC5A"/>
<circle cx="23.755" cy="9.11791" r="2.59899" fill="#005120"/>
<path d="M27.8197 9.48933L19.6904 9.48926C19.682 12.2964 19.6541 12.4115 19.6845 15.5207C19.7174 18.9961 23.545 20.3398 23.7545 20.421C23.9615 20.3419 27.7918 18.9961 27.8255 15.5207C27.8551 12.4115 27.8273 12.2965 27.8197 9.48933Z" fill="white"/>
<path d="M27.8197 9.48934L19.6904 9.48926C19.682 12.9982 19.6541 9.3156 19.6845 13.2021H27.8256C27.8552 9.3156 27.8273 12.9983 27.8197 9.48934Z" fill="#D41010"/>
<path fill-rule="evenodd" clip-rule="evenodd" d="M29.2041 18.7378C29.4276 19.0816 29.3301 19.5416 28.9863 19.7651C24.5109 22.6747 20.1435 20.9826 18.4826 19.7366C18.1545 19.4905 18.0881 19.025 18.3341 18.697C18.5802 18.3689 19.0457 18.3024 19.3738 18.5485C20.7007 19.544 24.3779 20.9898 28.1768 18.52C28.5206 18.2965 28.9806 18.394 29.2041 18.7378Z" fill="#FDDC5A"/>
<path fill-rule="evenodd" clip-rule="evenodd" d="M28.0757 18.3643C28.5055 18.0849 29.0804 18.2068 29.3598 18.6366C29.6393 19.0664 29.5174 19.6413 29.0876 19.9208C24.5274 22.8855 20.0737 21.1622 18.3713 19.8851C17.9612 19.5774 17.8781 18.9956 18.1858 18.5856C18.4934 18.1755 19.0752 18.0924 19.4853 18.4C20.7702 19.3639 24.3611 20.7794 28.0757 18.3643ZM29.0486 18.839C28.8809 18.5811 28.536 18.508 28.2781 18.6756C24.3949 21.2003 20.6315 19.724 19.2625 18.697C19.0164 18.5125 18.6673 18.5623 18.4828 18.8084C18.2982 19.0544 18.348 19.4035 18.5941 19.5881C20.2135 20.8029 24.4946 22.464 28.8852 19.6095C29.1431 19.4418 29.2162 19.0969 29.0486 18.839Z" fill="white"/>
<mask id="mask0_11898_82244" style="mask-type:alpha" maskUnits="userSpaceOnUse" x="19" y="9" width="9" height="12">
<path d="M27.8148 9.50007L19.6855 9.5C19.6771 12.3071 19.654 12.4115 19.6844 15.5207C19.7174 18.9961 23.5449 20.3398 23.7545 20.421C23.9615 20.3419 27.7918 18.9961 27.8255 15.5207C27.8551 12.4115 27.8224 12.3072 27.8148 9.50007Z" fill="white"/>
</mask>
<g mask="url(#mask0_11898_82244)">
<path fill-rule="evenodd" clip-rule="evenodd" d="M16.7004 14.8398C17.1847 14.7095 17.6611 14.7423 18.1494 14.9382C18.9302 15.2485 19.7178 15.2485 20.4986 14.9382C21.0885 14.6995 21.6954 14.7029 22.3534 14.9416C23.1922 15.2485 24.0446 15.2485 24.8833 14.9416C25.5414 14.7029 26.1483 14.7029 26.7382 14.9382C27.519 15.2485 28.3066 15.2485 29.0874 14.9382C29.6738 14.7029 30.2432 14.7029 30.8297 14.9382C31.2218 15.095 31.6139 15.1734 32.006 15.1734C32.3981 15.1734 32.7902 15.095 33.1857 14.9382C33.7722 14.7029 34.3416 14.7029 34.928 14.9382L35.2315 14.1778C34.4507 13.8676 33.6631 13.8676 32.8823 14.1778C32.2958 14.4131 31.7264 14.4131 31.14 14.1778C30.3592 13.8676 29.5715 13.8676 28.7907 14.1778C28.2043 14.4131 27.6349 14.4131 27.0484 14.1778C26.271 13.8676 25.4527 13.8676 24.6072 14.1744C23.9457 14.4165 23.2979 14.4165 22.6364 14.1744C21.7908 13.8676 20.9691 13.8676 20.1951 14.1778C19.6087 14.4131 19.0393 14.4131 18.4528 14.1778C17.8706 13.9465 17.2846 13.8876 16.7004 14.0013V14.8398Z" fill="#0163BB"/>
<path fill-rule="evenodd" clip-rule="evenodd" d="M33.037 12.9169C32.7459 12.9048 32.4544 12.8395 32.1591 12.721C31.283 12.3729 30.3993 12.3729 29.5233 12.721C28.8653 12.985 28.2264 12.985 27.5684 12.721C26.6962 12.3729 25.778 12.3729 24.8293 12.7172C24.0871 12.9888 23.3603 12.9888 22.6181 12.7172C21.6694 12.3729 20.7474 12.3729 19.879 12.721C19.221 12.985 18.5821 12.985 17.9241 12.721C17.2708 12.4614 16.6132 12.3954 15.9578 12.523V13.4637C16.5012 13.3175 17.0358 13.3543 17.5837 13.5741C18.4597 13.9222 19.3434 13.9222 20.2195 13.5741C20.8813 13.3063 21.5622 13.3101 22.3006 13.5779C23.2417 13.9222 24.1981 13.9222 25.1392 13.5779C25.8775 13.3101 26.5584 13.3101 27.2203 13.5741C28.0963 13.9222 28.98 13.9222 29.8561 13.5741C30.5141 13.3101 31.153 13.3101 31.811 13.5741C32.2196 13.7376 32.6283 13.8251 33.037 13.8367V12.9169Z" fill="white"/>
<path fill-rule="evenodd" clip-rule="evenodd" d="M30.3388 15.9541C29.8224 15.8892 29.3051 15.9589 28.7907 16.1633C28.2043 16.3986 27.6349 16.3986 27.0484 16.1633C26.271 15.853 25.4527 15.853 24.6072 16.1599C23.9457 16.402 23.2979 16.402 22.6364 16.1599C21.7908 15.853 20.9691 15.853 20.1951 16.1633C19.6087 16.3986 19.0393 16.3986 18.4528 16.1633C17.8706 15.9319 17.2846 15.8731 16.7004 15.9868V16.8253C17.1847 16.695 17.6611 16.7278 18.1494 16.9237C18.9302 17.2339 19.7178 17.2339 20.4986 16.9237C21.0885 16.685 21.6954 16.6884 22.3534 16.9271C23.1922 17.2339 24.0446 17.2339 24.8833 16.9271C25.5414 16.6884 26.1483 16.6884 26.7382 16.9237C27.519 17.2339 28.3066 17.2339 29.0874 16.9237C29.5091 16.7545 29.922 16.707 30.3388 16.7811V15.9541Z" fill="#0163BB"/>
<path fill-rule="evenodd" clip-rule="evenodd" d="M30.3388 17.9395C29.8224 17.8746 29.3051 17.9443 28.7907 18.1487C28.2043 18.384 27.6349 18.384 27.0484 18.1487C26.271 17.8384 25.4527 17.8384 24.6072 18.1453C23.9457 18.3874 23.2979 18.3874 22.6364 18.1453C21.7908 17.8384 20.9691 17.8384 20.1951 18.1487C19.6087 18.384 19.0393 18.384 18.4528 18.1487C17.8706 17.9174 17.2846 17.8585 16.7004 17.9722V18.8107C17.1847 18.6804 17.6611 18.7132 18.1494 18.9091C18.9302 19.2193 19.7178 19.2193 20.4986 18.9091C21.0885 18.6704 21.6954 18.6738 22.3534 18.9125C23.1922 19.2193 24.0446 19.2193 24.8833 18.9125C25.5414 18.6738 26.1483 18.6738 26.7382 18.9091C27.519 19.2193 28.3066 19.2193 29.0874 18.9091C29.5091 18.7399 29.922 18.6924 30.3388 18.7665V17.9395Z" fill="#0163BB"/>
</g>
<ellipse cx="23.755" cy="10.9743" rx="2.59899" ry="0.742567" fill="#FDDC5A"/>
</svg>
