<svg width="32" height="24" viewBox="0 0 32 24" fill="none" xmlns="http://www.w3.org/2000/svg">
<path d="M1 0H31C31.5523 0 32 0.447715 32 1V23C32 23.5523 31.5523 24 31 24H1C0.447715 24 0 23.5523 0 23V1C0 0.447715 0.447715 0 1 0Z" fill="#00B1CB"/>
<path opacity="0.2" fill-rule="evenodd" clip-rule="evenodd" d="M31 0H1C0.447715 0 0 0.447715 0 1V23C0 23.5523 0.447715 24 1 24H31C31.5523 24 32 23.5523 32 23V1C32 0.447715 31.5523 0 31 0ZM1 23V1H31V23H1Z" fill="black"/>
<path fill-rule="evenodd" clip-rule="evenodd" d="M17.8067 14.5324C20.1698 14.5324 22.0855 12.6167 22.0855 10.2535C22.0855 7.89038 20.1698 5.97467 17.8067 5.97467C15.4435 5.97467 13.5278 7.89038 13.5278 10.2535C13.5278 12.6167 15.4435 14.5324 17.8067 14.5324Z" fill="#FEC50C"/>
<path fill-rule="evenodd" clip-rule="evenodd" d="M15.7449 17.7231C15.7519 17.6825 15.7667 17.6402 15.7952 17.5891C15.9285 17.4158 16.0749 17.3407 16.3907 17.2351C16.5382 17.1858 16.5964 17.1641 16.6835 17.1231C16.8981 17.055 17.0506 16.9483 17.2814 16.7082C17.1108 16.5723 16.8857 16.5106 16.5473 16.4866C16.476 16.4816 16.4218 16.479 16.2869 16.4735H16.2869L16.2868 16.4735L16.2866 16.4735L16.2865 16.4735C16.2289 16.4712 16.2288 16.4711 16.1701 16.4685C15.6162 16.4389 15.3164 16.3667 15.0542 16.1246C14.9577 16.0456 14.8859 15.9782 14.7299 15.8253C14.4896 15.5897 14.3798 15.4943 14.2728 15.4232C13.8693 15.3135 13.6066 15.2008 13.3806 15.0081C13.1499 14.8201 12.9983 14.6446 12.687 14.2382C12.406 13.8714 12.2748 13.7174 12.0792 13.5486C12.0407 13.5107 12.004 13.4802 11.9389 13.4319C11.9209 13.4578 11.8973 13.4775 11.8601 13.496C11.8411 13.5055 11.8227 13.5119 11.8047 13.5157C11.8974 13.6775 11.9488 13.8267 11.9624 13.9919C11.9702 14.0869 11.9006 14.1706 11.8058 14.1803C11.8814 14.2661 11.9702 14.3441 12.065 14.413C12.1659 14.4863 12.1556 14.6279 12.0685 14.6941C12.1634 14.7494 12.2466 14.7799 12.338 14.7946L12.4498 14.8616C12.5099 14.9408 12.5119 14.996 12.4877 15.0965C12.5632 15.1232 12.6091 15.1468 12.6497 15.1964C12.7257 15.2894 12.7114 15.3836 12.6568 15.4505L12.6852 15.4581C12.8911 15.5117 12.9545 15.5406 12.9824 15.6809L12.9356 15.8377C13.0436 15.901 13.1694 15.9299 13.2904 15.9341C13.4506 15.9397 13.5197 16.1398 13.3971 16.2429C13.3663 16.2688 13.3386 16.2892 13.3031 16.312C13.603 16.4627 13.9434 16.5913 14.497 16.779C14.7414 16.8607 14.9161 16.9103 15.0907 16.9433C15.3056 16.984 15.2664 17.3026 15.0481 17.29C14.4589 17.256 13.8618 17.0921 13.2347 16.8131C12.9015 16.667 12.6338 16.5566 12.3724 16.4603C12.2692 16.4223 12.2342 16.3086 12.2739 16.2222C12.1386 16.1862 12.0321 16.1419 11.9261 16.0756C11.847 16.0261 11.8206 15.9232 11.8663 15.8417C11.746 15.8129 11.6641 15.7805 11.573 15.7181L11.4989 15.5466C11.507 15.495 11.5197 15.4573 11.5398 15.4292C11.3468 15.3817 11.2231 15.3078 11.0873 15.1497C11.0153 15.0155 11.0806 14.8686 11.2277 14.8409C10.939 14.6884 10.7307 14.5356 10.5317 14.3209L10.5162 14.2973C10.5093 14.2868 10.5026 14.2762 10.4852 14.2486L10.4851 14.2485C10.4687 14.2211 10.4687 14.2211 10.4521 14.1901L10.4521 14.1901C10.4236 14.1348 10.4061 14.0852 10.4036 14.0316C10.3985 13.9238 10.4633 13.8289 10.6346 13.8011C10.3024 13.4803 10.0484 13.1724 9.82766 12.7966C9.80457 12.6168 9.92879 12.4864 10.094 12.461C10.1516 12.4521 10.2105 12.4563 10.263 12.4701C10.1925 12.3543 10.1276 12.2386 10.0675 12.1209C10.022 12.0312 9.99582 11.9653 9.98584 11.8887C9.96681 11.7426 10.0306 11.6117 10.1613 11.5674C10.3878 11.454 10.6247 11.5709 10.7376 11.7654C10.6744 11.5343 10.6438 11.3146 10.6412 11.0744C10.6439 11.0222 10.646 10.9925 10.6503 10.9574C10.6775 10.7351 10.7827 10.5799 10.9818 10.5888C11.1947 10.5565 11.2742 10.6713 11.3199 10.8747C11.33 10.9195 11.3341 10.934 11.3494 10.9702C11.3766 11.0619 11.3975 11.1404 11.431 11.2747C11.5043 11.0684 11.7706 11.0099 11.9921 11.2166C12.0297 11.3086 12.0495 11.3861 12.0845 11.5541L12.0917 11.5882C12.1138 11.6935 12.129 11.7543 12.152 11.8211C12.5128 13.0553 13.3248 14.1607 14.407 14.9074C15.2902 15.5132 16.3369 15.873 17.4068 15.9362C17.4564 15.9405 17.4991 15.943 17.5883 15.9475L17.5883 15.9475C17.6461 15.9504 17.6461 15.9504 17.7007 15.9536H17.7007C17.7879 15.9589 17.8502 16.0243 17.8628 16.1003C17.9118 16.0589 17.9633 16.0191 18.023 15.9765C18.1358 15.9362 18.2248 15.924 18.4203 15.9106C18.5454 15.9018 18.6018 15.8956 18.671 15.8809C19.4169 15.7723 20.1325 15.5331 20.7616 15.1772C22.195 14.3509 23.2439 12.9382 23.553 11.4446C23.516 11.2683 23.6297 11.1201 23.7904 11.0782C23.9483 11.0369 24.113 11.109 24.1648 11.2756C24.1873 11.1895 24.2065 11.1233 24.2354 11.0344C24.2408 11.0244 24.2467 11.0013 24.2575 10.9431C24.2984 10.7218 24.3507 10.6159 24.5403 10.582C24.7059 10.5592 24.8355 10.6379 24.9011 10.7776C24.9408 10.8621 24.9552 10.9588 24.956 11.0739C24.9533 11.3057 24.925 11.5181 24.8644 11.7429C25.0183 11.5255 25.3042 11.436 25.5608 11.6613C25.6121 11.7503 25.6235 11.8472 25.602 11.946C25.584 12.0283 25.5525 12.0928 25.4879 12.2007C25.4412 12.2789 25.433 12.2933 25.4111 12.3394C25.3845 12.3829 25.358 12.4259 25.3314 12.4682C25.3834 12.4524 25.4394 12.4476 25.4943 12.4545C25.6624 12.4756 25.7909 12.6051 25.7438 12.8619C25.536 13.1879 25.2813 13.4914 24.9714 13.7901C25.1018 13.7952 25.1937 13.8997 25.1846 14.0502C25.1791 14.1407 25.1366 14.2546 25.0896 14.3221C24.9321 14.5617 24.7561 14.698 24.3572 14.9401L24.2866 14.9831C24.298 14.9872 24.3091 14.992 24.32 14.9976C24.4757 15.0778 24.4664 15.2421 24.3322 15.3859C24.2187 15.469 24.115 15.521 23.9593 15.5728C24.024 15.6447 24.02 15.763 23.936 15.8281C23.8199 15.9181 23.7039 15.9701 23.5329 16.0149C23.5452 16.0486 23.5495 16.0903 23.5453 16.1423L23.4273 16.294C23.3061 16.3353 23.2094 16.3512 22.9945 16.3745C22.9548 16.3788 22.921 16.3827 22.8898 16.3867C22.9881 16.4624 23.0185 16.5864 22.9107 16.6973C22.8689 16.7404 22.8368 16.7583 22.7254 16.8129L22.7253 16.8129L22.7253 16.8129L22.7252 16.8129L22.7252 16.8129C22.7007 16.825 22.7007 16.825 22.679 16.836C22.653 16.8495 22.6377 16.8594 22.6028 16.8884C22.0701 17.2274 21.412 17.3683 20.7258 17.3156C20.5128 17.2992 20.5093 16.9882 20.7218 16.9669C21.1522 16.9239 21.5807 16.7395 22.0232 16.4161C22.0246 16.4156 22.0256 16.4158 22.0263 16.4159L22.0265 16.4159L22.0271 16.416C22.0273 16.4158 22.027 16.4153 22.0264 16.414C22.0241 16.4093 22.0171 16.3946 22.0034 16.3498L21.9944 16.3207L21.9847 16.2899C21.9479 16.1713 22.0429 16.0531 22.1667 16.0637C22.2036 16.0668 22.2377 16.0662 22.2679 16.0625C22.245 15.9912 22.2608 15.9149 22.3291 15.8431C22.3915 15.7776 22.4812 15.7426 22.59 15.7184C22.609 15.7116 22.6277 15.7041 22.6443 15.6966L22.6235 15.6525C22.6463 15.4905 22.7374 15.4224 22.9238 15.344C22.9217 15.279 22.9374 15.2116 22.9913 15.1645C23.1072 15.0634 23.2066 14.9995 23.4307 14.8705C23.3795 14.7971 23.3641 14.6813 23.4358 14.6036C23.4644 14.5725 23.4961 14.5428 23.5376 14.5067L23.5709 14.4781L23.6022 14.4514C23.6214 14.435 23.6389 14.4197 23.6547 14.4054C23.6142 14.4147 23.5786 14.419 23.536 14.4199C23.3782 14.4234 23.2968 14.2326 23.4085 14.1211C23.5305 13.9993 23.6179 13.8708 23.6637 13.7413C23.5539 13.7506 23.4384 13.7875 23.3277 13.8479C22.9599 14.0661 22.6345 14.3912 22.4073 14.7416C22.3289 14.9646 22.236 15.0918 22.0753 15.1379C21.9313 15.2176 21.8051 15.28 21.5494 15.4013L21.4875 15.4306C20.792 15.7608 20.4842 15.9598 20.2291 16.309L20.1347 16.3744C19.8798 16.4452 19.675 16.4782 19.2154 16.5346C18.7414 16.5928 18.5332 16.6276 18.2697 16.7064C18.1133 16.7377 18.0042 16.8124 17.7717 17.0242C17.6899 17.0988 17.6522 17.1322 17.5955 17.1784C17.4843 17.2561 17.3836 17.3252 17.2907 17.3872C17.3933 17.4431 17.4214 17.5986 17.3119 17.6812L17.3117 17.6814C17.2863 17.7008 17.2763 17.7084 17.2628 17.7189C17.2754 17.7574 17.2749 17.8003 17.2586 17.8397C17.2685 17.836 17.2806 17.8319 17.2963 17.8265C17.367 17.8119 17.3996 17.8236 17.465 17.8585L17.4708 17.8616C17.5254 17.8831 17.5874 17.8941 17.6931 17.9034L17.7365 17.907H17.7365L17.7365 17.907C17.7761 17.9103 17.7761 17.9103 17.7999 17.9133L18.2986 17.9147C18.3117 17.9163 18.3117 17.9163 18.3274 17.9179L18.3274 17.9179L18.3434 17.9196C18.4254 17.9286 18.4791 17.9412 18.5393 17.976C18.6086 18.0161 18.6384 18.0944 18.6225 18.1657C18.9961 18.1594 19.1965 18.1309 19.4035 18.0559C19.4229 18.0441 19.4846 18.0114 19.5113 17.9973L19.5113 17.9973L19.5114 17.9973L19.5115 17.9972L19.5236 17.9908C19.5639 17.9685 19.5691 17.9692 19.5819 17.9917C19.5399 17.9143 19.5448 17.8177 19.6165 17.7453C19.6553 17.7061 19.6896 17.6909 19.7534 17.6708L19.7909 17.6591C19.8033 17.5706 19.8502 17.4985 19.9304 17.4553C19.992 17.4222 20.0375 17.4153 20.1453 17.4087L20.1745 17.4068L20.1984 17.4049L20.2154 17.4035C20.5192 17.3904 20.7762 17.4076 21.2792 17.4618L21.3193 17.4661C21.6854 17.5056 21.8475 17.5201 22.0485 17.5274L22.2152 17.6754C22.2808 18.0986 21.8322 18.4165 21.5232 18.2876C21.4665 18.2968 21.4145 18.2871 21.3636 18.2645C21.3417 18.3911 21.3007 18.4758 21.2038 18.5466L21.1906 18.5553C21.0096 18.664 20.8796 18.627 20.6783 18.4934L20.6755 18.5L20.6664 18.5218C20.6225 18.6261 20.59 18.6842 20.5418 18.7272C20.4206 18.8652 20.2449 18.8694 20.1176 18.7597C19.9823 18.9333 19.862 18.9988 19.5902 18.9344C19.5704 18.9182 19.5527 18.9015 19.5327 18.8807C19.4785 18.9468 19.4069 19.0065 19.3326 19.041C19.2099 19.0978 19.0797 19.0861 18.974 18.9682C18.8467 19.1224 18.6317 19.1918 18.4032 19.0891C18.3753 19.0662 18.3546 19.0424 18.3399 19.0168C18.2162 19.1407 18.1126 19.1883 17.9493 19.173L17.8351 19.1151C17.8122 19.0895 17.7952 19.0651 17.7829 19.0404C17.6908 19.1201 17.5954 19.1639 17.4763 19.1732L17.3525 19.1347C17.2939 19.0873 17.2633 19.0314 17.25 18.9643C17.0218 19.1109 16.8644 19.1587 16.6565 19.1034C16.5634 19.0786 16.5078 18.9832 16.5322 18.89C16.6061 18.6073 16.806 18.4164 17.0812 18.3053C16.8324 18.3104 16.6569 18.3195 16.4723 18.3386C16.2183 18.3584 16.1072 18.3766 16.0459 18.3894C15.9765 18.4618 15.8583 18.5076 15.7847 18.4326C15.7491 18.4444 15.6964 18.4601 15.619 18.4831C15.5766 18.4567 15.5595 18.4461 15.5468 18.4316C15.5382 18.4218 15.5316 18.4103 15.5206 18.3909C15.4823 18.3079 15.4629 18.2178 15.4703 18.119L15.471 18.1141C15.4843 18.0196 15.4979 17.97 15.5346 17.921C15.5843 17.8369 15.6448 17.7842 15.7449 17.7231Z" fill="#FEC50C"/>
<path fill-rule="evenodd" clip-rule="evenodd" d="M4.44705 13.0163C4.44454 13.0119 4.44205 13.0075 4.43961 13.0032L4.44705 13.0163ZM4.77349 19.963C4.78442 19.9644 4.79543 19.9651 4.80641 19.9651C4.88039 19.9651 4.94882 19.9271 5 19.8877C5.05118 19.9271 5.11961 19.9651 5.19359 19.9651C5.20457 19.9651 5.21558 19.9644 5.22651 19.963C5.21482 19.8194 5.15032 19.5936 5.08607 19.3687C5.0554 19.2613 5.02478 19.1541 5 19.0562C4.97521 19.1541 4.9446 19.2613 4.91393 19.3687C4.84967 19.5936 4.78517 19.8194 4.77349 19.963ZM5.53217 17.2129C5.52832 17.2106 5.52448 17.2083 5.52063 17.2061L5.53217 17.2129ZM4.99994 12.4353L5 12.4354L5.00006 12.4353C5.03239 12.3373 5.14214 12.1443 5.29937 12.1152C5.30382 12.1124 5.30839 12.1096 5.31309 12.107C5.30839 12.1044 5.30382 12.1017 5.29937 12.0989C5.14214 12.0698 5.03239 11.8767 5.00006 11.7788L5 11.7786L4.99994 11.7788C4.9676 11.8767 4.85786 12.0698 4.70063 12.0989C4.69618 12.1017 4.6916 12.1044 4.68691 12.107C4.6916 12.1096 4.69618 12.1124 4.70063 12.1152C4.85786 12.1443 4.9676 12.3373 4.99994 12.4353ZM5 13.2233L4.99999 13.2227C4.93259 13.2674 4.82992 13.4186 4.82989 13.5551C4.82989 13.656 4.88488 13.7084 4.93646 13.7316C4.7239 13.7087 4.63206 13.7993 4.58728 13.967C4.70594 13.9237 4.89263 13.9195 4.88658 14.0651C4.88658 14.0651 4.87808 14.4525 4.87524 14.5506C4.82705 14.477 4.74439 14.4574 4.63942 14.4574C4.49544 14.4574 4.51116 14.3525 4.53511 14.2613C4.45941 14.2904 4.38228 14.3429 4.4104 14.4672C4.34602 14.4685 4.30415 14.5038 4.26982 14.5506C4.31345 14.6036 4.36073 14.629 4.4104 14.6364C4.39638 14.7165 4.44738 14.7924 4.53511 14.835C4.50701 14.7535 4.49845 14.6241 4.63942 14.6241C4.69837 14.6241 4.73919 14.673 4.73919 14.7541C4.73919 14.8821 4.61221 14.9845 4.4875 14.9845C4.38318 14.9845 4.19952 14.909 4.19952 14.6928C4.19952 14.6068 4.2192 14.5274 4.25168 14.4525C4.40477 14.0994 4.89579 12.9764 4.99994 12.7411L5 12.7409L5.00006 12.7411C5.1042 12.9764 5.59523 14.0994 5.74832 14.4525C5.78079 14.5274 5.80047 14.6068 5.80047 14.6928C5.80047 14.909 5.61681 14.9845 5.5125 14.9845C5.38779 14.9845 5.26081 14.8821 5.26081 14.7541C5.26081 14.673 5.30163 14.6241 5.36058 14.6241C5.50155 14.6241 5.49299 14.7535 5.46489 14.835C5.55262 14.7924 5.60362 14.7165 5.5896 14.6364C5.63927 14.629 5.68655 14.6036 5.73018 14.5506C5.69585 14.5038 5.65398 14.4685 5.5896 14.4672C5.61772 14.3429 5.54059 14.2904 5.46489 14.2613C5.48883 14.3525 5.50456 14.4574 5.36058 14.4574C5.25561 14.4574 5.17295 14.477 5.12475 14.5506C5.12192 14.4525 5.11342 14.0651 5.11342 14.0651C5.10737 13.9195 5.29406 13.9237 5.41272 13.967C5.36794 13.7993 5.2761 13.7087 5.06353 13.7316C5.11512 13.7084 5.17011 13.656 5.17011 13.5551C5.17007 13.4186 5.06741 13.2674 5.00001 13.2227L5 13.2233ZM5 14.8417C5.07517 15.1472 5.26379 15.3213 5.43778 15.3588C5.26379 15.3962 5.07517 15.5703 5 15.8759C4.92482 15.5703 4.7362 15.3962 4.56221 15.3588C4.7362 15.3213 4.92482 15.1472 5 14.8417ZM5.00006 18.1594L5 18.1592L4.99994 18.1594C4.9676 18.2573 4.85786 18.4503 4.70063 18.4795C4.69204 18.4849 4.68298 18.4899 4.6735 18.4947C4.81523 18.5468 4.93443 18.632 5 18.8086C5.06557 18.632 5.18477 18.5468 5.3265 18.4947C5.31702 18.4899 5.30796 18.4849 5.29937 18.4795C5.14214 18.4503 5.03239 18.2573 5.00006 18.1594ZM5 17.6397L4.99994 17.6395C4.89579 17.4042 4.40477 16.2812 4.25168 15.9281C4.2192 15.8532 4.19952 15.7738 4.19952 15.6878C4.19952 15.4716 4.38318 15.396 4.4875 15.396C4.61221 15.396 4.73919 15.4985 4.73919 15.6265C4.73919 15.7076 4.69837 15.7565 4.63942 15.7565C4.49845 15.7565 4.50701 15.6271 4.53511 15.5456C4.44738 15.5882 4.39638 15.6641 4.4104 15.7442C4.36073 15.7515 4.31345 15.777 4.26982 15.83C4.30415 15.8768 4.34602 15.9121 4.4104 15.9134C4.38228 16.0376 4.45941 16.0902 4.53511 16.1193C4.51116 16.0281 4.49544 15.9232 4.63942 15.9232C4.74439 15.9232 4.82705 15.9036 4.87524 15.83C4.87808 15.9281 4.88658 16.3155 4.88658 16.3155C4.89263 16.4611 4.70594 16.4569 4.58728 16.4136C4.63206 16.5813 4.7239 16.6719 4.93646 16.6489C4.88488 16.6722 4.82989 16.7246 4.82989 16.8255C4.82992 16.962 4.93259 17.1132 4.99999 17.1579L5 17.1573L5.00001 17.1579C5.06741 17.1132 5.17007 16.962 5.17011 16.8255C5.17011 16.7246 5.11512 16.6722 5.06353 16.6489C5.2761 16.6719 5.36794 16.5813 5.41272 16.4136C5.29406 16.4569 5.10737 16.4611 5.11342 16.3155C5.11342 16.3155 5.12192 15.9281 5.12475 15.83C5.17295 15.9036 5.25561 15.9232 5.36058 15.9232C5.50456 15.9232 5.48883 16.0281 5.46489 16.1193C5.54059 16.0902 5.61772 16.0376 5.5896 15.9134C5.65398 15.9121 5.69585 15.8768 5.73018 15.83C5.68655 15.777 5.63927 15.7515 5.5896 15.7442C5.60362 15.6641 5.55262 15.5882 5.46489 15.5456C5.49299 15.6271 5.50155 15.7565 5.36058 15.7565C5.30163 15.7565 5.26081 15.7076 5.26081 15.6265C5.26081 15.4985 5.38779 15.396 5.5125 15.396C5.61681 15.396 5.80047 15.4716 5.80047 15.6878C5.80047 15.7738 5.78079 15.8532 5.74832 15.9281C5.59523 16.2812 5.1042 17.4042 5.00006 17.6395L5 17.6397ZM5 9.49531C4.92482 9.18977 4.7362 9.01566 4.56221 8.97821C4.7362 8.94077 4.92482 8.76666 5 8.46112C5.07517 8.76666 5.26379 8.94077 5.43778 8.97821C5.26379 9.01566 5.07517 9.18977 5 9.49531ZM5.00001 10.7774L5 10.7768L4.99999 10.7774C4.93259 10.7326 4.82992 10.5814 4.82989 10.4449C4.82989 10.344 4.88488 10.2917 4.93646 10.2684C4.7239 10.2914 4.63206 10.2007 4.58728 10.033C4.70594 10.0763 4.89263 10.0805 4.88658 9.93493C4.88658 9.93493 4.87808 9.54752 4.87524 9.44945C4.82705 9.52301 4.74439 9.54262 4.63942 9.54262C4.49544 9.54262 4.51116 9.64757 4.53511 9.73877C4.45941 9.70963 4.38228 9.65708 4.4104 9.53282C4.34602 9.53156 4.30415 9.49622 4.26982 9.44946C4.31345 9.3964 4.36073 9.37098 4.4104 9.36364C4.39638 9.28355 4.44738 9.20759 4.53511 9.16505C4.50701 9.24654 4.49845 9.3759 4.63942 9.3759C4.69837 9.3759 4.73919 9.32705 4.73919 9.24595C4.73919 9.11797 4.61221 9.01548 4.4875 9.01548C4.38318 9.01548 4.19952 9.09099 4.19952 9.30726C4.19952 9.39325 4.2192 9.47266 4.25168 9.54754C4.40477 9.9006 4.89579 11.0237 4.99994 11.259L5 11.2591L5.00006 11.259C5.1042 11.0237 5.59523 9.9006 5.74832 9.54754C5.78079 9.47266 5.80047 9.39325 5.80047 9.30726C5.80047 9.09099 5.61681 9.01548 5.5125 9.01548C5.38779 9.01548 5.26081 9.11797 5.26081 9.24595C5.26081 9.32705 5.30163 9.3759 5.36058 9.3759C5.50155 9.3759 5.49299 9.24654 5.46489 9.16505C5.55262 9.20759 5.60362 9.28355 5.5896 9.36364C5.63927 9.37098 5.68655 9.3964 5.73018 9.44946C5.69585 9.49622 5.65398 9.53156 5.5896 9.53282C5.61772 9.65708 5.54059 9.70963 5.46489 9.73877C5.48883 9.64757 5.50456 9.54262 5.36058 9.54262C5.25561 9.54262 5.17295 9.52301 5.12475 9.44945C5.12192 9.54752 5.11342 9.93493 5.11342 9.93493C5.10737 10.0805 5.29406 10.0763 5.41272 10.033C5.36794 10.2007 5.2761 10.2914 5.06353 10.2684C5.11512 10.2917 5.17011 10.344 5.17011 10.4449C5.17007 10.5814 5.06741 10.7326 5.00001 10.7774ZM5 6.8427L4.99999 6.84211C4.93259 6.88682 4.82992 7.03804 4.82989 7.17455C4.82989 7.27542 4.88488 7.32779 4.93646 7.35108C4.7239 7.32811 4.63206 7.41877 4.58728 7.58646C4.70594 7.54312 4.89263 7.53896 4.88658 7.68453C4.88658 7.68453 4.87808 8.07194 4.87524 8.17002C4.82705 8.09646 4.74439 8.07684 4.63942 8.07684C4.49544 8.07684 4.51116 7.97189 4.53511 7.88069C4.45941 7.90983 4.38228 7.96238 4.4104 8.08664C4.34602 8.0879 4.30415 8.12325 4.26982 8.17001C4.31345 8.22307 4.36073 8.24848 4.4104 8.25582C4.39638 8.33592 4.44738 8.41187 4.53511 8.45442C4.50701 8.37292 4.49845 8.24356 4.63942 8.24356C4.69837 8.24356 4.73919 8.29241 4.73919 8.37351C4.73919 8.5015 4.61221 8.60398 4.4875 8.60398C4.38318 8.60398 4.19952 8.52848 4.19952 8.31221C4.19952 8.22622 4.2192 8.1468 4.25168 8.07192C4.40477 7.71886 4.89579 6.59579 4.99994 6.3605L5 6.36036L5.00006 6.3605C5.1042 6.59579 5.59523 7.71886 5.74832 8.07192C5.78079 8.1468 5.80047 8.22622 5.80047 8.31221C5.80047 8.52848 5.61681 8.60398 5.5125 8.60398C5.38779 8.60398 5.26081 8.5015 5.26081 8.37351C5.26081 8.29241 5.30163 8.24356 5.36058 8.24356C5.50155 8.24356 5.49299 8.37292 5.46489 8.45442C5.55262 8.41187 5.60362 8.33592 5.5896 8.25582C5.63927 8.24848 5.68655 8.22307 5.73018 8.17001C5.69585 8.12325 5.65398 8.0879 5.5896 8.08664C5.61772 7.96238 5.54059 7.90983 5.46489 7.88069C5.48883 7.97189 5.50456 8.07684 5.36058 8.07684C5.25561 8.07684 5.17295 8.09646 5.12475 8.17002C5.12192 8.07194 5.11342 7.68453 5.11342 7.68453C5.10737 7.53896 5.29406 7.54312 5.41272 7.58646C5.36794 7.41877 5.2761 7.32811 5.06353 7.35108C5.11512 7.32779 5.17011 7.27542 5.17011 7.17455C5.17007 7.03804 5.06741 6.88682 5.00001 6.84211L5 6.8427ZM4.99994 6.05229L5 6.05248L5.00006 6.05229C5.03239 5.95434 5.14214 5.76132 5.29937 5.73219C5.30796 5.72678 5.31702 5.72171 5.3265 5.71697C5.18477 5.66487 5.06557 5.57967 5 5.403C4.93443 5.57967 4.81523 5.66487 4.6735 5.71697C4.68298 5.72171 4.69204 5.72678 4.70063 5.73219C4.85786 5.76132 4.9676 5.95434 4.99994 6.05229ZM5.00023 4.32202L5.00012 4.32226L5 4.32233L5.00023 4.32202ZM4.99977 4.32202L5 4.32233L4.99988 4.32226L4.99977 4.32202Z" fill="#FEC50C"/>
</svg>
