<svg width="32" height="24" viewBox="0 0 32 24" fill="none" xmlns="http://www.w3.org/2000/svg">
<path fill-rule="evenodd" clip-rule="evenodd" d="M1 0H31C31.5523 0 32 0.447715 32 1V23C32 23.5523 31.5523 24 31 24H1C0.447715 24 0 23.5523 0 23V1C0 0.447715 0.447715 0 1 0Z" fill="#F7F7F7"/>
<path d="M0 1C0 0.447715 0.447715 0 1 0H31C31.5523 0 32 0.447715 32 1V8H0V1Z" fill="#EE161E"/>
<path fill-rule="evenodd" clip-rule="evenodd" d="M1 24C0.447715 24 0 23.1046 0 22V16H32V22C32 23.1046 31.5523 24 31 24H1Z" fill="#EE161E"/>
<path opacity="0.2" fill-rule="evenodd" clip-rule="evenodd" d="M31 0H1C0.447715 0 0 0.447715 0 1V23C0 23.5523 0.447715 24 1 24H31C31.5523 24 32 23.5523 32 23V1C32 0.447715 31.5523 0 31 0ZM1 23V1H31V23H1Z" fill="black"/>
<path fill-rule="evenodd" clip-rule="evenodd" d="M14.9754 8.85435C15.2848 8.61495 15.6085 8.36196 15.7804 8C15.8436 8.14555 15.909 8.29147 15.998 8.42341C16.1417 8.65494 16.3944 8.81063 16.6651 8.83784C16.9066 8.86859 17.1291 8.97928 17.3255 9.11912C17.3522 9.13722 17.3785 9.15597 17.4048 9.17472C17.4858 9.23242 17.5668 9.29006 17.6573 9.32854C17.759 9.37846 17.7435 9.57683 17.6074 9.51988C17.526 9.47779 17.2893 9.52608 17.4173 9.63541L17.4796 9.68311C17.6103 9.78343 17.7416 9.88427 17.8869 9.96264C17.8951 9.96608 17.905 9.96987 17.9159 9.97404L17.9159 9.97404C17.9925 10.0033 18.117 10.0508 18.0064 10.1203C17.9295 10.1303 17.8484 10.1143 17.7678 10.0985L17.7678 10.0985C17.7442 10.0938 17.7206 10.0892 17.6972 10.0852C17.6253 10.0674 17.5568 10.0395 17.4883 10.0116C17.4315 9.98846 17.3748 9.96536 17.3163 9.94807C17.2253 9.92257 17.0969 9.97224 17.1049 10.0813C17.1211 10.166 17.1979 10.198 17.272 10.2289L17.272 10.2289L17.272 10.2289C17.3016 10.2413 17.3307 10.2534 17.3554 10.2687C17.4822 10.3608 17.602 10.4618 17.7218 10.5629L17.7218 10.5629L17.7218 10.5629L17.7218 10.5629L17.7218 10.5629L17.7219 10.5629L17.7219 10.5629L17.7219 10.5629L17.7219 10.5629L17.7219 10.5629L17.7219 10.5629L17.7219 10.5629L17.7219 10.5629L17.7219 10.5629L17.7219 10.5629L17.7219 10.5629C17.8268 10.6515 17.9318 10.74 18.0415 10.8225L18.0467 10.8264C18.2579 10.9833 18.4742 11.144 18.7241 11.2334C18.8309 11.2435 18.9221 11.4159 18.8041 11.4742C18.734 11.4589 18.6627 11.4514 18.5915 11.4439C18.5212 11.4365 18.4509 11.4292 18.3818 11.4143C18.352 11.4106 18.3233 11.3996 18.2947 11.3886C18.2449 11.3695 18.1954 11.3505 18.1414 11.3706C18.0116 11.392 17.9933 11.5864 18.141 11.5952C18.3522 11.6378 18.5607 11.6922 18.7656 11.7594C18.8071 11.775 18.8518 11.7842 18.8965 11.7933C18.9772 11.8098 19.0581 11.8263 19.121 11.8814C19.2103 11.9976 19.0125 12.1141 18.9135 12.0467C18.8201 12.0473 18.7269 12.0548 18.6338 12.0623L18.6337 12.0623L18.6336 12.0623C18.6046 12.0646 18.5756 12.067 18.5465 12.0691C18.4408 12.0838 18.3356 12.0767 18.2297 12.0696L18.2188 12.0688C18.1121 12.0576 18.0021 12.1949 18.0847 12.2846C18.1726 12.2787 18.2615 12.2822 18.3483 12.298C18.5072 12.3174 18.6366 12.4188 18.7548 12.5189C18.826 12.5792 18.8929 12.645 18.9598 12.7108C19.0859 12.8348 19.2121 12.9589 19.367 13.0463C19.4978 13.0622 19.5686 13.2736 19.4225 13.3194C19.2799 13.3192 19.1429 13.2659 19.0213 13.1947C18.8774 13.0731 18.6478 13.0182 18.4856 13.1361C18.3622 13.1981 18.3865 13.4129 18.52 13.4468C18.6746 13.5522 18.8395 13.6431 19.0043 13.734C19.2914 13.8923 19.5785 14.0505 19.8114 14.2856C19.8768 14.3243 19.8989 14.4112 19.8676 14.4791C19.8417 14.5548 19.7511 14.5957 19.6803 14.5527C19.53 14.4963 19.3986 14.4048 19.2674 14.3134C19.1225 14.2125 18.9776 14.1116 18.8073 14.0579C18.576 13.9893 18.3364 13.9997 18.0975 14.0101C17.9918 14.0147 17.8863 14.0193 17.7816 14.017C17.5926 14.0287 17.4239 13.9449 17.2584 13.8628C17.2171 13.8423 17.1759 13.8218 17.1347 13.803C16.9882 13.716 16.7788 13.8054 16.7369 13.9692C16.7036 14.2236 16.6829 14.4838 16.7223 14.7389C16.7514 14.9947 16.9098 15.2125 17.0931 15.3837C17.1123 15.4009 17.1314 15.4181 17.1505 15.4354L17.1506 15.4355C17.2556 15.5304 17.3611 15.626 17.4815 15.7005C17.5791 15.7426 17.6989 15.8408 17.6361 15.9585C17.535 16.0724 17.3988 15.9249 17.3366 15.839C17.2462 15.7074 17.1135 15.5985 16.9543 15.5655C16.896 15.562 16.839 15.5497 16.7821 15.5374L16.782 15.5374C16.7222 15.5244 16.6623 15.5115 16.6009 15.5087C16.4638 15.4738 16.4233 15.6337 16.4516 15.7383C16.4165 15.8848 16.264 15.7186 16.2181 15.6541C16.1955 15.6394 16.1719 15.625 16.1481 15.6105L16.1481 15.6105C16.0379 15.5433 15.9223 15.473 15.88 15.3455C15.8518 15.2129 15.6826 15.184 15.5748 15.2333C15.4942 15.2722 15.4149 15.244 15.3358 15.2157C15.2939 15.2008 15.2521 15.1859 15.2102 15.1809C15.0309 15.1831 14.8918 15.299 14.7587 15.4098C14.7288 15.4347 14.6992 15.4594 14.6695 15.4824C14.4891 15.6431 14.2426 15.6859 14.0104 15.7112C13.856 15.7167 13.6857 15.756 13.5891 15.8877C13.5543 16.06 13.313 15.8429 13.4737 15.7899C13.5867 15.69 13.7262 15.6389 13.8658 15.5877C13.9408 15.5602 14.0159 15.5326 14.0868 15.4975C14.4097 15.3029 14.6503 14.9918 14.8085 14.6532C14.9086 14.4979 14.9173 14.2876 14.8224 14.1277C14.7279 13.9483 14.502 13.8613 14.3105 13.9237C14.1588 13.9804 14.0103 14.0475 13.8617 14.1145C13.5594 14.2509 13.2569 14.3874 12.9266 14.438C12.8836 14.4399 12.8402 14.4444 12.7966 14.4489C12.6787 14.4611 12.5597 14.4734 12.446 14.4344C12.2987 14.3915 12.3998 14.1526 12.5341 14.1901C12.6054 14.167 12.677 14.1446 12.7488 14.1221L12.7488 14.1221C13.0378 14.0317 13.3277 13.9411 13.5965 13.7998C13.7053 13.7457 13.8427 13.6688 13.8429 13.5302C13.8222 13.3988 13.6613 13.3486 13.5458 13.3771C13.4694 13.4051 13.3976 13.4445 13.3258 13.4838L13.3258 13.4838C13.2821 13.5078 13.2385 13.5317 13.1938 13.5531C12.8759 13.7203 12.5404 13.8722 12.1808 13.9155C12.0972 13.9262 11.9569 13.8712 12.0128 13.7669C12.0498 13.7314 12.1006 13.7176 12.151 13.704C12.2173 13.6861 12.2829 13.6683 12.3158 13.6011C12.596 13.3088 12.9116 13.0439 13.275 12.8612C13.3986 12.8155 13.5377 12.7401 13.549 12.5916C13.5849 12.439 13.4124 12.281 13.2659 12.3469C13.2052 12.3769 13.1483 12.4166 13.0914 12.4564L13.0914 12.4564L13.0914 12.4564C12.9829 12.5323 12.8743 12.6083 12.7383 12.6168C12.6399 12.6197 12.5219 12.5288 12.5637 12.422C12.6886 12.3308 12.7978 12.2208 12.9064 12.1113L12.926 12.0916C13.0253 11.9664 13.1612 11.8738 13.3125 11.823C13.4691 11.7874 13.6176 11.7127 13.7311 11.5977C13.7476 11.5784 13.7652 11.5596 13.7827 11.5407L13.7828 11.5407L13.7828 11.5407C13.8395 11.4798 13.8968 11.4181 13.9243 11.3386C13.9729 11.2084 13.9329 11.0219 13.7902 10.9717C13.6966 10.9513 13.6103 10.9852 13.5237 11.0193L13.5237 11.0193C13.4648 11.0425 13.4057 11.0658 13.3441 11.0719C13.2034 11.1159 13.0882 10.9367 13.2206 10.8463C13.3232 10.7713 13.4302 10.7002 13.5404 10.6359C13.5954 10.6038 13.6545 10.5761 13.7138 10.5483L13.7138 10.5483L13.7138 10.5483C13.862 10.4788 14.0116 10.4086 14.1028 10.2675C14.1645 10.1305 14.2773 9.98682 14.4406 9.98182C14.5683 10.0219 14.7068 9.84657 14.6095 9.74255C14.5809 9.7196 14.5361 9.71715 14.4922 9.71475C14.4215 9.71089 14.353 9.70714 14.3567 9.61863C14.4443 9.52672 14.5564 9.46402 14.6669 9.40397C14.7192 9.36763 14.7766 9.33976 14.8341 9.31191L14.8341 9.3119C14.9138 9.27323 14.9935 9.23461 15.0588 9.17346C15.1843 9.07893 14.9684 8.96252 14.8898 9.05043C14.8086 8.99247 14.8982 8.91841 14.9552 8.87131C14.9627 8.86517 14.9695 8.85948 14.9754 8.85435ZM14.8913 9.5189C15.0308 9.52304 15.0094 9.77453 14.872 9.75775C14.7386 9.74916 14.7467 9.49189 14.8913 9.5189ZM16.2075 9.65433C16.3433 9.63004 16.372 9.87783 16.2364 9.88946C16.095 9.91476 16.0426 9.63865 16.2075 9.65433ZM15.7962 9.95561C15.9352 9.95351 15.9596 9.71371 15.822 9.68663C15.7858 9.69374 15.7511 9.70554 15.7164 9.71735C15.6823 9.72893 15.6483 9.7405 15.6128 9.74765C15.5195 9.7764 15.3986 9.90718 15.4822 9.99562C15.5573 10.0336 15.6359 10.0069 15.7125 9.98086L15.7125 9.98086C15.7408 9.97124 15.7688 9.96172 15.7962 9.95561ZM16.7092 9.68767C16.8419 9.73606 16.7951 9.97024 16.6552 9.96726C16.5229 9.98499 16.4612 9.76425 16.5846 9.7119C16.6246 9.69773 16.6664 9.6858 16.7092 9.68767ZM15.1322 10.2681C15.2525 10.2253 15.3101 10.0461 15.2125 9.95332C15.1279 9.9718 15.0534 10.0195 14.9859 10.0719C14.978 10.0786 14.9695 10.0855 14.9607 10.0926L14.9607 10.0926C14.8853 10.1539 14.787 10.2339 14.8329 10.3366C14.9093 10.4126 15.0014 10.3522 15.0797 10.3009L15.0797 10.3009L15.0797 10.3009L15.0797 10.3009L15.0797 10.3009L15.0797 10.3009L15.0797 10.3009L15.0797 10.3009L15.0797 10.3009L15.0797 10.3009L15.0797 10.3009L15.0797 10.3009L15.0797 10.3009L15.0797 10.3009L15.0797 10.3009L15.0797 10.3009L15.0797 10.3009C15.0981 10.2888 15.1157 10.2773 15.1322 10.2681ZM16.3266 10.4711C16.4662 10.537 16.3953 10.7887 16.242 10.7731C16.1162 10.7412 16.1326 10.5253 16.2594 10.508C16.2834 10.4989 16.3053 10.4854 16.3266 10.4711ZM15.7827 10.7438C15.9143 10.7752 16.014 10.5572 15.8834 10.4961C15.8586 10.5068 15.8313 10.5081 15.8047 10.5094L15.7993 10.5096C15.6488 10.488 15.6463 10.7278 15.7827 10.7438ZM16.8387 10.6211C16.9818 10.5767 17.1542 10.7242 17.1077 10.8737C17.044 10.9897 16.8862 11.0044 16.7732 10.961C16.6434 10.9546 16.5561 10.7595 16.6717 10.6769C16.7195 10.6408 16.7799 10.6259 16.8387 10.6211ZM14.8674 10.8731C14.9681 10.7878 14.8424 10.5942 14.724 10.6586C14.5927 10.6168 14.4913 10.7957 14.554 10.9022C14.6295 11.0112 14.8007 10.9712 14.8674 10.8731ZM14.1779 10.7503C14.3122 10.7686 14.3997 10.8906 14.4493 11.0067C14.4614 11.1483 14.2526 11.2259 14.1615 11.1229C14.0591 11.0587 13.9694 10.9265 14.0231 10.8039C14.0562 10.7552 14.1221 10.7351 14.1779 10.7503ZM17.5717 11.5405C17.6968 11.4563 17.591 11.2234 17.4453 11.2618C17.3835 11.267 17.3241 11.3035 17.2945 11.3585C17.2348 11.5068 17.4573 11.6444 17.5717 11.5405ZM15.5905 11.5274C15.7127 11.543 15.6731 11.7548 15.5601 11.7477C15.4389 11.7252 15.4666 11.5155 15.5905 11.5274ZM14.9707 11.6399C15.0703 11.5694 15.1989 11.7415 15.116 11.8217C15.0166 11.8917 14.8877 11.7223 14.9707 11.6399ZM15.9562 11.6608C16.0717 11.731 16.1403 11.8619 16.1546 11.9939C16.0993 12.1173 15.8855 12.0876 15.8614 11.9562C15.8191 11.8523 15.858 11.7186 15.9562 11.6608ZM16.3001 11.865C16.449 11.8276 16.3955 12.1387 16.2712 12.0308C16.2299 11.9818 16.2521 11.901 16.3001 11.865ZM14.1401 12.0817C14.2387 12.0528 14.3824 12.0831 14.4096 12.1963C14.4211 12.3026 14.3042 12.3579 14.2185 12.3843C14.1838 12.395 14.1493 12.4074 14.1148 12.4198C14.0125 12.4567 13.9096 12.4938 13.7992 12.4868C13.6946 12.4271 13.6534 12.3082 13.6159 12.2L13.6093 12.1812C13.6844 12.1108 13.7845 12.1044 13.8833 12.0981H13.8833C13.9251 12.0955 13.9665 12.0928 14.0058 12.0854C14.0506 12.0831 14.0953 12.082 14.1401 12.0817ZM17.6464 12.8004C17.7516 12.7072 17.6164 12.5076 17.4907 12.5692C17.4494 12.5673 17.4102 12.5796 17.3713 12.5918C17.3601 12.5953 17.3489 12.5988 17.3378 12.602C17.2188 12.6212 17.0848 12.7187 17.1037 12.8528C17.2612 12.9801 17.5147 12.9519 17.6464 12.8004ZM18.1974 12.7223C18.3403 12.6978 18.4528 12.9016 18.3508 13.0071C18.2542 13.1527 18.024 13.1909 17.8923 13.0715C17.841 12.9508 17.9451 12.825 18.0559 12.7863C18.0754 12.778 18.0944 12.7688 18.1134 12.7596L18.1134 12.7596L18.1134 12.7596L18.1134 12.7596C18.141 12.7462 18.1686 12.7328 18.1974 12.7223ZM14.8799 13.1877C14.8973 13.0573 14.776 12.926 14.6437 12.939C14.613 12.9357 14.593 12.9708 14.5944 12.9979C14.6036 13.0324 14.6102 13.0682 14.6168 13.1042C14.6335 13.1952 14.6503 13.2869 14.7106 13.36C14.8061 13.4576 14.9757 13.282 14.8799 13.1877ZM15.6595 13.0151C15.7963 12.9559 15.9732 13.1196 15.8988 13.2581C15.8456 13.371 15.6382 13.3331 15.6451 13.2024L15.6446 13.1727C15.6437 13.1197 15.6428 13.0662 15.6595 13.0151ZM15.1653 13.1036C15.3025 13.0722 15.4283 13.25 15.3521 13.3686C15.2153 13.3808 15.1443 13.2185 15.1653 13.1036Z" fill="#00A651"/>
</svg>
