<svg width="32" height="24" viewBox="0 0 32 24" fill="none" xmlns="http://www.w3.org/2000/svg">
<path fill-rule="evenodd" clip-rule="evenodd" d="M1 0H31C31.5523 0 32 0.447715 32 1V23C32 23.5523 31.5523 24 31 24H1C0.447715 24 0 23.5523 0 23V1C0 0.447715 0.447715 0 1 0Z" fill="#002B81"/>
<path fill-rule="evenodd" clip-rule="evenodd" d="M0 12H32V23C32 23.5523 31.5523 24 31 24H1C0.447715 24 0 23.5523 0 23V12Z" fill="#CF001B"/>
<path opacity="0.2" fill-rule="evenodd" clip-rule="evenodd" d="M31 0H1C0.447715 0 0 0.447715 0 1V23C0 23.5523 0.447715 24 1 24H31C31.5523 24 32 23.5523 32 23V1C32 0.447715 31.5523 0 31 0ZM1 23V1H31V23H1Z" fill="#002B81"/>
<path fill-rule="evenodd" clip-rule="evenodd" d="M7.9 4.5V4.80655C8.20309 4.6125 8.56341 4.5 8.95 4.5C10.027 4.5 10.9 5.37304 10.9 6.45C10.9 6.50047 10.8981 6.55049 10.8943 6.6L10.8914 6.63443C10.8726 6.83436 10.8237 7.02551 10.7492 7.20328L10.3 9H4.6L4.15082 7.20328C4.0763 7.02551 4.02736 6.83436 4.00861 6.63443L4 6.6C4.00192 6.55049 4 6.50047 4 6.45C4 5.37304 4.87304 4.5 5.95 4.5C6.33659 4.5 6.69691 4.6125 7 4.80655V4.5H6.4V3.6H7V3H7.9V3.6H8.5V4.5H7.9Z" fill="#FFD825"/>
</svg>
