<svg width="32" height="24" viewBox="0 0 32 24" fill="none" xmlns="http://www.w3.org/2000/svg">
<path fill-rule="evenodd" clip-rule="evenodd" d="M1 0H31C31.5523 0 32 0.447715 32 1V23C32 23.5523 31.5523 24 31 24H1C0.447715 24 0 23.5523 0 23V1C0 0.447715 0.447715 0 1 0Z" fill="#FFBE29"/>
<rect x="3" y="3" width="6" height="18" fill="#00534E"/>
<rect x="8" y="3" width="5" height="18" fill="#EB7400"/>
<rect x="15" y="3" width="14" height="18" fill="#8D153A"/>
<path opacity="0.2" fill-rule="evenodd" clip-rule="evenodd" d="M31 0H1C0.447715 0 0 0.447715 0 1V23C0 23.5523 0.447715 24 1 24H31C31.5523 24 32 23.5523 32 23V1C32 0.447715 31.5523 0 31 0ZM1 23V1H31V23H1Z" fill="black"/>
<path fill-rule="evenodd" clip-rule="evenodd" d="M17 6C17.5523 6 18 5.55228 18 5C18 4.44772 17.5523 4 17 4C16.4477 4 16 4.44772 16 5C16 5.55228 16.4477 6 17 6Z" fill="#FFBE29"/>
<path fill-rule="evenodd" clip-rule="evenodd" d="M27 6C27.5523 6 28 5.55228 28 5C28 4.44772 27.5523 4 27 4C26.4477 4 26 4.44772 26 5C26 5.55228 26.4477 6 27 6Z" fill="#FFBE29"/>
<path fill-rule="evenodd" clip-rule="evenodd" d="M27 20C27.5523 20 28 19.5523 28 19C28 18.4477 27.5523 18 27 18C26.4477 18 26 18.4477 26 19C26 19.5523 26.4477 20 27 20Z" fill="#FFBE29"/>
<path fill-rule="evenodd" clip-rule="evenodd" d="M17 20C17.5523 20 18 19.5523 18 19C18 18.4477 17.5523 18 17 18C16.4477 18 16 18.4477 16 19C16 19.5523 16.4477 20 17 20Z" fill="#FFBE29"/>
<path fill-rule="evenodd" clip-rule="evenodd" d="M19.6447 15.424L19.5488 15.4806L19.5488 15.4807C19.4381 15.5461 19.3818 15.553 19.3818 15.5011C19.3818 15.4053 19.4812 15.1999 19.5579 15.1374C19.637 15.0729 19.6638 15.0678 19.9101 15.0709C20.1371 15.0737 20.1915 15.0654 20.2759 15.0148C20.5387 14.8573 20.5644 14.619 20.3787 14.0615C20.1734 13.4451 20.1386 13.1821 20.2187 12.852C20.2402 12.7634 20.2454 12.7029 20.2303 12.7176C20.1294 12.8153 20.1261 13.3951 20.2248 13.6989C20.248 13.7704 19.8825 13.5829 19.6524 13.4053C19.1716 13.0341 18.9319 12.5172 19.0086 12.017C19.0937 11.4625 19.3917 11.0274 19.9044 10.7093C20.1603 10.5505 20.2483 10.444 20.2089 10.3406C20.1707 10.2407 20.1043 10.2216 20.0161 10.2852C19.9725 10.3167 19.9328 10.3684 19.9279 10.4002C19.9132 10.4959 19.8365 10.4389 19.7629 10.2774C19.6863 10.1095 19.6455 10.0908 19.6326 10.2175C19.6201 10.3401 19.5639 10.3448 19.4935 10.2292C19.4363 10.1352 19.4305 10.1326 19.358 10.1685C19.3163 10.1892 19.2415 10.2145 19.1919 10.2249L19.1015 10.2438L19.1559 10.1405C19.1857 10.0836 19.2061 10.0331 19.201 10.0282C19.196 10.0233 19.1545 10.0308 19.1089 10.0447C19.0634 10.0587 18.9609 10.0766 18.8812 10.0844L18.7363 10.0987L18.7762 9.96948C18.7982 9.89839 18.8306 9.79236 18.8484 9.73384C18.8878 9.60382 18.9187 9.59032 19.0526 9.64456C19.1904 9.70035 19.5491 9.77126 19.6937 9.77126C19.8186 9.77126 19.8287 9.78471 19.7651 9.8662C19.7049 9.94342 19.7126 9.95636 19.8105 9.94243C19.8585 9.9356 19.9744 9.94579 20.0682 9.96508C20.1891 9.98995 20.2474 9.99157 20.269 9.97065C20.3222 9.91909 20.2191 9.69503 20.0499 9.49454C19.9627 9.39121 19.8674 9.25912 19.8381 9.201L19.7848 9.09532L19.754 9.17299C19.7372 9.21571 19.7233 9.2699 19.7233 9.29342C19.7233 9.33047 19.7129 9.3296 19.6451 9.28693C19.602 9.25985 19.5501 9.21496 19.5296 9.1872C19.4724 9.10952 19.449 9.12679 19.4622 9.23686L19.4743 9.33702L19.3828 9.28514C19.3326 9.25662 19.2779 9.20899 19.2613 9.17932C19.2448 9.14965 19.144 9.03603 19.0374 8.92683C18.9268 8.81355 18.8365 8.69455 18.8271 8.64971C18.8181 8.60649 18.7983 8.533 18.7832 8.4864C18.7047 8.24426 18.7971 8.06071 18.9976 8.06071C19.1521 8.06071 19.2513 8.16788 19.2312 8.31317C19.218 8.4081 19.2225 8.42095 19.2633 8.40536C19.2893 8.3954 19.3811 8.38035 19.4672 8.37191C19.5533 8.36348 19.6583 8.33967 19.7006 8.31901C19.7429 8.29834 19.8427 8.28143 19.9226 8.28143C20.0959 8.28143 20.2085 8.23037 20.295 8.11248C20.3484 8.0398 20.354 8.01285 20.3291 7.94886L20.2993 7.87224L20.4651 7.85359C20.6798 7.82944 20.7737 7.85123 20.8869 7.95146C21.0354 8.08294 21.1179 8.0461 21.1179 7.84827C21.1179 7.71786 21.1271 7.71329 21.2981 7.75932C21.3651 7.77734 21.4551 7.83704 21.5309 7.91375L21.6545 8.03881L21.7135 7.92671C21.7459 7.86505 21.7725 7.79465 21.7725 7.77027C21.7725 7.73699 21.7884 7.73071 21.8365 7.74512C21.9666 7.78412 22.1019 7.86424 22.1782 7.94752C22.2419 8.01693 22.2788 8.03313 22.3732 8.03313C22.4685 8.03313 22.5079 8.01547 22.5902 7.93565L22.6907 7.83817L22.6719 7.95234C22.6488 8.09268 22.5954 8.19555 22.4792 8.32388L22.3901 8.42226L22.4467 8.49669C22.5571 8.64155 22.5743 8.75311 22.559 9.22198C22.5511 9.46648 22.54 9.67097 22.5344 9.6764C22.5288 9.68182 22.4522 9.62159 22.3643 9.54254C22.2178 9.4109 22.2014 9.3839 22.1688 9.22177C22.1431 9.09416 22.11 9.02101 22.05 8.95968C21.9688 8.87652 21.9673 8.87616 21.9843 8.94358C22.0182 9.07859 22.0358 9.27179 22.0182 9.3162C22.0033 9.35399 21.9795 9.3447 21.8715 9.2589C21.8006 9.20258 21.7352 9.16366 21.7261 9.17243C21.7171 9.18119 21.7617 9.22329 21.8253 9.26599C21.8889 9.30869 21.9527 9.37466 21.9671 9.41259L21.9934 9.48157L22.0273 9.3988C22.046 9.35329 22.0571 9.24436 22.052 9.15675C22.0445 9.02678 22.0492 9.00588 22.0772 9.04322C22.0962 9.06839 22.1202 9.14627 22.1307 9.2163C22.1567 9.38918 22.2011 9.46539 22.3387 9.57255C22.434 9.64677 22.4555 9.68071 22.4555 9.75698C22.4555 9.80839 22.4697 9.8854 22.487 9.92812C22.5524 10.0894 22.5674 10.1596 22.5319 10.1392C22.3021 10.0068 22.0322 9.7803 21.9949 9.6885C21.967 9.61985 21.9665 9.62008 21.9052 9.73502L21.8436 9.85053L21.7544 9.77641C21.7053 9.73564 21.6503 9.67746 21.6322 9.64711C21.6037 9.59938 21.6016 9.6038 21.6166 9.67983C21.6269 9.732 21.6183 9.79651 21.5956 9.83851L21.5574 9.90929L21.4634 9.81269C21.4117 9.75956 21.3563 9.71608 21.3403 9.71608C21.3242 9.71608 21.3478 9.75023 21.3927 9.79196C21.4376 9.83369 21.4938 9.8972 21.5176 9.9331L21.5609 9.99837L21.6169 9.88513C21.6477 9.82285 21.6802 9.77174 21.6892 9.77158C21.6983 9.7714 21.7357 9.8023 21.7725 9.84024C21.8092 9.87817 21.8473 9.90921 21.8571 9.90921C21.8669 9.90921 21.8911 9.86576 21.9109 9.81265L21.9469 9.71609L22.0175 9.79742C22.0563 9.84215 22.1499 9.92274 22.2255 9.9765C22.3512 10.066 22.364 10.0856 22.3762 10.2089C22.3839 10.2863 22.4165 10.3803 22.4529 10.4299L22.5163 10.5162H22.4138C22.2769 10.5162 22.1201 10.4497 22.0073 10.3438C21.9564 10.2961 21.9148 10.2697 21.9148 10.2852C21.9148 10.3678 22.2153 10.5404 22.3848 10.5551C22.4476 10.5606 22.503 10.5836 22.5186 10.6107C22.5333 10.6361 22.5962 10.6927 22.6585 10.7364L22.7717 10.8158L22.6447 10.8343C22.5748 10.8445 22.4813 10.845 22.4368 10.8356L22.3559 10.8184L22.3522 10.9721C22.3501 11.0567 22.3418 11.1323 22.3336 11.1402C22.3119 11.1612 22.0306 11.0756 21.947 11.0225C21.8871 10.9845 21.8729 10.9833 21.8623 11.0155C21.8553 11.0368 21.7972 11.1015 21.7332 11.1593C21.6305 11.2523 21.6146 11.2587 21.5971 11.2145C21.5862 11.187 21.538 11.067 21.4901 10.9478C21.4421 10.8286 21.4094 10.7208 21.4174 10.7083C21.4254 10.6958 21.4194 10.6781 21.4042 10.669C21.3637 10.6447 21.3 10.7575 21.2606 10.9232C21.2416 11.0029 21.2152 11.0746 21.202 11.0826C21.1746 11.099 21.0325 10.9079 21.0325 10.8547C21.0325 10.7807 20.9831 10.8245 20.9517 10.9263C20.9335 10.9849 20.8909 11.0673 20.8568 11.1092L20.7949 11.1855L20.7558 11.0647C20.7343 10.9982 20.7134 10.9287 20.7094 10.9101C20.6958 10.847 20.6626 10.8379 20.6626 10.8973C20.6626 11.0175 20.575 11.1725 20.4826 11.2159L20.3922 11.2585L20.3572 11.1288C20.3379 11.0574 20.3219 10.9728 20.3216 10.9407L20.321 10.8824L20.1882 10.9476C20.1151 10.9834 20.0509 11.0084 20.0454 11.0031C20.0399 10.9978 20.0548 10.9574 20.0784 10.9135C20.1021 10.8695 20.1216 10.8145 20.1216 10.7913C20.1217 10.7682 20.143 10.7199 20.1688 10.6842C20.205 10.6341 20.2066 10.6221 20.1759 10.6318C20.154 10.6388 20.1137 10.7118 20.0865 10.7942C20.0592 10.8765 20.0109 10.9647 19.9791 10.9901C19.8923 11.0598 19.9489 11.0696 20.1178 11.0141C20.2223 10.9798 20.2717 10.9741 20.2785 10.9956L20.3209 11.1296C20.3389 11.1863 20.3454 11.2577 20.3354 11.2883C20.3141 11.3535 20.3556 11.3619 20.4064 11.3025C20.4259 11.2797 20.4584 11.2611 20.4785 11.2611C20.5247 11.2611 20.6626 11.1046 20.6626 11.0521C20.6626 11.0305 20.6754 11.0128 20.691 11.0128C20.7067 11.0128 20.7195 11.0687 20.7195 11.137C20.7195 11.2053 20.7314 11.2611 20.7459 11.2611C20.7853 11.2611 20.9467 11.0634 20.9654 10.9921C20.9744 10.958 20.9886 10.93 20.9969 10.93C21.0215 10.93 21.0896 11.0206 21.1306 11.108L21.1688 11.1894L21.2286 11.0942C21.2616 11.0418 21.2966 10.9556 21.3065 10.9025C21.3164 10.8494 21.3347 10.7873 21.3473 10.7645C21.3663 10.7302 21.3735 10.7325 21.3892 10.7783C21.3997 10.8087 21.4391 10.908 21.4769 10.999C21.5147 11.0901 21.5483 11.1987 21.5514 11.2404C21.5546 11.2822 21.5617 11.3163 21.5672 11.3163C21.6013 11.3163 21.8338 11.1392 21.8585 11.0944C21.8863 11.0442 21.8946 11.0432 21.9699 11.0809C22.0147 11.1033 22.108 11.134 22.1774 11.1491C22.2468 11.1642 22.3272 11.1853 22.356 11.196C22.3986 11.2119 22.4047 11.2059 22.3883 11.1646C22.3772 11.1365 22.3765 11.0599 22.3866 10.9942L22.4051 10.8749H22.5423C22.6178 10.8749 22.7156 10.8612 22.7596 10.8445C22.8346 10.816 22.8363 10.812 22.7858 10.7824C22.7562 10.765 22.6986 10.7224 22.6578 10.6879L22.5836 10.625L23.2524 10.6422C23.8308 10.6572 23.952 10.6529 24.1489 10.6108C24.3303 10.5721 24.49 10.5633 24.9343 10.5679C25.4544 10.5732 25.5086 10.5689 25.7375 10.5046C26.0382 10.4202 26.1277 10.3766 26.2206 10.2696C26.4351 10.0224 26.3675 9.69684 26.0757 9.57169C25.9164 9.50341 25.5546 9.49968 25.2477 9.56314C24.6216 9.69261 24.0329 9.68255 23.6749 9.53629C23.3346 9.39725 23.2865 9.38431 23.2122 9.41171C23.1297 9.44212 23.0816 9.51894 23.0734 9.6336C23.0701 9.67892 23.0596 9.71604 23.0499 9.71606C23.0403 9.71609 22.9987 9.66889 22.9574 9.61117C22.8638 9.48013 22.8566 9.30221 22.9398 9.17L22.9969 9.07913L22.9125 8.97687C22.6178 8.61991 22.6226 8.22792 22.9253 7.93334C23.0961 7.76711 23.4097 7.61181 23.6748 7.56216C23.9197 7.51629 24.4344 7.54463 24.6754 7.61726C25.0509 7.73042 25.5708 8.04025 25.9988 8.40579C26.2794 8.64549 26.4374 8.75047 26.5176 8.75047C26.5786 8.75047 26.5847 8.74133 26.5691 8.67278C26.5565 8.61683 26.5683 8.57439 26.6116 8.52104C26.7058 8.40502 26.8667 8.42384 26.939 8.55931C27.063 8.79166 26.9024 9.0374 26.6266 9.0374C26.4107 9.0374 26.263 8.96664 26.028 8.75065C25.7795 8.52232 25.5619 8.35091 25.5433 8.36892C25.5117 8.39951 25.6159 8.71235 25.6724 8.75672C25.7562 8.82252 25.6895 8.81856 25.5292 8.74822C25.3801 8.68282 25.2579 8.57772 25.195 8.46093L25.1506 8.37834L25.1119 8.48669C25.0906 8.54628 25.0509 8.61931 25.0237 8.64896C24.9698 8.70766 24.8181 8.77804 24.7455 8.77804C24.7065 8.77804 24.7082 8.76686 24.7571 8.70021C24.7886 8.65741 24.8293 8.56479 24.8475 8.49439C24.8772 8.38028 24.8741 8.35304 24.8194 8.24341C24.7586 8.12168 24.6775 8.05065 24.526 7.98625C24.4368 7.94838 24.4299 7.96617 24.4902 8.07823C24.5524 8.19384 24.5449 8.40812 24.4747 8.51816C24.4084 8.62225 24.2772 8.70808 24.1422 8.73576L24.0501 8.75463L24.1205 8.63527C24.2101 8.48326 24.2161 8.27931 24.1346 8.14978C24.0645 8.03826 23.8377 7.89514 23.7312 7.89514C23.6546 7.89514 23.6524 7.89906 23.6668 8.01239C23.6884 8.18285 23.568 8.3716 23.5292 8.22801C23.5039 8.13395 23.3819 8.09845 23.2441 8.14499C22.9857 8.23228 22.9193 8.51817 23.1125 8.7114C23.1643 8.76321 23.2137 8.8055 23.2224 8.80543C23.2311 8.80533 23.2595 8.76896 23.2855 8.72461C23.3775 8.56781 23.6319 8.50279 23.7816 8.59784L23.8541 8.6439L23.7311 8.70406C23.5726 8.78158 23.5179 8.88506 23.5625 9.02309C23.5802 9.07798 23.6152 9.14771 23.6403 9.17806C23.678 9.22376 23.6885 9.22613 23.7014 9.19185C23.7275 9.12239 23.904 8.96557 23.9422 8.97791C23.962 8.98428 23.9818 9.01331 23.9864 9.0424C24.0084 9.18393 24.0276 9.213 24.14 9.27423C24.2478 9.33295 24.2953 9.34001 24.5749 9.33886C24.751 9.33814 25.0076 9.31588 25.1592 9.28818C25.3079 9.26101 25.5705 9.23782 25.7426 9.23664C26.0296 9.23466 26.0706 9.24109 26.2343 9.31384C26.7697 9.55166 26.8606 10.1689 26.4159 10.546L26.2703 10.6695L26.3837 10.8245C26.4461 10.9098 26.5317 11.0646 26.5738 11.1686C26.6428 11.3387 26.6504 11.3923 26.6497 11.7025C26.649 12.0862 26.6266 12.192 26.4253 12.7657C26.2272 13.3304 26.2013 13.67 26.3333 13.9728C26.3983 14.1218 26.5001 14.2132 26.6012 14.2132C26.7648 14.2132 26.6983 14.4164 26.4831 14.5739C26.306 14.7035 26.2595 14.7805 26.262 14.9399C26.2638 15.0545 26.3067 15.1549 26.4439 15.3655C26.4762 15.415 26.4946 15.4757 26.4849 15.5002C26.4595 15.5645 26.2237 15.5294 26.1317 15.4476C26.0826 15.4039 26.0584 15.396 26.0493 15.4207C26.002 15.5492 25.8346 15.5741 25.7087 15.4714L25.6276 15.4053L25.5484 15.4714C25.4434 15.5589 25.3171 15.5586 25.2576 15.4706L25.2124 15.4037L25.1107 15.4706C24.9719 15.5619 24.9199 15.5591 24.9446 15.4616C24.9909 15.2791 25.1634 15.1478 25.4387 15.0855C25.7607 15.0127 25.7744 14.9891 25.7469 14.5532C25.7198 14.1231 25.696 14.0914 25.1251 13.7256C24.8571 13.5539 24.7107 13.4371 24.5586 13.2739C24.2716 12.9657 24.0985 12.8844 23.6919 12.8669C23.2067 12.846 22.9492 12.9141 22.1994 13.2617C21.9254 13.3887 21.6651 13.5011 21.6208 13.5116L21.5403 13.5305L21.6247 13.3684C21.8342 12.9656 21.9726 12.4047 21.8954 12.2709C21.8765 12.2382 21.8681 12.2888 21.8675 12.4393C21.8661 12.776 21.6575 13.3046 21.3119 13.8474C21.1 14.1803 21.1552 14.3595 21.4812 14.3969C21.5631 14.4063 21.6302 14.4228 21.6302 14.4336C21.6302 14.4743 21.4585 14.6808 21.3963 14.715C21.3606 14.7346 21.2609 14.7758 21.1748 14.8065C21.0189 14.862 21.0183 14.8627 21.0241 14.9722C21.0272 15.0327 21.038 15.1334 21.0481 15.196C21.0632 15.2903 21.0533 15.3297 20.9899 15.427C20.9143 15.5432 20.9123 15.5441 20.783 15.5269C20.7112 15.5174 20.6298 15.4897 20.602 15.4653C20.5554 15.4244 20.5456 15.4255 20.4751 15.4792C20.3745 15.5559 20.2169 15.5558 20.1325 15.479L20.0683 15.4205L19.9916 15.479C19.8913 15.5554 19.7402 15.5563 19.6856 15.4807L19.6447 15.424ZM21.3171 10.4232C21.4347 10.4939 21.5509 10.6036 21.5509 10.6441L21.5509 10.6441C21.5509 10.7038 21.5999 10.685 21.6183 10.6182C21.6278 10.5841 21.6356 10.4957 21.6359 10.4218L21.6363 10.2875L21.7377 10.3625C21.7936 10.4038 21.8429 10.4332 21.8474 10.4279C21.8772 10.3924 21.9168 10.2272 21.9013 10.2029C21.8909 10.1866 21.8686 10.2181 21.8518 10.2729L21.8213 10.3726L21.669 10.2735C21.5853 10.219 21.5032 10.1454 21.4866 10.1101C21.4468 10.0254 21.4193 10.0289 21.3944 10.1216L21.374 10.1975L21.3471 10.1285C21.3203 10.0598 21.1297 9.85262 21.0933 9.85262C21.0828 9.85262 21.0665 9.88677 21.0572 9.9285C21.0243 10.075 20.9934 10.0935 20.9083 10.0174C20.8662 9.9799 20.808 9.91194 20.7788 9.86642C20.7404 9.80651 20.7257 9.79734 20.7257 9.83321C20.7255 9.87832 20.9445 10.1282 20.9843 10.1284C20.9936 10.1285 21.0253 10.0851 21.0548 10.032C21.0843 9.97885 21.117 9.9354 21.1275 9.9354C21.1679 9.9354 21.3232 10.1332 21.3232 10.1847C21.3232 10.2552 21.3697 10.2542 21.4091 10.1828C21.4395 10.1278 21.4418 10.1282 21.5239 10.2034C21.5954 10.2688 21.6078 10.3008 21.6078 10.4204C21.6078 10.4976 21.601 10.5674 21.5926 10.5755C21.5843 10.5836 21.5349 10.5515 21.483 10.5042C21.4022 10.4306 21.1838 10.2853 21.1794 10.3022C21.1787 10.3053 21.1708 10.3637 21.1621 10.432C21.1534 10.5003 21.1421 10.5605 21.1371 10.5657C21.1321 10.571 21.1028 10.5276 21.0721 10.4692C21.0413 10.4108 20.9876 10.3382 20.9526 10.3079C20.8902 10.2537 20.8885 10.2537 20.8571 10.3055C20.8395 10.3345 20.7919 10.3956 20.7512 10.4413L20.6772 10.5243L20.6579 10.3827C20.6472 10.3049 20.6261 10.2337 20.6109 10.2246C20.5957 10.2155 20.5831 10.2243 20.5831 10.2442C20.583 10.264 20.5527 10.3287 20.5157 10.3879L20.4485 10.4955L20.3873 10.3189C20.3535 10.2218 20.3336 10.1858 20.343 10.2389C20.3523 10.292 20.3671 10.382 20.3757 10.4389C20.3844 10.4958 20.4015 10.5424 20.4137 10.5424C20.4433 10.5424 20.5832 10.3799 20.5832 10.3455C20.5832 10.3306 20.5975 10.327 20.6149 10.3374C20.6339 10.3488 20.6407 10.3994 20.6319 10.4632C20.6238 10.5219 20.6258 10.57 20.6365 10.57C20.6812 10.57 20.782 10.4806 20.8402 10.3894L20.9026 10.2915L20.9827 10.3971C21.0268 10.4552 21.0716 10.5365 21.0823 10.5778C21.0929 10.619 21.1125 10.6527 21.1257 10.6527C21.1492 10.6527 21.2089 10.4801 21.2092 10.4113C21.2094 10.366 21.2247 10.3677 21.3171 10.4232Z" fill="#FFBE29"/>
<path d="M23.5509 15.4829L23.6542 15.4149L23.7243 15.4829C23.8162 15.572 23.9238 15.57 24.0121 15.4776C24.0506 15.4373 24.0852 15.4093 24.089 15.4155C24.0927 15.4217 24.1099 15.4516 24.1272 15.4819C24.149 15.5203 24.1939 15.5396 24.2749 15.5455C24.3725 15.5525 24.3987 15.5429 24.4375 15.4855L24.4838 15.4171L24.5855 15.484C24.8639 15.6672 25.0123 15.475 24.8879 15.0923C24.8246 14.8977 24.8594 14.7883 25.0633 14.5406C25.1493 14.4362 25.2197 14.3247 25.2198 14.2929C25.2198 14.2422 25.2039 14.2354 25.0895 14.2377C24.9799 14.24 24.9479 14.2279 24.8902 14.163C24.7965 14.0573 24.802 13.9363 24.9069 13.802L24.9906 13.6947L24.842 13.5915C24.7603 13.5348 24.613 13.4005 24.5146 13.2931C24.2936 13.052 24.0764 12.9376 23.7899 12.9117L23.5978 12.8943L23.5981 13.0431C23.5984 13.2347 23.6863 13.4191 23.9261 13.7313C24.1987 14.0863 24.2177 14.1412 24.2288 14.6052L24.2381 14.9976L24.1592 15.0742C24.0879 15.1434 24.0558 15.1523 23.8257 15.1659C23.6067 15.1788 23.5607 15.1903 23.4965 15.2486C23.4111 15.326 23.3856 15.3681 23.3592 15.475C23.3439 15.5373 23.3501 15.5509 23.394 15.5509C23.4234 15.5509 23.494 15.5203 23.5508 15.4829L23.5509 15.4829Z" fill="#FFBE29"/>
<path d="M17.6871 14.4548C17.7115 14.4211 17.7314 14.3666 17.7314 14.3338C17.7314 14.2842 17.7531 14.2709 17.8596 14.2554L17.9877 14.2368L17.9023 14.1671C17.8007 14.0843 17.7913 14.0195 17.8808 14.0194C17.97 14.0194 18.1209 13.9247 18.1439 13.8545C18.1545 13.822 18.1478 13.7784 18.1287 13.7561C18.0787 13.6977 17.9848 13.7065 17.9673 13.7712C17.9486 13.8407 17.9172 13.8409 17.846 13.7719C17.7389 13.6681 17.7365 13.4531 17.841 13.328C17.8903 13.269 17.8898 13.2651 17.827 13.2042C17.7594 13.1387 17.7112 13.0091 17.7429 12.9783C17.753 12.9685 17.8064 12.9763 17.8616 12.9956C17.9399 13.0231 17.9709 13.0235 18.0031 12.9975C18.1009 12.9189 17.995 12.8177 17.8382 12.84C17.775 12.849 17.749 12.84 17.7399 12.8065C17.7331 12.7811 17.6778 12.7479 17.6156 12.7318C17.5045 12.703 17.5037 12.7034 17.5037 12.7818C17.5037 12.8677 17.4558 12.8839 17.3648 12.8288C17.2909 12.784 17.2191 12.8187 17.2191 12.8994C17.2191 12.9746 17.293 13.0117 17.4255 13.0029C17.527 12.9962 17.5308 13.0736 17.4343 13.1847L17.365 13.2646L17.4199 13.3455C17.5013 13.4652 17.4945 13.664 17.4055 13.7627L17.3358 13.8401L17.2901 13.7781C17.2265 13.6918 17.1396 13.6976 17.1158 13.7896C17.1001 13.8499 17.1131 13.8775 17.1868 13.9414C17.2364 13.9843 17.3088 14.0195 17.3476 14.0195C17.4439 14.0195 17.4401 14.0969 17.3401 14.1752L17.2618 14.2364L17.3828 14.2556C17.4493 14.2662 17.5037 14.286 17.5037 14.2998C17.5037 14.3524 17.5876 14.5161 17.6145 14.5161C17.6301 14.5161 17.6627 14.4885 17.6871 14.4548L17.6871 14.4548Z" fill="#FFBE29"/>
<path d="M19.2645 13.7629C19.3744 13.7186 19.6122 13.5125 19.6122 13.4615C19.6122 13.4455 19.5466 13.3716 19.4664 13.2973C19.2975 13.1409 19.1139 12.8776 19.0663 12.7236C19.0415 12.6433 18.9216 12.5059 18.5838 12.1706L18.1344 11.7244L18.0049 11.758C17.9337 11.7765 17.8467 11.792 17.8118 11.7926C17.7514 11.7935 17.7525 11.7971 17.8327 11.8606L17.9173 11.9276L18.0359 11.8602C18.1509 11.7949 18.1549 11.7945 18.1691 11.8471C18.1774 11.8778 18.1595 11.9312 18.1277 11.9703C18.0969 12.0083 18.0794 12.0514 18.0887 12.066C18.0981 12.0807 18.0685 12.1114 18.023 12.1342C17.9386 12.1765 17.88 12.3158 17.9466 12.3158C18.0065 12.3158 18.1386 12.1489 18.1234 12.0925C18.1156 12.0636 18.1194 12.0339 18.1318 12.0264C18.1832 11.9956 18.18 12.1266 18.1277 12.191C18.0969 12.229 18.0794 12.2721 18.0887 12.2868C18.0981 12.3014 18.0685 12.3321 18.023 12.3549C17.9391 12.397 17.8799 12.5365 17.946 12.5365C18.0107 12.5365 18.1406 12.3771 18.1245 12.3174C18.1161 12.2862 18.1194 12.2546 18.1318 12.2472C18.1664 12.2264 18.1851 12.3298 18.1559 12.3805C18.1402 12.4076 18.1403 12.4447 18.1562 12.4741C18.185 12.5273 18.1558 12.6295 18.1028 12.6613C18.0801 12.6749 18.0955 12.7017 18.1506 12.7443C18.2304 12.806 18.232 12.8125 18.232 13.0847C18.232 13.3122 18.2409 13.3709 18.2818 13.4105C18.3276 13.4549 18.3316 13.4551 18.3316 13.4125C18.3316 13.3659 18.4114 13.309 18.4767 13.309C18.4959 13.309 18.6163 13.4134 18.7441 13.541C18.8727 13.6694 19.0072 13.7786 19.0453 13.7856C19.0832 13.7925 19.1242 13.7998 19.1365 13.8019C19.1487 13.804 19.2063 13.7864 19.2645 13.763L19.2645 13.7629Z" fill="#FFBE29"/>
<path d="M18.1125 11.6049C18.3878 11.4971 18.4116 11.2252 18.152 11.1538C18.0443 11.1242 17.9755 11.1402 17.9342 11.2044C17.9026 11.2536 17.9237 11.343 17.9669 11.343C17.9815 11.343 17.9935 11.3596 17.9935 11.3798C17.9935 11.4742 17.5732 11.517 17.4008 11.4401C17.3403 11.4131 17.3139 11.343 17.3643 11.343C17.402 11.343 17.428 11.2716 17.4088 11.2211C17.3826 11.1522 17.3037 11.1284 17.1894 11.1547C16.9313 11.2141 16.9386 11.4808 17.2013 11.5941C17.4167 11.6869 17.8889 11.6925 18.1125 11.6049L18.1125 11.6049Z" fill="#FFBE29"/>
<path d="M17.9475 11.4288C17.9634 11.4134 17.9565 11.3896 17.9298 11.3681C17.8713 11.321 17.8744 11.251 17.9386 11.1708C17.9868 11.1106 17.9928 11.0205 18.0094 10.1118C18.038 8.54575 18.1518 7.36782 18.3017 7.08525C18.3614 6.97275 18.353 6.9723 18.1988 7.07974C18 7.21815 17.8487 7.39837 17.7147 7.65637C17.4616 8.14345 17.3736 8.79877 17.3736 10.1976C17.3736 10.9919 17.3789 11.0958 17.4231 11.1705C17.4651 11.2414 17.4673 11.2676 17.4378 11.3433C17.4187 11.3924 17.41 11.4394 17.4186 11.4476C17.4751 11.5024 17.8867 11.4879 17.9475 11.429L17.9475 11.4288Z" fill="#FFBE29"/>
<path d="M20.2406 9.90835C20.2492 9.89563 20.2301 9.83138 20.1982 9.76557C20.1485 9.66297 20.1285 9.64593 20.0576 9.64593C19.8356 9.64593 19.4787 9.55037 19.1107 9.39242C18.8982 9.3012 18.8248 9.28023 18.7994 9.30348C18.7344 9.36278 18.8424 9.50354 19.0097 9.57753C19.1582 9.64317 19.5731 9.72382 19.7624 9.72382C19.8722 9.72382 19.8748 9.72859 19.8123 9.81559L19.7664 9.87958L19.8906 9.88265C19.9589 9.88434 20.0533 9.89464 20.1002 9.90554C20.2222 9.93385 20.2233 9.93387 20.2406 9.90836L20.2406 9.90835Z" fill="#FFBE29"/>
<path d="M23.5509 15.4829L23.6542 15.4149L23.7243 15.4829C23.8162 15.572 23.9238 15.57 24.0121 15.4776C24.0506 15.4373 24.0852 15.4093 24.089 15.4155C24.0927 15.4217 24.1099 15.4516 24.1272 15.4819C24.149 15.5203 24.1939 15.5396 24.2749 15.5455C24.3725 15.5525 24.3987 15.5429 24.4375 15.4855L24.4838 15.4171L24.5855 15.484C24.8639 15.6672 25.0123 15.475 24.8879 15.0923C24.8246 14.8977 24.8594 14.7883 25.0633 14.5406C25.1493 14.4362 25.2197 14.3247 25.2198 14.2929C25.2198 14.2422 25.2039 14.2354 25.0895 14.2377C24.9799 14.24 24.9479 14.2279 24.8902 14.163C24.7965 14.0573 24.802 13.9363 24.9069 13.802L24.9906 13.6947L24.842 13.5915C24.7603 13.5348 24.613 13.4005 24.5146 13.2931C24.2936 13.052 24.0764 12.9376 23.7899 12.9117L23.5978 12.8943L23.5981 13.0431C23.5984 13.2347 23.6863 13.4191 23.9261 13.7313C24.1987 14.0863 24.2177 14.1412 24.2288 14.6052L24.2381 14.9976L24.1592 15.0742C24.0879 15.1434 24.0558 15.1523 23.8257 15.1659C23.6067 15.1788 23.5607 15.1903 23.4965 15.2486C23.4111 15.326 23.3856 15.3681 23.3592 15.475C23.3439 15.5373 23.3501 15.5509 23.394 15.5509C23.4234 15.5509 23.494 15.5203 23.5508 15.4829L23.5509 15.4829Z" fill="#FFBE29"/>
<path d="M17.6871 14.4548C17.7115 14.4211 17.7314 14.3666 17.7314 14.3338C17.7314 14.2842 17.7531 14.2709 17.8596 14.2554L17.9877 14.2368L17.9023 14.1671C17.8007 14.0843 17.7913 14.0195 17.8808 14.0194C17.97 14.0194 18.1209 13.9247 18.1439 13.8545C18.1545 13.822 18.1478 13.7784 18.1287 13.7561C18.0787 13.6977 17.9848 13.7065 17.9673 13.7712C17.9486 13.8407 17.9172 13.8409 17.846 13.7719C17.7389 13.6681 17.7365 13.4531 17.841 13.328C17.8903 13.269 17.8898 13.2651 17.827 13.2042C17.7594 13.1387 17.7112 13.0091 17.7429 12.9783C17.753 12.9685 17.8064 12.9763 17.8616 12.9956C17.9399 13.0231 17.9709 13.0235 18.0031 12.9975C18.1009 12.9189 17.995 12.8177 17.8382 12.84C17.775 12.849 17.749 12.84 17.7399 12.8065C17.7331 12.7811 17.6778 12.7479 17.6156 12.7318C17.5045 12.703 17.5037 12.7034 17.5037 12.7818C17.5037 12.8677 17.4558 12.8839 17.3648 12.8288C17.2909 12.784 17.2191 12.8187 17.2191 12.8994C17.2191 12.9746 17.293 13.0117 17.4255 13.0029C17.527 12.9962 17.5308 13.0736 17.4343 13.1847L17.365 13.2646L17.4199 13.3455C17.5013 13.4652 17.4945 13.664 17.4055 13.7627L17.3358 13.8401L17.2901 13.7781C17.2265 13.6918 17.1396 13.6976 17.1158 13.7896C17.1001 13.8499 17.1131 13.8775 17.1868 13.9414C17.2364 13.9843 17.3088 14.0195 17.3476 14.0195C17.4439 14.0195 17.4401 14.0969 17.3401 14.1752L17.2618 14.2364L17.3828 14.2556C17.4493 14.2662 17.5037 14.286 17.5037 14.2998C17.5037 14.3524 17.5876 14.5161 17.6145 14.5161C17.6301 14.5161 17.6627 14.4885 17.6871 14.4548L17.6871 14.4548Z" fill="#FFBE29"/>
<path d="M19.2645 13.7629C19.3744 13.7186 19.6122 13.5125 19.6122 13.4615C19.6122 13.4455 19.5466 13.3716 19.4664 13.2973C19.2975 13.1409 19.1139 12.8776 19.0663 12.7236C19.0415 12.6433 18.9216 12.5059 18.5838 12.1706L18.1344 11.7244L18.0049 11.758C17.9337 11.7765 17.8467 11.792 17.8118 11.7926C17.7514 11.7935 17.7525 11.7971 17.8327 11.8606L17.9173 11.9276L18.0359 11.8602C18.1509 11.7949 18.1549 11.7945 18.1691 11.8471C18.1774 11.8778 18.1595 11.9312 18.1277 11.9703C18.0969 12.0083 18.0794 12.0514 18.0887 12.066C18.0981 12.0807 18.0685 12.1114 18.023 12.1342C17.9386 12.1765 17.88 12.3158 17.9466 12.3158C18.0065 12.3158 18.1386 12.1489 18.1234 12.0925C18.1156 12.0636 18.1194 12.0339 18.1318 12.0264C18.1832 11.9956 18.18 12.1266 18.1277 12.191C18.0969 12.229 18.0794 12.2721 18.0887 12.2868C18.0981 12.3014 18.0685 12.3321 18.023 12.3549C17.9391 12.397 17.8799 12.5365 17.946 12.5365C18.0107 12.5365 18.1406 12.3771 18.1245 12.3174C18.1161 12.2862 18.1194 12.2546 18.1318 12.2472C18.1664 12.2264 18.1851 12.3298 18.1559 12.3805C18.1402 12.4076 18.1403 12.4447 18.1562 12.4741C18.185 12.5273 18.1558 12.6295 18.1028 12.6613C18.0801 12.6749 18.0955 12.7017 18.1506 12.7443C18.2304 12.806 18.232 12.8125 18.232 13.0847C18.232 13.3122 18.2409 13.3709 18.2818 13.4105C18.3276 13.4549 18.3316 13.4551 18.3316 13.4125C18.3316 13.3659 18.4114 13.309 18.4767 13.309C18.4959 13.309 18.6163 13.4134 18.7441 13.541C18.8727 13.6694 19.0072 13.7786 19.0453 13.7856C19.0832 13.7925 19.1242 13.7998 19.1365 13.8019C19.1487 13.804 19.2063 13.7864 19.2645 13.763L19.2645 13.7629Z" fill="#FFBE29"/>
<path d="M18.1125 11.6049C18.3878 11.4971 18.4116 11.2252 18.152 11.1538C18.0443 11.1242 17.9755 11.1402 17.9342 11.2044C17.9026 11.2536 17.9237 11.343 17.9669 11.343C17.9815 11.343 17.9935 11.3596 17.9935 11.3798C17.9935 11.4742 17.5732 11.517 17.4008 11.4401C17.3403 11.4131 17.3139 11.343 17.3643 11.343C17.402 11.343 17.428 11.2716 17.4088 11.2211C17.3826 11.1522 17.3037 11.1284 17.1894 11.1547C16.9313 11.2141 16.9386 11.4808 17.2013 11.5941C17.4167 11.6869 17.8889 11.6925 18.1125 11.6049L18.1125 11.6049Z" fill="#FFBE29"/>
<path d="M17.9475 11.4288C17.9634 11.4134 17.9565 11.3896 17.9298 11.3681C17.8713 11.321 17.8744 11.251 17.9386 11.1708C17.9868 11.1106 17.9928 11.0205 18.0094 10.1118C18.038 8.54575 18.1518 7.36782 18.3017 7.08525C18.3614 6.97275 18.353 6.9723 18.1988 7.07974C18 7.21815 17.8487 7.39837 17.7147 7.65637C17.4616 8.14345 17.3736 8.79877 17.3736 10.1976C17.3736 10.9919 17.3789 11.0958 17.4231 11.1705C17.4651 11.2414 17.4673 11.2676 17.4378 11.3433C17.4187 11.3924 17.41 11.4394 17.4186 11.4476C17.4751 11.5024 17.8867 11.4879 17.9475 11.429L17.9475 11.4288Z" fill="#FFBE29"/>
<path d="M20.2406 9.90835C20.2492 9.89563 20.2301 9.83138 20.1982 9.76557C20.1485 9.66297 20.1285 9.64593 20.0576 9.64593C19.8356 9.64593 19.4787 9.55037 19.1107 9.39242C18.8982 9.3012 18.8248 9.28023 18.7994 9.30348C18.7344 9.36278 18.8424 9.50354 19.0097 9.57753C19.1582 9.64317 19.5731 9.72382 19.7624 9.72382C19.8722 9.72382 19.8748 9.72859 19.8123 9.81559L19.7664 9.87958L19.8906 9.88265C19.9589 9.88434 20.0533 9.89464 20.1002 9.90554C20.2222 9.93385 20.2233 9.93387 20.2406 9.90836L20.2406 9.90835Z" fill="#FFBE29"/>
</svg>
