<svg width="32" height="24" viewBox="0 0 32 24" fill="none" xmlns="http://www.w3.org/2000/svg">
<g clip-path="url(#clip0_392_35686)">
<path d="M34 0H-2V24H34V0Z" fill="#C1272D"/>
<path d="M13.664 15.212L14.556 12.468L12.22 10.772H15.104L15.996 8.02405L16.888 10.772H19.772L17.436 12.468L18.328 15.212L16 13.516L13.664 15.212ZM16.496 13.156L17.22 13.684L16.944 12.832L16.496 13.156ZM15.056 12.832L14.78 13.684L15.504 13.156L15.056 12.832ZM15.244 12.244L16 12.792L16.756 12.244L16.468 11.356H15.532L15.244 12.244ZM14.024 11.356L14.748 11.88L14.92 11.356H14.024ZM17.084 11.356L17.256 11.88L17.98 11.356H17.084ZM15.724 10.772H16.28L16 9.92004L15.724 10.772Z" fill="#006233"/>
<path opacity="0.2" fill-rule="evenodd" clip-rule="evenodd" d="M31 0H1C0.447715 0 0 0.447715 0 1V23C0 23.5523 0.447715 24 1 24H31C31.5523 24 32 23.5523 32 23V1C32 0.447715 31.5523 0 31 0ZM1 23V1H31V23H1Z" fill="black"/>
</g>
<defs>
<clipPath id="clip0_392_35686">
<rect width="32" height="24" rx="1" fill="white"/>
</clipPath>
</defs>
</svg>
