<svg width="32" height="24" viewBox="0 0 32 24" fill="none" xmlns="http://www.w3.org/2000/svg">
<path fill-rule="evenodd" clip-rule="evenodd" d="M1 0H31C31.5523 0 32 0.447715 32 1V23C32 23.5523 31.5523 24 31 24H1C0.447715 24 0 23.5523 0 23V1C0 0.447715 0.447715 0 1 0Z" fill="#D20000"/>
<path fill-rule="evenodd" clip-rule="evenodd" d="M14 0H18L17 7H15L14 0ZM4.10603 0L13.037 7.73825L12.0243 9.19503L0 2.02112V1C0 0.447715 0.447715 0 1 0H4.10603ZM0 22.2482L12.0243 15.0743L13.037 16.5311L4.41688 24H1C0.447715 24 0 23.5523 0 23V22.2482ZM32 2.3308L20.4947 9.19503L19.482 7.73825L28.413 0H31C31.5523 0 32 0.447715 32 1V2.3308ZM28.1022 24L19.482 16.5311L20.4947 15.0743L32 21.9385V23C32 23.5523 31.5523 24 31 24H28.1022ZM18 24H14L15 17H17L18 24ZM0 14V10L11 11V13L0 14ZM32 10V14L21 13V11L32 10Z" fill="#FFE600"/>
<path fill-rule="evenodd" clip-rule="evenodd" d="M16 18C19.3137 18 22 15.3137 22 12C22 8.68629 19.3137 6 16 6C12.6863 6 10 8.68629 10 12C10 15.3137 12.6863 18 16 18Z" fill="#D20000"/>
<path fill-rule="evenodd" clip-rule="evenodd" d="M16 16C18.2091 16 20 14.2091 20 12C20 9.79086 18.2091 8 16 8C13.7909 8 12 9.79086 12 12C12 14.2091 13.7909 16 16 16Z" fill="#FFE600"/>
<path opacity="0.2" fill-rule="evenodd" clip-rule="evenodd" d="M31 0H1C0.447715 0 0 0.447715 0 1V23C0 23.5523 0.447715 24 1 24H31C31.5523 24 32 23.5523 32 23V1C32 0.447715 31.5523 0 31 0ZM1 23V1H31V23H1Z" fill="black"/>
</svg>
