<svg width="32" height="24" viewBox="0 0 32 24" fill="none" xmlns="http://www.w3.org/2000/svg">
<rect x="0.5" y="0.5" width="31" height="23" rx="0.5" fill="#D8D8D8" stroke="#979797"/>
<path d="M0 0H10V24H0V0Z" fill="#C52027"/>
<path d="M10 0H22V24H10V0Z" fill="#005199"/>
<path d="M22 0H32V24H22V0Z" fill="#C52027"/>
<path opacity="0.2" fill-rule="evenodd" clip-rule="evenodd" d="M31 0H1C0.447715 0 0 0.447715 0 1V23C0 23.5523 0.447715 24 1 24H31C31.5523 24 32 23.5523 32 23V1C32 0.447715 31.5523 0 31 0ZM1 23V1H31V23H1Z" fill="black"/>
<path fill-rule="evenodd" clip-rule="evenodd" d="M6.49977 8.80121C6.24704 9.50693 5.67063 10 5 10C4.32937 10 3.75296 9.50693 3.50023 8.80121C3.50008 8.8119 3.5 8.82261 3.5 8.83334C3.5 9.84586 4.17157 10.6667 5 10.6667C5.82843 10.6667 6.5 9.84586 6.5 8.83334C6.5 8.82261 6.49992 8.8119 6.49977 8.80121Z" fill="#F9CF02"/>
<path d="M5 9.66667C5.60249 9.66667 6.09091 9.06971 6.09091 8.33333C6.09091 7.59695 5.60249 7 5 7C4.3975 7 3.90909 7.59695 3.90909 8.33333C3.90909 9.06971 4.3975 9.66667 5 9.66667Z" fill="#F9CF02"/>
<path d="M4.31818 5.83333C4.31818 6.29357 4.62344 6.66667 5 6.66667C5.37656 6.66667 5.68182 6.29357 5.68182 5.83333C5.68182 5.5 5.51137 5.45833 5.51137 5.33333C5.51137 5.20833 5.61364 5.04167 5.40909 4.83333C5.51137 5.04167 5.34091 5.08333 5.34091 5.29167C5.34091 5.5 5.40909 5.5 5.40909 5.66667C5.40909 5.75871 5.34804 5.83333 5.27273 5.83333C5.19742 5.83333 5.13637 5.75871 5.13637 5.66667C5.13637 5.5 5.27273 5.33333 5.27273 5.08333C5.27273 4.83333 5.23864 4.75 5.13637 4.54167C5.03409 4.33333 4.86364 4.16667 5 4C4.79546 4.08333 4.89773 4.41667 4.89773 4.625C4.89773 4.83333 4.76137 4.95833 4.76137 5.20833C4.76137 5.45833 4.86364 5.5 4.86364 5.66667C4.86364 5.75871 4.80259 5.83333 4.72727 5.83333C4.65196 5.83333 4.59091 5.75871 4.59091 5.66667C4.59091 5.5 4.65909 5.5 4.65909 5.29167C4.65909 5.08333 4.48864 5.04167 4.59091 4.83333C4.38637 5.04167 4.48864 5.20833 4.48864 5.33333C4.48864 5.45833 4.31818 5.5 4.31818 5.83333Z" fill="#F9CF02"/>
<path fill-rule="evenodd" clip-rule="evenodd" d="M2 19V11H3.36364V19H2ZM6.63636 19V11H8V19H6.63636ZM3.63636 12.3333V13H6.36364V12.3333H3.63636ZM3.63636 17.6667V17H6.36364V17.6667H3.63636ZM6.36364 11L5 12L3.63636 11H6.36364ZM5 19L6.36364 18H3.63636L5 19Z" fill="#F9CF02"/>
<path fill-rule="evenodd" clip-rule="evenodd" d="M5 16.7667C5.7983 16.7667 6.44545 15.9757 6.44545 15C6.44545 14.0243 5.7983 13.2333 5 13.2333C4.20169 13.2333 3.55454 14.0243 3.55454 15C3.55454 15.9757 4.20169 16.7667 5 16.7667ZM5.0303 14.4253C5.19766 14.4253 5.33333 14.2816 5.33333 14.1043C5.33333 13.927 5.19766 13.7833 5.0303 13.7833C4.86294 13.7833 4.72727 13.927 4.72727 14.1043C4.72727 14.2816 4.86294 14.4253 5.0303 14.4253ZM5.33333 15.871C5.33333 16.0483 5.19766 16.192 5.0303 16.192C4.86294 16.192 4.72727 16.0483 4.72727 15.871C4.72727 15.6937 4.86294 15.55 5.0303 15.55C5.19766 15.55 5.33333 15.6937 5.33333 15.871Z" fill="#F9CF02"/>
</svg>
