<svg width="32" height="24" viewBox="0 0 32 24" fill="none" xmlns="http://www.w3.org/2000/svg">
<path fill-rule="evenodd" clip-rule="evenodd" d="M1 0H31C31.5523 0 32 0.447715 32 1V23C32 23.5523 31.5523 24 31 24H1C0.447715 24 0 23.5523 0 23V1C0 0.447715 0.447715 0 1 0Z" fill="#F7F7F7"/>
<mask id="path-2-inside-1_392_35663" fill="white">
<path fill-rule="evenodd" clip-rule="evenodd" d="M7 3H5V5H3V7H5V9H7V7H9V5H7V3Z"/>
</mask>
<path fill-rule="evenodd" clip-rule="evenodd" d="M7 3H5V5H3V7H5V9H7V7H9V5H7V3Z" fill="#CCCCCC"/>
<path d="M5 3V2H4V3H5ZM7 3H8V2H7V3ZM5 5V6H6V5H5ZM3 5V4H2V5H3ZM3 7H2V8H3V7ZM5 7H6V6H5V7ZM5 9H4V10H5V9ZM7 9V10H8V9H7ZM7 7V6H6V7H7ZM9 7V8H10V7H9ZM9 5H10V4H9V5ZM7 5H6V6H7V5ZM5 4H7V2H5V4ZM6 5V3H4V5H6ZM3 6H5V4H3V6ZM4 7V5H2V7H4ZM5 6H3V8H5V6ZM6 9V7H4V9H6ZM7 8H5V10H7V8ZM6 7V9H8V7H6ZM9 6H7V8H9V6ZM8 5V7H10V5H8ZM7 6H9V4H7V6ZM6 3V5H8V3H6Z" fill="#979797" mask="url(#path-2-inside-1_392_35663)"/>
<path fill-rule="evenodd" clip-rule="evenodd" d="M16 0H31C31.5523 0 32 0.447715 32 1V23C32 23.5523 31.5523 24 31 24H16V0Z" fill="#CE1126"/>
<path opacity="0.2" fill-rule="evenodd" clip-rule="evenodd" d="M31 0H1C0.447715 0 0 0.447715 0 1V23C0 23.5523 0.447715 24 1 24H31C31.5523 24 32 23.5523 32 23V1C32 0.447715 31.5523 0 31 0ZM1 23V1H31V23H1Z" fill="black"/>
</svg>
