<svg width="20" height="15" viewBox="0 0 20 15" fill="none" xmlns="http://www.w3.org/2000/svg"><path fill-rule="evenodd" clip-rule="evenodd" d="M.833 0h18.334c.46 0 .833.373.833.833v13.334c0 .46-.373.833-.833.833H.833A.833.833 0 0 1 0 14.167V.833C0 .373.373 0 .833 0Z" fill="#F7F7F7"/><path fill-rule="evenodd" clip-rule="evenodd" d="M14.375 0H19a1 1 0 0 1 1 1v13a1 1 0 0 1-1 1h-4.625V0Z" fill="#CE1126"/><path fill-rule="evenodd" clip-rule="evenodd" d="M0 1a1 1 0 0 1 1-1h4.625v15H1a1 1 0 0 1-1-1V1Z" fill="#006847"/><path fill-rule="evenodd" clip-rule="evenodd" d="M8.608 10.682a4.453 4.453 0 0 1-1.006-.614c-.404-.33-.718-.714-.901-1.163-.08-.195-.015-.432.144-.53.16-.097.353-.018.433.177.126.308.363.598.682.858a3.844 3.844 0 0 0 .852.523c.169.069.26.292.204.499-.057.207-.24.319-.408.25Zm2.784 0c-.169.069-.351-.043-.408-.25-.056-.207.035-.43.204-.5a3.846 3.846 0 0 0 .852-.522c.319-.26.556-.55.682-.858.08-.195.274-.274.433-.177.16.098.224.335.144.53-.183.45-.497.833-.9 1.162a4.448 4.448 0 0 1-1.007.615Zm-1.948-.473c0 .345.25.625.556.625.307 0 .556-.28.556-.625 0-.346-.25-.625-.556-.625-.307 0-.556.28-.556.625Z" fill="#445128"/><path fill-rule="evenodd" clip-rule="evenodd" d="M10 8.333A1.667 1.667 0 1 0 10 5a1.667 1.667 0 0 0 0 3.333Z" fill="#9A5111"/><path opacity=".2" fill-rule="evenodd" clip-rule="evenodd" d="M19.167 0H.833A.833.833 0 0 0 0 .833v13.334c0 .46.373.833.833.833h18.334c.46 0 .833-.373.833-.833V.833A.833.833 0 0 0 19.167 0ZM.833 14.167V.833h18.334v13.334H.833Z" fill="#000"/></svg>