<svg width="32" height="24" viewBox="0 0 32 24" fill="none" xmlns="http://www.w3.org/2000/svg">
<path fill-rule="evenodd" clip-rule="evenodd" d="M1 0H31C31.5523 0 32 0.447715 32 1V23C32 23.5523 31.5523 24 31 24H1C0.447715 24 0 23.5523 0 23V1C0 0.447715 0.447715 0 1 0Z" fill="white"/>
<path fill-rule="evenodd" clip-rule="evenodd" d="M0 1C0 0.447715 0.447715 0 1 0H31C31.5523 0 32 0.447715 32 1V3H0V1ZM0 5H32V7H0V5ZM0 9H32V11H0V9ZM0 13H32V15H0V13ZM0 17H32V19H0V17ZM0 21H32V23C32 23.5523 31.5523 24 31 24H1C0.447715 24 0 23.5523 0 23V21Z" fill="#CC0001"/>
<path fill-rule="evenodd" clip-rule="evenodd" d="M0 1C0 0.447715 0.447715 0 1 0H17V13H0V1Z" fill="#010066"/>
<path fill-rule="evenodd" clip-rule="evenodd" d="M11.8609 7.90226L11.1651 9.2729L11.1853 7.73557L9.93283 8.62553L10.6645 7.2737L9.14229 7.47909L10.4177 6.62245L8.97455 6.09623L10.5016 5.93102L9.46803 4.79374L10.8969 5.3578L10.5097 3.86999L11.513 5.03412L11.8609 3.53662L12.2088 5.03412L13.2121 3.86999L12.8249 5.3578L14.2537 4.79374L13.2202 5.93102L14.7472 6.09623L13.3041 6.62245L14.5795 7.47909L13.0573 7.2737L13.7889 8.62553L12.5365 7.73557L12.5567 9.2729L11.8609 7.90226Z" fill="#FFCC00"/>
<path fill-rule="evenodd" clip-rule="evenodd" d="M11.0819 3.74335C10.2554 2.68239 8.96573 2 7.51667 2C5.02218 2 3 4.02218 3 6.51667C3 9.01115 5.02218 11.0333 7.51667 11.0333C8.96573 11.0333 10.2554 10.3509 11.0819 9.28999C10.4441 9.75353 9.64225 10.0296 8.7713 10.0296C6.69256 10.0296 5.00741 8.45682 5.00741 6.51667C5.00741 4.57651 6.69256 3.0037 8.7713 3.0037C9.64225 3.0037 10.4441 3.27981 11.0819 3.74335Z" fill="#FFCC00"/>
<path opacity="0.2" fill-rule="evenodd" clip-rule="evenodd" d="M31 0H1C0.447715 0 0 0.447715 0 1V23C0 23.5523 0.447715 24 1 24H31C31.5523 24 32 23.5523 32 23V1C32 0.447715 31.5523 0 31 0ZM1 23V1H31V23H1Z" fill="black"/>
</svg>
