<svg width="32" height="24" viewBox="0 0 32 24" fill="none" xmlns="http://www.w3.org/2000/svg">
<path d="M8 11.8621H24L8 2V23H24L8 7.25V11.8621Z" fill="#DC143C" stroke="#003893" stroke-width="2"/>
<path d="M8 11.8621H24L8 2V23H24L8 7.25V11.8621Z" fill="#DC143C"/>
<path d="M12 11.3004C13.76 11.3004 15.1867 9.89599 15.1867 8.16349C14.9067 8.86436 14.4 9.44449 13.7547 9.82249L13.4827 9.62299L14.016 9.22924L13.3707 9.06649L13.712 8.49686L13.0453 8.59136L13.144 7.94036L12.5653 8.28161L12.4 7.63849L12 8.16349L11.6 7.63849L11.432 8.27899L10.856 7.94299L10.9547 8.59924L10.288 8.50211L10.6347 9.07174L9.98399 9.23449L10.5173 9.62824L10.2507 9.83036C9.61866 9.46286 9.10399 8.89586 8.81599 8.17136C8.81599 9.90386 10.2427 11.3082 12.0027 11.3082L12 11.3004Z" fill="white"/>
<path d="M10.464 15.9204L9.03466 15.7471L9.90133 16.8759L8.576 17.4324L9.90133 17.9836L9.03466 19.1124L10.464 18.9391L10.288 20.3488L11.4347 19.4956L12 20.8029L12.56 19.4956L13.712 20.3514L13.536 18.9444L14.9653 19.1203L14.0987 17.9915L15.424 17.4403L14.0987 16.8838L14.9653 15.755L13.536 15.9256L13.712 14.5186L12.5653 15.3718L12 14.0619L11.44 15.3665L10.288 14.5134L10.464 15.9204Z" fill="white"/>
</svg>
