<svg width="32" height="24" viewBox="0 0 32 24" fill="none" xmlns="http://www.w3.org/2000/svg">
<path fill-rule="evenodd" clip-rule="evenodd" d="M1 0H31C31.5523 0 32 0.447715 32 1V23C32 23.5523 31.5523 24 31 24H1C0.447715 24 0 23.5523 0 23V1C0 0.447715 0.447715 0 1 0Z" fill="#273C83"/>
<path fill-rule="evenodd" clip-rule="evenodd" d="M25 5.5C25 6.32843 24.3284 7 23.5 7C22.6716 7 22 6.32843 22 5.5C22 4.67157 22.6716 4 23.5 4C24.3284 4 25 4.67157 25 5.5ZM22 10.5C22 11.3284 21.3284 12 20.5 12C19.6716 12 19 11.3284 19 10.5C19 9.67157 19.6716 9 20.5 9C21.3284 9 22 9.67157 22 10.5ZM23.5 20C24.3284 20 25 19.3284 25 18.5C25 17.6716 24.3284 17 23.5 17C22.6716 17 22 17.6716 22 18.5C22 19.3284 22.6716 20 23.5 20ZM28 10C28 10.5523 27.5523 11 27 11C26.4477 11 26 10.5523 26 10C26 9.44772 26.4477 9 27 9C27.5523 9 28 9.44772 28 10Z" fill="#EF2800"/>
<path fill-rule="evenodd" clip-rule="evenodd" d="M16 0H15.349L8.25 4.61014L1.15101 0H1C0.447715 0 0 0.447715 0 1V2.23343L5.9549 6.10059L0 9.96775V12H1.46081L8.25 7.59105L15.0392 12H16V9.64305L10.5451 6.10059L16 2.55814V0Z" fill="#F7F7F7"/>
<path fill-rule="evenodd" clip-rule="evenodd" d="M0 0.999993V1.50151L7.08196 6.10059L0 10.6997V11.892L8 6.69677L16 11.892V10.6997L8.91804 6.10059L16 1.50151V0.309143L8 5.5044L0.180694 0.426487C0.0668275 0.588855 0 0.78662 0 0.999993Z" fill="#DC1E35"/>
<path fill-rule="evenodd" clip-rule="evenodd" d="M10 4H16V8H10V12H6V8H0V4H6V0H10V4Z" fill="#F7F7F7"/>
<path fill-rule="evenodd" clip-rule="evenodd" d="M9 5V0H7V5H0V7H7V12H9V7H16V5H9Z" fill="#DC1E35"/>
<path opacity="0.2" fill-rule="evenodd" clip-rule="evenodd" d="M31 0H1C0.447715 0 0 0.447715 0 1V23C0 23.5523 0.447715 24 1 24H31C31.5523 24 32 23.5523 32 23V1C32 0.447715 31.5523 0 31 0ZM1 23V1H31V23H1Z" fill="black"/>
</svg>
