<svg width="32" height="24" viewBox="0 0 32 24" fill="none" xmlns="http://www.w3.org/2000/svg">
<g clip-path="url(#clip0_392_35693)">
<path d="M32 0H0V24H32V0Z" fill="black"/>
<path d="M0 0H32V24L0 0Z" fill="#CE1126"/>
<path d="M19.8134 6.9707C19.5787 7.2747 19.0187 6.66136 18.3467 6.6507C17.6747 6.6347 17.2001 7.2907 17.0081 7.5147C16.8107 7.7387 16.1867 8.91203 16.1974 9.03469C16.2081 9.15736 16.5867 8.68803 16.7254 8.60269C16.7414 8.76803 16.5707 8.96536 16.6134 9.02403C16.6561 9.08269 17.1041 8.68803 17.2534 8.67736C17.2961 8.78936 17.1681 8.90136 17.2107 9.06669C17.2641 9.12003 17.5201 8.78936 17.6854 8.72003C17.7121 8.84803 17.5307 9.08269 17.6321 9.23736C17.7014 9.25336 18.1227 8.76269 18.2614 8.70936C18.4001 8.65603 18.1921 9.16803 18.2614 9.21069C18.3894 9.12536 18.7787 8.68269 18.9014 8.62403C19.0294 8.57069 18.8854 9.19469 18.9441 9.19469C19.0987 9.08269 19.4881 8.55469 19.5307 8.46936C19.5734 8.38403 19.4881 9.28003 19.9201 9.75469C20.3521 10.2294 21.0081 10.7734 21.0774 10.7734C21.1627 10.6187 21.0507 10.2987 21.1201 10.3147C21.3174 10.5227 21.6801 10.832 21.7601 10.832C21.8401 10.832 21.7067 10.496 21.8134 10.496C22.0374 10.704 22.6774 11.5307 23.9361 11.904C23.8507 11.6694 23.6694 11.456 23.6587 11.344C23.7441 11.36 24.0374 11.4987 24.0907 11.4827C24.1441 11.4667 23.4774 10.6454 23.5201 10.5334C23.6747 10.5174 23.7441 10.6187 23.7974 10.5494C23.7281 10.4374 23.1414 9.78136 23.1414 9.62669C23.1414 9.47203 23.3227 9.65336 23.3761 9.62669C23.4294 9.60003 23.1521 9.01336 23.2107 8.94403C23.2641 8.87469 23.8827 9.32269 24.0321 9.32269C24.1867 9.32269 24.0747 8.77869 24.1441 8.75203C24.2134 8.72536 24.7307 9.04536 24.8427 9.04536C24.9547 9.04536 24.9387 8.81069 24.9814 8.83736C25.0241 8.86403 26.2401 10.08 25.8187 11.504C25.3974 12.5227 24.5601 13.0667 23.3334 12.6187C23.4027 12.7307 24.0587 13.2747 24.7734 13.0774C25.4827 12.88 26.3521 12.3254 26.2507 10.928C26.1547 9.53069 25.6907 9.33869 25.6214 9.12536C25.5521 8.91736 25.7334 9.17869 25.8881 9.23736C26.0427 9.29069 25.8614 8.94403 25.8187 8.78936C25.7761 8.63469 26.2774 9.10936 26.4054 9.15203C26.5334 9.19469 26.1121 8.00536 25.9841 7.92536C25.8561 7.84003 26.1121 7.95203 26.1921 7.9787C26.2774 8.00536 25.4241 6.6827 25.2427 6.6827C25.0614 6.6827 25.3974 6.61336 25.4934 6.61336C25.5894 6.61336 24.5174 5.74936 24.3361 5.74936C24.1547 5.74936 24.7254 5.52536 24.7841 5.5147C24.8801 5.5307 23.5414 4.80537 22.3414 5.5307C22.2721 5.47736 22.9067 5.0347 22.9281 4.84803C22.9334 4.80003 22.7201 4.69337 22.7041 4.64003C22.6881 4.5867 23.0401 4.41603 23.0507 4.29337C22.9654 4.18137 22.8161 4.22403 22.7307 4.19737C22.7094 4.0907 23.0241 3.8347 22.9974 3.7227C22.9761 3.6587 22.7467 3.63737 22.6881 3.68003C22.6294 3.7227 22.8321 3.3867 22.8001 3.2907C22.7734 3.24803 22.6614 3.2747 22.5494 3.3067C22.4801 3.2907 22.9121 2.69337 22.8267 2.60804C22.7414 2.5227 21.5681 3.22137 21.1361 4.00537C20.7041 4.78937 21.0401 5.41336 20.9814 5.68003C20.9227 5.9467 20.8534 6.20803 20.6721 6.20803C20.4907 6.20803 20.0694 5.9307 19.9307 5.7867C19.7921 5.64803 19.7654 5.55203 19.5681 5.49336C19.3707 5.44003 18.9281 5.60536 18.7574 5.62136C18.5921 5.63736 17.9361 5.49336 17.8934 5.53603C17.8507 5.5787 18.5334 5.82936 18.6881 5.9147C18.8427 6.00003 18.8534 6.11203 18.9654 6.18136C19.0987 6.2347 20.1494 6.5387 19.8134 6.9707ZM23.9041 8.93869C24.2401 9.27469 26.5014 10.7787 26.5014 12.624C26.5014 14.4694 24.8534 14.4107 24.3787 14.3574C24.9067 14.8054 26.9174 14.72 26.9174 12.624C26.9174 10.784 24.3201 8.93869 23.9841 8.77336C23.6481 8.60803 23.5681 8.60803 23.9041 8.93869Z" fill="#FCD116"/>
<path d="M9.83999 16.5067L9.65332 15.904L9.46666 16.5067H8.87466L9.35466 16.8693L9.17866 17.44L9.64799 17.0933L10.1333 17.456L9.95199 16.8693L10.432 16.5067H9.83999Z" fill="white"/>
<path d="M7.41859 9.36528L7.06126 10.5066L8.00526 9.80794L8.97059 10.5439L8.60792 9.35994L9.57859 8.63994H8.38926L8.01592 7.43994L7.64259 8.63994H6.4586L7.41859 9.36528Z" fill="white"/>
<path d="M4.71998 13.3279L4.35198 12.1226L3.97864 13.3279H2.78931L3.74931 14.0532L3.39731 15.1946L4.33598 14.4959L5.30664 15.2266L4.94398 14.0479L5.90931 13.3279H4.71998Z" fill="white"/>
<path d="M12.256 13.712L13.2267 12.992H12.0373L11.6693 11.792L11.2907 12.992H10.1067L11.0667 13.7173L10.7147 14.864L11.6533 14.1653L12.6187 14.896L12.256 13.712Z" fill="white"/>
<path d="M8.38926 19.6586L8.01592 18.4586L7.64259 19.6586H6.4586L7.41859 20.384L7.06126 21.5306L8.00526 20.832L8.97059 21.5626L8.60792 20.3786L9.57859 19.6586H8.38926Z" fill="white"/>
<path opacity="0.2" fill-rule="evenodd" clip-rule="evenodd" d="M31 0H1C0.447715 0 0 0.447715 0 1V23C0 23.5523 0.447715 24 1 24H31C31.5523 24 32 23.5523 32 23V1C32 0.447715 31.5523 0 31 0ZM1 23V1H31V23H1Z" fill="black"/>
</g>
<defs>
<clipPath id="clip0_392_35693">
<rect width="32" height="24" rx="1" fill="white"/>
</clipPath>
</defs>
</svg>
