<svg width="32" height="24" viewBox="0 0 32 24" fill="none" xmlns="http://www.w3.org/2000/svg">
<path d="M1 0H31C31.5523 0 32 0.447715 32 1V23C32 23.5523 31.5523 24 31 24H1C0.447715 24 0 23.5523 0 23V1C0 0.447715 0.447715 0 1 0Z" fill="#00642E"/>
<path d="M0 1C0 0.447716 0.447715 0 1 0H9V24H1C0.447715 24 0 23.5523 0 23V1Z" fill="#F7F7F7"/>
<path opacity="0.2" fill-rule="evenodd" clip-rule="evenodd" d="M31 0H1C0.447715 0 0 0.447715 0 1V23C0 23.5523 0.447715 24 1 24H31C31.5523 24 32 23.5523 32 23V1C32 0.447715 31.5523 0 31 0ZM1 23V1H31V23H1Z" fill="black"/>
<path fill-rule="evenodd" clip-rule="evenodd" d="M21.5814 6.13167C19.8435 5.42666 17.8103 5.50179 16.0603 6.51213C13.0478 8.25138 12.0157 12.1034 13.7549 15.1159C15.4942 18.1283 19.3462 19.1605 22.3587 17.4212C24.1087 16.4109 25.1904 14.6876 25.4487 12.8301C25.0017 13.8346 24.2258 14.7271 23.174 15.3343C20.6636 16.7837 17.5319 16.0593 16.1792 13.7162C14.8264 11.3732 15.7649 8.29885 18.2753 6.84947C19.3271 6.24221 20.488 6.01656 21.5814 6.13167Z" fill="#F5FFFD"/>
<path fill-rule="evenodd" clip-rule="evenodd" d="M26.2531 6.75245L24.2785 7.89245L22.575 6.38184L23.0315 8.61245L21.0569 9.75245L23.3577 10.0176L23.8142 12.2482L24.765 10.175L27.0358 10.3882L25.3323 8.87757L26.2531 6.75245Z" fill="white"/>
</svg>
