<svg width="20" height="15" viewBox="0 0 20 15" fill="none" xmlns="http://www.w3.org/2000/svg"><path fill-rule="evenodd" clip-rule="evenodd" d="M.833 0h18.334c.46 0 .833.373.833.833v13.334c0 .46-.373.833-.833.833H.833A.833.833 0 0 1 0 14.167V.833C0 .373.373 0 .833 0Z" fill="#FF2936"/><path fill-rule="evenodd" clip-rule="evenodd" d="M0 1a1 1 0 0 1 1-1h5.667v15H1a1 1 0 0 1-1-1V1Z" fill="#128415"/><path fill-rule="evenodd" clip-rule="evenodd" d="M2.708 7.5a3.958 3.958 0 1 0 7.917 0 3.958 3.958 0 0 0-7.917 0Zm6.667 0a2.708 2.708 0 1 1-5.417 0 2.708 2.708 0 0 1 5.417 0Z" fill="#FF0"/><path fill-rule="evenodd" clip-rule="evenodd" d="M6.667 5.143 9.024 7.5 6.667 9.857 4.31 7.5l2.357-2.357Z" fill="#F7F7F7"/><path opacity=".2" fill-rule="evenodd" clip-rule="evenodd" d="M19.167 0H.833A.833.833 0 0 0 0 .833v13.334c0 .46.373.833.833.833h18.334c.46 0 .833-.373.833-.833V.833A.833.833 0 0 0 19.167 0ZM.833 14.167V.833h18.334v13.334H.833Z" fill="#000"/></svg>