<svg width="32" height="24" viewBox="0 0 32 24" fill="none" xmlns="http://www.w3.org/2000/svg">
<path fill-rule="evenodd" clip-rule="evenodd" d="M1 0H31C31.5523 0 32 0.447715 32 1V23C32 23.5523 31.5523 24 31 24H1C0.447715 24 0 23.5523 0 23V1C0 0.447715 0.447715 0 1 0Z" fill="#F7F7F7"/>
<path fill-rule="evenodd" clip-rule="evenodd" d="M0 16H32V23C32 23.5523 31.5523 24 31 24H1C0.447715 24 0 23.5523 0 23V16Z" fill="#0035AA"/>
<path fill-rule="evenodd" clip-rule="evenodd" d="M0 1C0 0.447715 0.447715 0 1 0H31C31.5523 0 32 0.447715 32 1V8H0V1Z" fill="#D62717"/>
<path opacity="0.2" fill-rule="evenodd" clip-rule="evenodd" d="M31 0H1C0.447715 0 0 0.447715 0 1V23C0 23.5523 0.447715 24 1 24H31C31.5523 24 32 23.5523 32 23V1C32 0.447715 31.5523 0 31 0ZM1 23V1H31V23H1Z" fill="black"/>
<path fill-rule="evenodd" clip-rule="evenodd" d="M16 14C17.1046 14 18 13.1046 18 12C18 10.8954 17.1046 10 16 10C14.8954 10 14 10.8954 14 12C14 13.1046 14.8954 14 16 14Z" fill="#FCD30F"/>
<path fill-rule="evenodd" clip-rule="evenodd" d="M13.5 12C13.5 13.3807 14.6193 14.5 16 14.5C17.3807 14.5 18.5 13.3807 18.5 12C18.5 10.6193 17.3807 9.5 16 9.5C14.6193 9.5 13.5 10.6193 13.5 12ZM17.5 12C17.5 12.8284 16.8284 13.5 16 13.5C15.1716 13.5 14.5 12.8284 14.5 12C14.5 11.1716 15.1716 10.5 16 10.5C16.8284 10.5 17.5 11.1716 17.5 12Z" fill="#61AB10"/>
</svg>
