<svg width="18" height="12" viewBox="0 0 18 12" fill="none" xmlns="http://www.w3.org/2000/svg"><path fill-rule="evenodd" clip-rule="evenodd" d="M.75 0h16.5c.414 0 .75.298.75.667v10.666c0 .368-.336.667-.75.667H.75c-.414 0-.75-.299-.75-.667V.667C0 .298.336 0 .75 0Z" fill="#006AA7"/><path fill-rule="evenodd" clip-rule="evenodd" d="M7.5 4.667H18v2H7.5V12H5.25V6.667H0v-2h5.25V0H7.5v4.667Z" fill="#FECC00"/><path opacity=".2" fill-rule="evenodd" clip-rule="evenodd" d="M17.25 0H.75C.336 0 0 .298 0 .667v10.666c0 .368.336.667.75.667h16.5c.414 0 .75-.299.75-.667V.667C18 .298 17.664 0 17.25 0ZM.75 11.333V.667h16.5v10.666H.75Z" fill="#000"/></svg>