<svg width="32" height="24" viewBox="0 0 32 24" fill="none" xmlns="http://www.w3.org/2000/svg">
<path fill-rule="evenodd" clip-rule="evenodd" d="M1 0H31C31.5523 0 32 0.447715 32 1V23C32 23.5523 31.5523 24 31 24H1C0.447715 24 0 23.5523 0 23V1C0 0.447715 0.447715 0 1 0Z" fill="#F7F7F7"/>
<path fill-rule="evenodd" clip-rule="evenodd" d="M0 1C0 0.447715 0.447715 0 1 0H31C31.5523 0 32 0.447715 32 1V12H0V1Z" fill="#D2143B"/>
<path fill-rule="evenodd" clip-rule="evenodd" d="M15 4C15.5523 4 16 3.55228 16 3C16 2.44772 15.5523 2 15 2C14.4477 2 14 2.44772 14 3C14 3.55228 14.4477 4 15 4ZM18 6C18.5523 6 19 5.55228 19 5C19 4.44772 18.5523 4 18 4C17.4477 4 17 4.44772 17 5C17 5.55228 17.4477 6 18 6ZM18 8C18 8.55228 17.5523 9 17 9C16.4477 9 16 8.55228 16 8C16 7.44772 16.4477 7 17 7C17.5523 7 18 7.44772 18 8ZM13 9C13.5523 9 14 8.55228 14 8C14 7.44772 13.5523 7 13 7C12.4477 7 12 7.44772 12 8C12 8.55228 12.4477 9 13 9ZM13 5C13 5.55228 12.5523 6 12 6C11.4477 6 11 5.55228 11 5C11 4.44772 11.4477 4 12 4C12.5523 4 13 4.44772 13 5Z" fill="white"/>
<path fill-rule="evenodd" clip-rule="evenodd" d="M10.2737 3.56901C9.52987 2.61415 8.36916 2 7.065 2C4.81996 2 3 3.81996 3 6.065C3 8.31004 4.81996 10.13 7.065 10.13C8.36916 10.13 9.52987 9.51585 10.2737 8.56099C9.69971 8.97817 8.97803 9.22667 8.19417 9.22667C6.3233 9.22667 4.80667 7.81114 4.80667 6.065C4.80667 4.31886 6.3233 2.90333 8.19417 2.90333C8.97803 2.90333 9.69971 3.15183 10.2737 3.56901Z" fill="#F5FFFD"/>
<path opacity="0.2" fill-rule="evenodd" clip-rule="evenodd" d="M31 0H1C0.447715 0 0 0.447715 0 1V23C0 23.5523 0.447715 24 1 24H31C31.5523 24 32 23.5523 32 23V1C32 0.447715 31.5523 0 31 0ZM1 23V1H31V23H1Z" fill="black"/>
</svg>
