<svg width="32" height="24" viewBox="0 0 32 24" fill="none" xmlns="http://www.w3.org/2000/svg">
<path fill-rule="evenodd" clip-rule="evenodd" d="M1 0H31C31.5523 0 32 0.447715 32 1V23C32 23.5523 31.5523 24 31 24H1C0.447715 24 0 23.5523 0 23V1C0 0.447715 0.447715 0 1 0Z" fill="#E30A17"/>
<path fill-rule="evenodd" clip-rule="evenodd" d="M19.1676 7.62467C17.9233 6.02736 15.9816 5 13.8 5C10.0445 5 7 8.04446 7 11.8C7 15.5555 10.0445 18.6 13.8 18.6C15.9816 18.6 17.9233 17.5726 19.1676 15.9753C18.2074 16.6732 17.0001 17.0889 15.6889 17.0889C12.5593 17.0889 10.0222 14.721 10.0222 11.8C10.0222 8.87903 12.5593 6.51111 15.6889 6.51111C17.0001 6.51111 18.2074 6.92679 19.1676 7.62467Z" fill="white"/>
<path fill-rule="evenodd" clip-rule="evenodd" d="M19.5 13C20.3284 13 21 12.3284 21 11.5C21 10.6716 20.3284 10 19.5 10C18.6716 10 18 10.6716 18 11.5C18 12.3284 18.6716 13 19.5 13Z" fill="white"/>
<path opacity="0.2" fill-rule="evenodd" clip-rule="evenodd" d="M31 0H1C0.447715 0 0 0.447715 0 1V23C0 23.5523 0.447715 24 1 24H31C31.5523 24 32 23.5523 32 23V1C32 0.447715 31.5523 0 31 0ZM1 23V1H31V23H1Z" fill="black"/>
</svg>
