<svg width="32" height="24" viewBox="0 0 32 24" fill="none" xmlns="http://www.w3.org/2000/svg">
<path fill-rule="evenodd" clip-rule="evenodd" d="M1 0H31C31.5523 0 32 0.447715 32 1V23C32 23.5523 31.5523 24 31 24H1C0.447715 24 0 23.5523 0 23V1C0 0.447715 0.447715 0 1 0Z" fill="#DC092D"/>
<path fill-rule="evenodd" clip-rule="evenodd" d="M10.364 0L32 21.636V23C32 23.5523 31.5523 24 31 24H21.636L0 2.36396L0 1C0 0.447715 0.447715 0 1 0L10.364 0Z" fill="white"/>
<path fill-rule="evenodd" clip-rule="evenodd" d="M7.53553 0L31.4358 23.9003C31.3041 23.9642 31.1562 24 31 24H24.4645L0.564178 0.0997129C0.695906 0.0358268 0.843769 0 0.999999 0H7.53553Z" fill="black"/>
<path opacity="0.2" fill-rule="evenodd" clip-rule="evenodd" d="M31 0H1C0.447715 0 0 0.447715 0 1V23C0 23.5523 0.447715 24 1 24H31C31.5523 24 32 23.5523 32 23V1C32 0.447715 31.5523 0 31 0ZM1 23V1H31V23H1Z" fill="black"/>
</svg>
