<svg width="18" height="12" viewBox="0 0 18 12" fill="none" xmlns="http://www.w3.org/2000/svg"><path fill-rule="evenodd" clip-rule="evenodd" d="M.563 0h16.875c.31 0 .562.224.562.5v11c0 .276-.252.5-.563.5H.563C.253 12 0 11.776 0 11.5V.5C0 .224.252 0 .563 0Z" fill="#ED2939"/><path fill-rule="evenodd" clip-rule="evenodd" d="M0 1.5h18v1H0v-1Zm0 2h18v1H0v-1Zm0 2h18v1H0v-1Zm0 2h18v1H0v-1Zm0 2h18v1H0v-1Z" fill="#F7F7F7"/><path fill-rule="evenodd" clip-rule="evenodd" d="M0 1a1 1 0 0 1 1-1h9.125v7H0V1Z" fill="#0066B3"/><path fill-rule="evenodd" clip-rule="evenodd" d="M1.688 2c.31 0 .562-.224.562-.5S1.998 1 1.687 1c-.31 0-.562.224-.562.5s.252.5.563.5Zm1.687 1c.31 0 .563-.224.563-.5S3.686 2 3.375 2c-.31 0-.563.224-.563.5s.252.5.563.5Zm.563 1.5c0 .276-.252.5-.563.5-.31 0-.563-.224-.563-.5s.252-.5.563-.5c.31 0 .563.224.563.5ZM6.75 3c.31 0 .563-.224.563-.5S7.06 2 6.75 2c-.31 0-.563.224-.563.5s.252.5.563.5Zm.563 1.5c0 .276-.252.5-.563.5-.31 0-.563-.224-.563-.5S6.44 4 6.75 4c.31 0 .563.224.563.5ZM5.063 2c.31 0 .562-.224.562-.5S5.373 1 5.062 1c-.31 0-.562.224-.562.5s.252.5.563.5ZM9 1.5c0 .276-.252.5-.563.5-.31 0-.562-.224-.562-.5s.252-.5.563-.5c.31 0 .562.224.562.5ZM5.062 4c.311 0 .563-.224.563-.5S5.373 3 5.062 3c-.31 0-.562.224-.562.5s.252.5.563.5Zm.563 1.5c0 .276-.252.5-.563.5-.31 0-.562-.224-.562-.5s.252-.5.563-.5c.31 0 .562.224.562.5ZM8.438 4C8.748 4 9 3.776 9 3.5S8.748 3 8.437 3c-.31 0-.562.224-.562.5s.252.5.563.5ZM9 5.5c0 .276-.252.5-.563.5-.31 0-.562-.224-.562-.5s.252-.5.563-.5c.31 0 .562.224.562.5ZM1.687 4c.311 0 .563-.224.563-.5S1.998 3 1.687 3c-.31 0-.562.224-.562.5s.252.5.563.5Zm.563 1.5c0 .276-.252.5-.563.5-.31 0-.562-.224-.562-.5s.252-.5.563-.5c.31 0 .562.224.562.5Z" fill="#F7F7F7"/><path opacity=".2" fill-rule="evenodd" clip-rule="evenodd" d="M17.438 0H.563C.252 0 0 .224 0 .5v11c0 .276.252.5.563.5h16.875c.31 0 .562-.224.562-.5V.5c0-.276-.252-.5-.563-.5ZM.563 11.5V.5h16.875v11H.563Z" fill="#000"/></svg>