<svg width="32" height="24" viewBox="0 0 32 24" fill="none" xmlns="http://www.w3.org/2000/svg">
<path fill-rule="evenodd" clip-rule="evenodd" d="M1 0H31C31.5523 0 32 0.447715 32 1V23C32 23.5523 31.5523 24 31 24H1C0.447715 24 0 23.5523 0 23V1C0 0.447715 0.447715 0 1 0Z" fill="#F7F7F7"/>
<path fill-rule="evenodd" clip-rule="evenodd" d="M13 8H32V10H13V8Z" fill="#0035AA"/>
<path fill-rule="evenodd" clip-rule="evenodd" d="M13 3H32V5H13V3Z" fill="#0035AA"/>
<path fill-rule="evenodd" clip-rule="evenodd" d="M0 13H32V15H0V13Z" fill="#0035AA"/>
<path fill-rule="evenodd" clip-rule="evenodd" d="M0 18H32V20H0V18Z" fill="#0035AA"/>
<path opacity="0.2" fill-rule="evenodd" clip-rule="evenodd" d="M31 0H1C0.447715 0 0 0.447715 0 1V23C0 23.5523 0.447715 24 1 24H31C31.5523 24 32 23.5523 32 23V1C32 0.447715 31.5523 0 31 0ZM1 23V1H31V23H1Z" fill="black"/>
<path fill-rule="evenodd" clip-rule="evenodd" d="M7 11C9.20914 11 11 9.20914 11 7C11 4.79086 9.20914 3 7 3C4.79086 3 3 4.79086 3 7C3 9.20914 4.79086 11 7 11Z" fill="#FFCD02"/>
<path fill-rule="evenodd" clip-rule="evenodd" d="M2 7C2 9.76142 4.23858 12 7 12C9.76142 12 12 9.76142 12 7C12 4.23858 9.76142 2 7 2C4.23858 2 2 4.23858 2 7ZM10 7C10 8.65685 8.65685 10 7 10C5.34315 10 4 8.65685 4 7C4 5.34315 5.34315 4 7 4C8.65685 4 10 5.34315 10 7Z" fill="#BE8E0E"/>
</svg>
