<svg width="32" height="24" viewBox="0 0 32 24" fill="none" xmlns="http://www.w3.org/2000/svg">
<path fill-rule="evenodd" clip-rule="evenodd" d="M1 0H31C31.5523 0 32 0.447715 32 1V23C32 23.5523 31.5523 24 31 24H1C0.447715 24 0 23.5523 0 23V1C0 0.447715 0.447715 0 1 0Z" fill="#DA251D"/>
<path fill-rule="evenodd" clip-rule="evenodd" d="M16 15L12.4733 16.8541L13.1468 12.9271L10.2936 10.1459L14.2366 9.57295L16 6L17.7633 9.57295L21.7063 10.1459L18.8531 12.9271L19.5267 16.8541L16 15Z" fill="#FFCD00"/>
<path opacity="0.2" fill-rule="evenodd" clip-rule="evenodd" d="M31 0H1C0.447715 0 0 0.447715 0 1V23C0 23.5523 0.447715 24 1 24H31C31.5523 24 32 23.5523 32 23V1C32 0.447715 31.5523 0 31 0ZM1 23V1H31V23H1Z" fill="black"/>
</svg>
